M48
; DRILL file {KiCad (6.0.2)} date Wed Aug 31 13:55:09 2022
; FORMAT={-:-/ absolute / metric / decimal}
; #@! TF.CreationDate,2022-08-31T13:55:09-03:00
; #@! TF.GenerationSoftware,Kicad,Pcbnew,(6.0.2)
; #@! TF.FileFunction,MixedPlating,1,2
FMAT,2
METRIC
; #@! TA.AperFunction,Plated,PTH,ViaDrill
T1C0.800
; #@! TA.AperFunction,Plated,PTH,ComponentDrill
T2C0.800
; #@! TA.AperFunction,Plated,PTH,ComponentDrill
T3C1.000
; #@! TA.AperFunction,Plated,PTH,ComponentDrill
T4C1.100
; #@! TA.AperFunction,Plated,PTH,ComponentDrill
T5C1.200
; #@! TA.AperFunction,Plated,PTH,ComponentDrill
T6C1.400
%
G90
G05
T1
X87.249Y-49.276
X98.044Y-49.276
T2
X81.28Y-46.137
X81.28Y-48.677
X81.28Y-51.217
X81.28Y-53.757
X81.28Y-56.297
X81.28Y-58.837
X81.28Y-61.377
X81.28Y-63.917
X81.28Y-66.457
X81.28Y-68.997
X81.28Y-71.537
X81.28Y-74.077
X81.28Y-76.617
X81.28Y-79.157
X81.28Y-81.697
X81.28Y-84.237
X81.28Y-86.777
X81.28Y-89.317
X81.28Y-91.857
X86.868Y-54.991
X93.98Y-54.991
X106.676Y-89.314
X106.676Y-91.854
X106.68Y-46.137
X106.68Y-48.677
X106.68Y-51.217
X106.68Y-53.757
X106.68Y-56.297
X106.68Y-58.837
X106.68Y-61.377
X106.68Y-63.917
X106.68Y-66.457
X106.68Y-68.997
X106.68Y-71.537
X106.68Y-74.077
X106.68Y-76.617
X106.68Y-79.157
X106.68Y-81.697
X106.68Y-84.237
X106.68Y-86.777
X109.474Y-96.52
X109.474Y-99.06
X111.252Y-84.836
X111.252Y-92.456
X116.586Y-96.52
X116.586Y-99.06
X118.364Y-84.836
X118.364Y-92.456
X123.698Y-96.52
X123.698Y-99.06
X125.476Y-84.836
X125.476Y-92.456
T3
X57.633Y-45.583
X57.633Y-48.123
X57.633Y-50.663
X57.633Y-53.203
X60.96Y-92.964
X60.975Y-88.392
X63.5Y-92.964
X63.515Y-88.392
X66.04Y-92.964
X66.055Y-88.392
X66.08Y-50.937
X68.58Y-50.937
X70.739Y-64.643
X70.739Y-67.183
X71.08Y-50.937
X124.46Y-55.372
X124.46Y-57.912
X124.46Y-60.452
X124.46Y-62.992
X124.46Y-65.532
X124.46Y-68.072
X124.46Y-71.613
X124.46Y-74.153
X124.46Y-76.693
T5
X53.54Y-75.264
X53.54Y-80.264
X53.848Y-62.23
X53.848Y-67.23
X66.04Y-75.264
X66.04Y-80.264
X66.348Y-62.23
X66.348Y-67.23
T6
X62.484Y-101.6
X67.564Y-101.6
X75.184Y-101.6
X80.264Y-101.6
T4
G00X63.78Y-43.987
M15
G01X63.78Y-42.887
M16
G05
G00X73.38Y-43.987
M15
G01X73.38Y-42.887
M16
G05
T0
M30
