%TF.GenerationSoftware,KiCad,Pcbnew,(6.0.2)*%
%TF.CreationDate,2022-08-31T13:55:06-03:00*%
%TF.ProjectId,placa,706c6163-612e-46b6-9963-61645f706362,rev?*%
%TF.SameCoordinates,Original*%
%TF.FileFunction,Copper,L2,Bot*%
%TF.FilePolarity,Positive*%
%FSLAX46Y46*%
G04 Gerber Fmt 4.6, Leading zero omitted, Abs format (unit mm)*
G04 Created by KiCad (PCBNEW (6.0.2)) date 2022-08-31 13:55:06*
%MOMM*%
%LPD*%
G01*
G04 APERTURE LIST*
%TA.AperFunction,ComponentPad*%
%ADD10R,2.000000X2.000000*%
%TD*%
%TA.AperFunction,ComponentPad*%
%ADD11O,2.000000X2.200000*%
%TD*%
%TA.AperFunction,ComponentPad*%
%ADD12C,2.300000*%
%TD*%
%TA.AperFunction,ComponentPad*%
%ADD13R,1.900000X1.900000*%
%TD*%
%TA.AperFunction,ComponentPad*%
%ADD14C,2.000000*%
%TD*%
%TA.AperFunction,ComponentPad*%
%ADD15R,2.600000X2.600000*%
%TD*%
%TA.AperFunction,ComponentPad*%
%ADD16C,2.600000*%
%TD*%
%TA.AperFunction,ComponentPad*%
%ADD17O,2.200000X2.000000*%
%TD*%
%TA.AperFunction,ComponentPad*%
%ADD18O,3.048000X2.000000*%
%TD*%
%TA.AperFunction,ComponentPad*%
%ADD19O,2.200000X1.800000*%
%TD*%
%TA.AperFunction,ComponentPad*%
%ADD20O,4.000000X4.000000*%
%TD*%
%TA.AperFunction,ComponentPad*%
%ADD21R,1.800000X2.300000*%
%TD*%
%TA.AperFunction,ComponentPad*%
%ADD22O,2.000000X2.500000*%
%TD*%
%TA.AperFunction,ViaPad*%
%ADD23C,2.000000*%
%TD*%
%TA.AperFunction,Conductor*%
%ADD24C,1.500000*%
%TD*%
G04 APERTURE END LIST*
D10*
%TO.P,J2,1,Pin_1*%
%TO.N,GND*%
X60975000Y-88392000D03*
D11*
%TO.P,J2,2,Pin_2*%
%TO.N,Net-(J2-Pad2)*%
X63515000Y-88392000D03*
%TO.P,J2,3,Pin_3*%
%TO.N,5v*%
X66055000Y-88392000D03*
%TD*%
D12*
%TO.P,R1,1*%
%TO.N,Net-(D3-Pad2)*%
X111252000Y-92456000D03*
%TO.P,R1,2*%
%TO.N,Net-(R1-Pad2)*%
X111252000Y-84836000D03*
%TD*%
D13*
%TO.P,D2,1,K*%
%TO.N,GND*%
X116586000Y-99060000D03*
D14*
%TO.P,D2,2,A*%
%TO.N,Net-(D2-Pad2)*%
X116586000Y-96520000D03*
%TD*%
D15*
%TO.P,J5,1,Pin_1*%
%TO.N,5v*%
X62484000Y-101600000D03*
D16*
%TO.P,J5,2,Pin_2*%
%TO.N,GND*%
X67564000Y-101600000D03*
%TD*%
D10*
%TO.P,J12,1,Pin_1*%
%TO.N,GND*%
X93980000Y-54991000D03*
%TD*%
%TO.P,J4,1,Pin_1*%
%TO.N,Net-(J4-Pad1)*%
X124460000Y-76693000D03*
D17*
%TO.P,J4,2,Pin_2*%
%TO.N,Net-(J4-Pad2)*%
X124460000Y-74153000D03*
%TO.P,J4,3,Pin_3*%
%TO.N,Net-(J4-Pad3)*%
X124460000Y-71613000D03*
%TD*%
D13*
%TO.P,D3,1,K*%
%TO.N,GND*%
X109474000Y-99060000D03*
D14*
%TO.P,D3,2,A*%
%TO.N,Net-(D3-Pad2)*%
X109474000Y-96520000D03*
%TD*%
D18*
%TO.P,SW1,1,1*%
%TO.N,btn1*%
X53848000Y-62230000D03*
X66348000Y-62230000D03*
%TO.P,SW1,2,2*%
%TO.N,GND*%
X66348000Y-67230000D03*
X53848000Y-67230000D03*
%TD*%
D10*
%TO.P,J7,1,Pin_1*%
%TO.N,3.3v*%
X124460000Y-55372000D03*
D17*
%TO.P,J7,2,Pin_2*%
%TO.N,GND*%
X124460000Y-57912000D03*
%TO.P,J7,3,Pin_3*%
%TO.N,Net-(J7-Pad3)*%
X124460000Y-60452000D03*
%TO.P,J7,4,Pin_4*%
%TO.N,Net-(J7-Pad4)*%
X124460000Y-62992000D03*
%TO.P,J7,5,Pin_5*%
%TO.N,Net-(J7-Pad5)*%
X124460000Y-65532000D03*
%TO.P,J7,6,Pin_6*%
%TO.N,Net-(J7-Pad6)*%
X124460000Y-68072000D03*
%TD*%
D15*
%TO.P,J6,1,Pin_1*%
%TO.N,3.3v*%
X75184000Y-101600000D03*
D16*
%TO.P,J6,2,Pin_2*%
%TO.N,GND*%
X80264000Y-101600000D03*
%TD*%
D13*
%TO.P,D1,1,K*%
%TO.N,GND*%
X123698000Y-99060000D03*
D14*
%TO.P,D1,2,A*%
%TO.N,Net-(D1-Pad2)*%
X123698000Y-96520000D03*
%TD*%
D10*
%TO.P,J8,1,Pin_1*%
%TO.N,dac*%
X70739000Y-64643000D03*
D17*
%TO.P,J8,2,Pin_2*%
%TO.N,GND*%
X70739000Y-67183000D03*
%TD*%
D10*
%TO.P,J11,1,Pin_1*%
%TO.N,/EN*%
X86868000Y-54991000D03*
%TD*%
D18*
%TO.P,SW2,1,1*%
%TO.N,btn2*%
X53540000Y-80264000D03*
X66040000Y-80264000D03*
%TO.P,SW2,2,2*%
%TO.N,GND*%
X53540000Y-75264000D03*
X66040000Y-75264000D03*
%TD*%
D19*
%TO.P,U1,1,3V3*%
%TO.N,3.3v*%
X81280000Y-46136560D03*
%TO.P,U1,2,CHIP_PU*%
%TO.N,/EN*%
X81280000Y-48676560D03*
%TO.P,U1,3,SENSOR_VP/GPIO36/ADC1_CH0*%
%TO.N,unconnected-(U1-Pad3)*%
X81280000Y-51216560D03*
%TO.P,U1,4,SENSOR_VN/GPIO39/ADC1_CH3*%
%TO.N,unconnected-(U1-Pad4)*%
X81280000Y-53756560D03*
%TO.P,U1,5,VDET_1/GPIO34/ADC1_CH6*%
%TO.N,unconnected-(U1-Pad5)*%
X81280000Y-56296560D03*
%TO.P,U1,6,VDET_2/GPIO35/ADC1_CH7*%
%TO.N,Net-(RV1-Pad2)*%
X81280000Y-58836560D03*
%TO.P,U1,7,32K_XP/GPIO32/ADC1_CH4*%
%TO.N,Net-(J1-Pad2)*%
X81280000Y-61376560D03*
%TO.P,U1,8,32K_XN/GPIO33/ADC1_CH5*%
%TO.N,btn1*%
X81280000Y-63916560D03*
%TO.P,U1,9,DAC_1/ADC2_CH8/GPIO25*%
%TO.N,dac*%
X81280000Y-66456560D03*
%TO.P,U1,10,DAC_2/ADC2_CH9/GPIO26*%
%TO.N,btn2*%
X81280000Y-68996560D03*
%TO.P,U1,11,ADC2_CH7/GPIO27*%
%TO.N,Net-(J2-Pad2)*%
X81280000Y-71536560D03*
%TO.P,U1,12,MTMS/GPIO14/ADC2_CH6*%
%TO.N,Net-(J3-Pad1)*%
X81280000Y-74076560D03*
%TO.P,U1,13,\u002AMTDI/GPIO12/ADC2_CH5*%
%TO.N,unconnected-(U1-Pad13)*%
X81280000Y-76616560D03*
%TO.P,U1,14,GND*%
%TO.N,GND*%
X81280000Y-79156560D03*
%TO.P,U1,15,MTCK/GPIO13/ADC2_CH4*%
%TO.N,unconnected-(U1-Pad15)*%
X81280000Y-81696560D03*
%TO.P,U1,16,SD_DATA2/GPIO9*%
%TO.N,unconnected-(U1-Pad16)*%
X81280000Y-84236560D03*
%TO.P,U1,17,SD_DATA3/GPIO10*%
%TO.N,unconnected-(U1-Pad17)*%
X81280000Y-86776560D03*
%TO.P,U1,18,CMD*%
%TO.N,unconnected-(U1-Pad18)*%
X81280000Y-89316560D03*
%TO.P,U1,19,5V*%
%TO.N,5v*%
X81280000Y-91856560D03*
%TO.P,U1,20,SD_CLK/GPIO6*%
%TO.N,unconnected-(U1-Pad20)*%
X106676320Y-91853840D03*
%TO.P,U1,21,SD_DATA0/GPIO7*%
%TO.N,unconnected-(U1-Pad21)*%
X106676320Y-89313840D03*
%TO.P,U1,22,SD_DATA1/GPIO8*%
%TO.N,unconnected-(U1-Pad22)*%
X106680000Y-86776560D03*
%TO.P,U1,23,\u002AMTDO/GPIO15/ADC2_CH3*%
%TO.N,Net-(R1-Pad2)*%
X106680000Y-84236560D03*
%TO.P,U1,24,ADC2_CH2/\u002AGPIO2*%
%TO.N,Net-(R2-Pad2)*%
X106680000Y-81696560D03*
%TO.P,U1,25,\u002AGPIO0/BOOT/ADC2_CH1*%
%TO.N,Net-(R3-Pad1)*%
X106680000Y-79156560D03*
%TO.P,U1,26,ADC2_CH0/GPIO4*%
%TO.N,Net-(J4-Pad1)*%
X106680000Y-76616560D03*
%TO.P,U1,27,GPIO16*%
%TO.N,Net-(J4-Pad2)*%
X106680000Y-74076560D03*
%TO.P,U1,28,GPIO17*%
%TO.N,Net-(J4-Pad3)*%
X106680000Y-71536560D03*
%TO.P,U1,29,\u002AGPIO5*%
%TO.N,Net-(J7-Pad6)*%
X106680000Y-68996560D03*
%TO.P,U1,30,GPIO18*%
%TO.N,Net-(J7-Pad5)*%
X106680000Y-66456560D03*
%TO.P,U1,31,GPIO19*%
%TO.N,Net-(J7-Pad4)*%
X106680000Y-63916560D03*
%TO.P,U1,32,GND*%
%TO.N,GND*%
X106680000Y-61376560D03*
%TO.P,U1,33,GPIO21*%
%TO.N,unconnected-(U1-Pad33)*%
X106680000Y-58836560D03*
%TO.P,U1,34,U0RXD/GPIO3*%
%TO.N,unconnected-(U1-Pad34)*%
X106680000Y-56296560D03*
%TO.P,U1,35,U0TXD/GPIO1*%
%TO.N,unconnected-(U1-Pad35)*%
X106680000Y-53756560D03*
%TO.P,U1,36,GPIO22*%
%TO.N,unconnected-(U1-Pad36)*%
X106680000Y-51216560D03*
%TO.P,U1,37,GPIO23*%
%TO.N,Net-(J7-Pad3)*%
X106680000Y-48676560D03*
%TO.P,U1,38,GND*%
%TO.N,GND*%
X106680000Y-46136560D03*
%TD*%
D12*
%TO.P,R3,1*%
%TO.N,Net-(R3-Pad1)*%
X125476000Y-84836000D03*
%TO.P,R3,2*%
%TO.N,Net-(D1-Pad2)*%
X125476000Y-92456000D03*
%TD*%
D20*
%TO.P,RV1,*%
%TO.N,*%
X73380000Y-43437000D03*
X63780000Y-43437000D03*
D21*
%TO.P,RV1,1,1*%
%TO.N,GND*%
X66080000Y-50937000D03*
D22*
%TO.P,RV1,2,2*%
%TO.N,Net-(RV1-Pad2)*%
X68580000Y-50937000D03*
%TO.P,RV1,3,3*%
%TO.N,3.3v*%
X71080000Y-50937000D03*
%TD*%
D10*
%TO.P,J1,1,Pin_1*%
%TO.N,3.3v*%
X57633000Y-53203000D03*
D17*
%TO.P,J1,2,Pin_2*%
%TO.N,Net-(J1-Pad2)*%
X57633000Y-50663000D03*
%TO.P,J1,3,Pin_3*%
%TO.N,unconnected-(J1-Pad3)*%
X57633000Y-48123000D03*
%TO.P,J1,4,Pin_4*%
%TO.N,GND*%
X57633000Y-45583000D03*
%TD*%
D12*
%TO.P,R2,1*%
%TO.N,Net-(D2-Pad2)*%
X118364000Y-92456000D03*
%TO.P,R2,2*%
%TO.N,Net-(R2-Pad2)*%
X118364000Y-84836000D03*
%TD*%
D10*
%TO.P,J3,1,Pin_1*%
%TO.N,Net-(J3-Pad1)*%
X66040000Y-92964000D03*
D11*
%TO.P,J3,2,Pin_2*%
%TO.N,5v*%
X63500000Y-92964000D03*
%TO.P,J3,3,Pin_3*%
%TO.N,GND*%
X60960000Y-92964000D03*
%TD*%
D23*
%TO.N,3.3v*%
X98044000Y-49276000D03*
X87249000Y-49276000D03*
%TD*%
D24*
%TO.N,GND*%
X116586000Y-99060000D02*
X123698000Y-99060000D01*
X59807000Y-45583000D02*
X53858000Y-45583000D01*
X56896000Y-97028000D02*
X56896000Y-103505000D01*
X73914000Y-95250000D02*
X67564000Y-101600000D01*
X84236560Y-79156560D02*
X87884000Y-82804000D01*
X58928000Y-71548000D02*
X58928000Y-76200000D01*
X109474000Y-99060000D02*
X116586000Y-99060000D01*
X53858000Y-45583000D02*
X52197000Y-47244000D01*
X122682000Y-57912000D02*
X110906560Y-46136560D01*
X60960000Y-88407000D02*
X60975000Y-88392000D01*
X106680000Y-61376560D02*
X104993440Y-61376560D01*
X52197000Y-47244000D02*
X52197000Y-56515000D01*
X66348000Y-67230000D02*
X70692000Y-67230000D01*
X56896000Y-103505000D02*
X58674000Y-105283000D01*
X124460000Y-57912000D02*
X122682000Y-57912000D01*
X67564000Y-101600000D02*
X68072000Y-102108000D01*
X109474000Y-99060000D02*
X106934000Y-101600000D01*
X57992000Y-75264000D02*
X53540000Y-75264000D01*
X63246000Y-67230000D02*
X58928000Y-71548000D01*
X93980000Y-69413120D02*
X90979621Y-72413499D01*
X58928000Y-71548000D02*
X58928000Y-63246000D01*
X87884000Y-82804000D02*
X87884000Y-91440000D01*
X87884000Y-91440000D02*
X84074000Y-95250000D01*
X90979621Y-72413499D02*
X84236560Y-79156560D01*
X53848000Y-67230000D02*
X54610000Y-67230000D01*
X81280000Y-79156560D02*
X84236560Y-79156560D01*
X58928000Y-86345000D02*
X58928000Y-76200000D01*
X58928000Y-76200000D02*
X57992000Y-75264000D01*
X60960000Y-92964000D02*
X60960000Y-88407000D01*
X58928000Y-63246000D02*
X58293000Y-62611000D01*
X104993440Y-61376560D02*
X102870000Y-63500000D01*
X58674000Y-105283000D02*
X67691000Y-105283000D01*
X106934000Y-101600000D02*
X106680000Y-101600000D01*
X80264000Y-103124000D02*
X80264000Y-101600000D01*
X60960000Y-92964000D02*
X56896000Y-97028000D01*
X66348000Y-67230000D02*
X63246000Y-67230000D01*
X110906560Y-46136560D02*
X106680000Y-46136560D01*
X80264000Y-101600000D02*
X105029000Y-101600000D01*
X105029000Y-101600000D02*
X106680000Y-101600000D01*
X93980000Y-54991000D02*
X93980000Y-69413120D01*
X60975000Y-88392000D02*
X58928000Y-86345000D01*
X70692000Y-67230000D02*
X70739000Y-67183000D01*
X67691000Y-105283000D02*
X78105000Y-105283000D01*
X67691000Y-105283000D02*
X67564000Y-105156000D01*
X102870000Y-63500000D02*
X102870000Y-99441000D01*
X52197000Y-56515000D02*
X58293000Y-62611000D01*
X78105000Y-105283000D02*
X80264000Y-103124000D01*
X67564000Y-101600000D02*
X67564000Y-105156000D01*
X54610000Y-67230000D02*
X58928000Y-71548000D01*
X102870000Y-99441000D02*
X105029000Y-101600000D01*
X66080000Y-50937000D02*
X65161000Y-50937000D01*
X84074000Y-95250000D02*
X73914000Y-95250000D01*
X65161000Y-50937000D02*
X59807000Y-45583000D01*
%TO.N,Net-(J1-Pad2)*%
X54864000Y-51817489D02*
X56018489Y-50663000D01*
X74549000Y-57785000D02*
X57404000Y-57785000D01*
X54864000Y-55245000D02*
X54864000Y-51817489D01*
X78140560Y-61376560D02*
X74549000Y-57785000D01*
X57404000Y-57785000D02*
X54864000Y-55245000D01*
X81280000Y-61376560D02*
X78140560Y-61376560D01*
X56018489Y-50663000D02*
X57633000Y-50663000D01*
%TO.N,5v*%
X63500000Y-91948000D02*
X63500000Y-92964000D01*
X72227440Y-91856560D02*
X81280000Y-91856560D01*
X66548000Y-97536000D02*
X72227440Y-91856560D01*
X63500000Y-95631000D02*
X65405000Y-97536000D01*
X62484000Y-101600000D02*
X66548000Y-97536000D01*
X65405000Y-97536000D02*
X66548000Y-97536000D01*
X66055000Y-88392000D02*
X66055000Y-89393000D01*
X63500000Y-92964000D02*
X63500000Y-95631000D01*
X66055000Y-89393000D02*
X63500000Y-91948000D01*
%TO.N,3.3v*%
X75880440Y-46136560D02*
X81280000Y-46136560D01*
X81280000Y-46136560D02*
X84490560Y-46136560D01*
X124460000Y-55118000D02*
X112522000Y-43180000D01*
X59294000Y-54864000D02*
X69088000Y-54864000D01*
X98044000Y-87376000D02*
X98044000Y-49276000D01*
X124460000Y-55372000D02*
X124460000Y-55118000D01*
X69088000Y-54864000D02*
X71080000Y-52872000D01*
X87503000Y-97917000D02*
X98044000Y-87376000D01*
X99060000Y-43180000D02*
X98044000Y-44196000D01*
X71080000Y-50937000D02*
X75880440Y-46136560D01*
X78867000Y-97917000D02*
X87503000Y-97917000D01*
X84490560Y-46136560D02*
X87249000Y-48895000D01*
X71080000Y-52872000D02*
X71080000Y-50937000D01*
X75184000Y-101600000D02*
X78867000Y-97917000D01*
X87249000Y-48895000D02*
X87249000Y-49276000D01*
X112522000Y-43180000D02*
X99060000Y-43180000D01*
X98044000Y-44196000D02*
X98044000Y-49276000D01*
X57633000Y-53203000D02*
X59294000Y-54864000D01*
%TO.N,Net-(D1-Pad2)*%
X123698000Y-96520000D02*
X125476000Y-94742000D01*
X125476000Y-94742000D02*
X125476000Y-92456000D01*
%TO.N,btn1*%
X77124560Y-63916560D02*
X81280000Y-63916560D01*
X66348000Y-62230000D02*
X75438000Y-62230000D01*
X75438000Y-62230000D02*
X77124560Y-63916560D01*
%TO.N,btn2*%
X66040000Y-80137000D02*
X77180440Y-68996560D01*
X66040000Y-80264000D02*
X66040000Y-80137000D01*
X77180440Y-68996560D02*
X81280000Y-68996560D01*
%TO.N,/EN*%
X84455000Y-50038000D02*
X84455000Y-52578000D01*
X81280000Y-48676560D02*
X83093560Y-48676560D01*
X84455000Y-52578000D02*
X86868000Y-54991000D01*
X83093560Y-48676560D02*
X84455000Y-50038000D01*
%TO.N,Net-(R1-Pad2)*%
X106771440Y-84328000D02*
X106680000Y-84236560D01*
X110744000Y-84328000D02*
X106771440Y-84328000D01*
X111252000Y-84836000D02*
X110744000Y-84328000D01*
%TO.N,Net-(D2-Pad2)*%
X116586000Y-96520000D02*
X118364000Y-94742000D01*
X118364000Y-94742000D02*
X118364000Y-92456000D01*
%TO.N,Net-(J2-Pad2)*%
X79339440Y-71536560D02*
X81280000Y-71536560D01*
X63515000Y-88392000D02*
X63515000Y-87361000D01*
X63515000Y-87361000D02*
X79339440Y-71536560D01*
%TO.N,Net-(D3-Pad2)*%
X109474000Y-96520000D02*
X111252000Y-94742000D01*
X111252000Y-94742000D02*
X111252000Y-92456000D01*
%TO.N,Net-(J4-Pad1)*%
X106680000Y-76616560D02*
X124368560Y-76616560D01*
X124368560Y-76616560D02*
X124460000Y-76708000D01*
%TO.N,Net-(J4-Pad2)*%
X106680000Y-74076560D02*
X124368560Y-74076560D01*
X124368560Y-74076560D02*
X124460000Y-74168000D01*
%TO.N,Net-(J4-Pad3)*%
X124368560Y-71536560D02*
X124460000Y-71628000D01*
X106680000Y-71536560D02*
X124368560Y-71536560D01*
%TO.N,Net-(J7-Pad3)*%
X109128560Y-48676560D02*
X106680000Y-48676560D01*
X120904000Y-60452000D02*
X109128560Y-48676560D01*
X124460000Y-60452000D02*
X120904000Y-60452000D01*
%TO.N,Net-(J7-Pad4)*%
X113375440Y-63916560D02*
X106680000Y-63916560D01*
X114300000Y-62992000D02*
X113375440Y-63916560D01*
X124460000Y-62992000D02*
X114300000Y-62992000D01*
%TO.N,Net-(J7-Pad5)*%
X113883440Y-66456560D02*
X106680000Y-66456560D01*
X114808000Y-65532000D02*
X113883440Y-66456560D01*
X124460000Y-65532000D02*
X114808000Y-65532000D01*
%TO.N,Net-(J7-Pad6)*%
X124460000Y-68072000D02*
X115824000Y-68072000D01*
X114899440Y-68996560D02*
X106680000Y-68996560D01*
X115824000Y-68072000D02*
X114899440Y-68996560D01*
%TO.N,Net-(R2-Pad2)*%
X118110000Y-84836000D02*
X114970560Y-81696560D01*
X118364000Y-84836000D02*
X118110000Y-84836000D01*
X114970560Y-81696560D02*
X106680000Y-81696560D01*
%TO.N,Net-(J3-Pad1)*%
X73279000Y-85725000D02*
X73279000Y-81407000D01*
X81280000Y-74076560D02*
X81696560Y-74076560D01*
X73279000Y-81407000D02*
X80609440Y-74076560D01*
X80609440Y-74076560D02*
X81280000Y-74076560D01*
X66040000Y-92964000D02*
X73279000Y-85725000D01*
%TO.N,dac*%
X73025000Y-64643000D02*
X74838560Y-66456560D01*
X70739000Y-64643000D02*
X73025000Y-64643000D01*
X81280000Y-66456560D02*
X74838560Y-66456560D01*
%TO.N,Net-(R3-Pad1)*%
X125476000Y-84836000D02*
X124714000Y-84836000D01*
X119034560Y-79156560D02*
X106680000Y-79156560D01*
X124714000Y-84836000D02*
X119034560Y-79156560D01*
%TO.N,Net-(RV1-Pad2)*%
X86741000Y-40005000D02*
X90424000Y-43688000D01*
X87848440Y-58836560D02*
X81280000Y-58836560D01*
X68580000Y-41910000D02*
X70485000Y-40005000D01*
X90424000Y-43688000D02*
X90424000Y-56261000D01*
X90424000Y-56261000D02*
X87848440Y-58836560D01*
X68580000Y-50937000D02*
X68580000Y-41910000D01*
X70485000Y-40005000D02*
X86741000Y-40005000D01*
%TD*%
M02*
