%TF.GenerationSoftware,KiCad,Pcbnew,(6.0.2)*%
%TF.CreationDate,2022-08-31T13:55:06-03:00*%
%TF.ProjectId,placa,706c6163-612e-46b6-9963-61645f706362,rev?*%
%TF.SameCoordinates,Original*%
%TF.FileFunction,Legend,Top*%
%TF.FilePolarity,Positive*%
%FSLAX46Y46*%
G04 Gerber Fmt 4.6, Leading zero omitted, Abs format (unit mm)*
G04 Created by KiCad (PCBNEW (6.0.2)) date 2022-08-31 13:55:06*
%MOMM*%
%LPD*%
G01*
G04 APERTURE LIST*
%ADD10C,0.150000*%
%ADD11C,0.120000*%
G04 APERTURE END LIST*
D10*
X119028785Y-57412000D02*
X118933547Y-57364380D01*
X118790690Y-57364380D01*
X118647833Y-57412000D01*
X118552595Y-57507238D01*
X118504976Y-57602476D01*
X118457357Y-57792952D01*
X118457357Y-57935809D01*
X118504976Y-58126285D01*
X118552595Y-58221523D01*
X118647833Y-58316761D01*
X118790690Y-58364380D01*
X118885928Y-58364380D01*
X119028785Y-58316761D01*
X119076404Y-58269142D01*
X119076404Y-57935809D01*
X118885928Y-57935809D01*
X119504976Y-58364380D02*
X119504976Y-57364380D01*
X120076404Y-58364380D01*
X120076404Y-57364380D01*
X120552595Y-58364380D02*
X120552595Y-57364380D01*
X120790690Y-57364380D01*
X120933547Y-57412000D01*
X121028785Y-57507238D01*
X121076404Y-57602476D01*
X121124023Y-57792952D01*
X121124023Y-57935809D01*
X121076404Y-58126285D01*
X121028785Y-58221523D01*
X120933547Y-58316761D01*
X120790690Y-58364380D01*
X120552595Y-58364380D01*
X55538952Y-43124380D02*
X55538952Y-42124380D01*
X55777047Y-42124380D01*
X55919904Y-42172000D01*
X56015142Y-42267238D01*
X56062761Y-42362476D01*
X56110380Y-42552952D01*
X56110380Y-42695809D01*
X56062761Y-42886285D01*
X56015142Y-42981523D01*
X55919904Y-43076761D01*
X55777047Y-43124380D01*
X55538952Y-43124380D01*
X56538952Y-43124380D02*
X56538952Y-42124380D01*
X56538952Y-42600571D02*
X57110380Y-42600571D01*
X57110380Y-43124380D02*
X57110380Y-42124380D01*
X57443714Y-42124380D02*
X58015142Y-42124380D01*
X57729428Y-43124380D02*
X57729428Y-42124380D01*
X58872285Y-43124380D02*
X58300857Y-43124380D01*
X58586571Y-43124380D02*
X58586571Y-42124380D01*
X58491333Y-42267238D01*
X58396095Y-42362476D01*
X58300857Y-42410095D01*
X59824666Y-43124380D02*
X59253238Y-43124380D01*
X59538952Y-43124380D02*
X59538952Y-42124380D01*
X59443714Y-42267238D01*
X59348476Y-42362476D01*
X59253238Y-42410095D01*
X56610285Y-100905571D02*
X55896000Y-100905571D01*
X55824571Y-101619857D01*
X55896000Y-101548428D01*
X56038857Y-101477000D01*
X56396000Y-101477000D01*
X56538857Y-101548428D01*
X56610285Y-101619857D01*
X56681714Y-101762714D01*
X56681714Y-102119857D01*
X56610285Y-102262714D01*
X56538857Y-102334142D01*
X56396000Y-102405571D01*
X56038857Y-102405571D01*
X55896000Y-102334142D01*
X55824571Y-102262714D01*
X57110285Y-100905571D02*
X57610285Y-102405571D01*
X58110285Y-100905571D01*
X114600214Y-67572000D02*
X114504976Y-67524380D01*
X114362119Y-67524380D01*
X114219261Y-67572000D01*
X114124023Y-67667238D01*
X114076404Y-67762476D01*
X114028785Y-67952952D01*
X114028785Y-68095809D01*
X114076404Y-68286285D01*
X114124023Y-68381523D01*
X114219261Y-68476761D01*
X114362119Y-68524380D01*
X114457357Y-68524380D01*
X114600214Y-68476761D01*
X114647833Y-68429142D01*
X114647833Y-68095809D01*
X114457357Y-68095809D01*
X115076404Y-68524380D02*
X115076404Y-67524380D01*
X115457357Y-67524380D01*
X115552595Y-67572000D01*
X115600214Y-67619619D01*
X115647833Y-67714857D01*
X115647833Y-67857714D01*
X115600214Y-67952952D01*
X115552595Y-68000571D01*
X115457357Y-68048190D01*
X115076404Y-68048190D01*
X116076404Y-68524380D02*
X116076404Y-67524380D01*
X116743071Y-67524380D02*
X116933547Y-67524380D01*
X117028785Y-67572000D01*
X117124023Y-67667238D01*
X117171642Y-67857714D01*
X117171642Y-68191047D01*
X117124023Y-68381523D01*
X117028785Y-68476761D01*
X116933547Y-68524380D01*
X116743071Y-68524380D01*
X116647833Y-68476761D01*
X116552595Y-68381523D01*
X116504976Y-68191047D01*
X116504976Y-67857714D01*
X116552595Y-67667238D01*
X116647833Y-67572000D01*
X116743071Y-67524380D01*
X118076404Y-67524380D02*
X117600214Y-67524380D01*
X117552595Y-68000571D01*
X117600214Y-67952952D01*
X117695452Y-67905333D01*
X117933547Y-67905333D01*
X118028785Y-67952952D01*
X118076404Y-68000571D01*
X118124023Y-68095809D01*
X118124023Y-68333904D01*
X118076404Y-68429142D01*
X118028785Y-68476761D01*
X117933547Y-68524380D01*
X117695452Y-68524380D01*
X117600214Y-68476761D01*
X117552595Y-68429142D01*
X119266880Y-67476761D02*
X118409738Y-68762476D01*
X120171642Y-68429142D02*
X120124023Y-68476761D01*
X119981166Y-68524380D01*
X119885928Y-68524380D01*
X119743071Y-68476761D01*
X119647833Y-68381523D01*
X119600214Y-68286285D01*
X119552595Y-68095809D01*
X119552595Y-67952952D01*
X119600214Y-67762476D01*
X119647833Y-67667238D01*
X119743071Y-67572000D01*
X119885928Y-67524380D01*
X119981166Y-67524380D01*
X120124023Y-67572000D01*
X120171642Y-67619619D01*
X120552595Y-68476761D02*
X120695452Y-68524380D01*
X120933547Y-68524380D01*
X121028785Y-68476761D01*
X121076404Y-68429142D01*
X121124023Y-68333904D01*
X121124023Y-68238666D01*
X121076404Y-68143428D01*
X121028785Y-68095809D01*
X120933547Y-68048190D01*
X120743071Y-68000571D01*
X120647833Y-67952952D01*
X120600214Y-67905333D01*
X120552595Y-67810095D01*
X120552595Y-67714857D01*
X120600214Y-67619619D01*
X120647833Y-67572000D01*
X120743071Y-67524380D01*
X120981166Y-67524380D01*
X121124023Y-67572000D01*
X69278523Y-87844380D02*
X68802333Y-87844380D01*
X68754714Y-88320571D01*
X68802333Y-88272952D01*
X68897571Y-88225333D01*
X69135666Y-88225333D01*
X69230904Y-88272952D01*
X69278523Y-88320571D01*
X69326142Y-88415809D01*
X69326142Y-88653904D01*
X69278523Y-88749142D01*
X69230904Y-88796761D01*
X69135666Y-88844380D01*
X68897571Y-88844380D01*
X68802333Y-88796761D01*
X68754714Y-88749142D01*
X69611857Y-87844380D02*
X69945190Y-88844380D01*
X70278523Y-87844380D01*
X68675666Y-87066380D02*
X68675666Y-86066380D01*
X69247095Y-87066380D01*
X69247095Y-86066380D01*
X69723285Y-86542571D02*
X70056619Y-86542571D01*
X70199476Y-87066380D02*
X69723285Y-87066380D01*
X69723285Y-86066380D01*
X70199476Y-86066380D01*
X70818523Y-86066380D02*
X71009000Y-86066380D01*
X71104238Y-86114000D01*
X71199476Y-86209238D01*
X71247095Y-86399714D01*
X71247095Y-86733047D01*
X71199476Y-86923523D01*
X71104238Y-87018761D01*
X71009000Y-87066380D01*
X70818523Y-87066380D01*
X70723285Y-87018761D01*
X70628047Y-86923523D01*
X70580428Y-86733047D01*
X70580428Y-86399714D01*
X70628047Y-86209238D01*
X70723285Y-86114000D01*
X70818523Y-86066380D01*
X71675666Y-87066380D02*
X71675666Y-86066380D01*
X72056619Y-86066380D01*
X72151857Y-86114000D01*
X72199476Y-86161619D01*
X72247095Y-86256857D01*
X72247095Y-86399714D01*
X72199476Y-86494952D01*
X72151857Y-86542571D01*
X72056619Y-86590190D01*
X71675666Y-86590190D01*
X72675666Y-87066380D02*
X72675666Y-86066380D01*
X73056619Y-86066380D02*
X73723285Y-87066380D01*
X73723285Y-86066380D02*
X73056619Y-87066380D01*
X74104238Y-86542571D02*
X74437571Y-86542571D01*
X74580428Y-87066380D02*
X74104238Y-87066380D01*
X74104238Y-86066380D01*
X74580428Y-86066380D01*
X75485190Y-87066380D02*
X75009000Y-87066380D01*
X75009000Y-86066380D01*
X52385642Y-50300000D02*
X52290404Y-50252380D01*
X52147547Y-50252380D01*
X52004690Y-50300000D01*
X51909452Y-50395238D01*
X51861833Y-50490476D01*
X51814214Y-50680952D01*
X51814214Y-50823809D01*
X51861833Y-51014285D01*
X51909452Y-51109523D01*
X52004690Y-51204761D01*
X52147547Y-51252380D01*
X52242785Y-51252380D01*
X52385642Y-51204761D01*
X52433261Y-51157142D01*
X52433261Y-50823809D01*
X52242785Y-50823809D01*
X52861833Y-51252380D02*
X52861833Y-50252380D01*
X53242785Y-50252380D01*
X53338023Y-50300000D01*
X53385642Y-50347619D01*
X53433261Y-50442857D01*
X53433261Y-50585714D01*
X53385642Y-50680952D01*
X53338023Y-50728571D01*
X53242785Y-50776190D01*
X52861833Y-50776190D01*
X53766595Y-50252380D02*
X54385642Y-50252380D01*
X54052309Y-50633333D01*
X54195166Y-50633333D01*
X54290404Y-50680952D01*
X54338023Y-50728571D01*
X54385642Y-50823809D01*
X54385642Y-51061904D01*
X54338023Y-51157142D01*
X54290404Y-51204761D01*
X54195166Y-51252380D01*
X53909452Y-51252380D01*
X53814214Y-51204761D01*
X53766595Y-51157142D01*
X54766595Y-50347619D02*
X54814214Y-50300000D01*
X54909452Y-50252380D01*
X55147547Y-50252380D01*
X55242785Y-50300000D01*
X55290404Y-50347619D01*
X55338023Y-50442857D01*
X55338023Y-50538095D01*
X55290404Y-50680952D01*
X54718976Y-51252380D01*
X55338023Y-51252380D01*
X118219261Y-54824380D02*
X118838309Y-54824380D01*
X118504976Y-55205333D01*
X118647833Y-55205333D01*
X118743071Y-55252952D01*
X118790690Y-55300571D01*
X118838309Y-55395809D01*
X118838309Y-55633904D01*
X118790690Y-55729142D01*
X118743071Y-55776761D01*
X118647833Y-55824380D01*
X118362119Y-55824380D01*
X118266880Y-55776761D01*
X118219261Y-55729142D01*
X119266880Y-55729142D02*
X119314500Y-55776761D01*
X119266880Y-55824380D01*
X119219261Y-55776761D01*
X119266880Y-55729142D01*
X119266880Y-55824380D01*
X119647833Y-54824380D02*
X120266880Y-54824380D01*
X119933547Y-55205333D01*
X120076404Y-55205333D01*
X120171642Y-55252952D01*
X120219261Y-55300571D01*
X120266880Y-55395809D01*
X120266880Y-55633904D01*
X120219261Y-55729142D01*
X120171642Y-55776761D01*
X120076404Y-55824380D01*
X119790690Y-55824380D01*
X119695452Y-55776761D01*
X119647833Y-55729142D01*
X120552595Y-54824380D02*
X120885928Y-55824380D01*
X121219261Y-54824380D01*
X61420619Y-85352000D02*
X61325380Y-85304380D01*
X61182523Y-85304380D01*
X61039666Y-85352000D01*
X60944428Y-85447238D01*
X60896809Y-85542476D01*
X60849190Y-85732952D01*
X60849190Y-85875809D01*
X60896809Y-86066285D01*
X60944428Y-86161523D01*
X61039666Y-86256761D01*
X61182523Y-86304380D01*
X61277761Y-86304380D01*
X61420619Y-86256761D01*
X61468238Y-86209142D01*
X61468238Y-85875809D01*
X61277761Y-85875809D01*
X61896809Y-86304380D02*
X61896809Y-85304380D01*
X62277761Y-85304380D01*
X62373000Y-85352000D01*
X62420619Y-85399619D01*
X62468238Y-85494857D01*
X62468238Y-85637714D01*
X62420619Y-85732952D01*
X62373000Y-85780571D01*
X62277761Y-85828190D01*
X61896809Y-85828190D01*
X62896809Y-86304380D02*
X62896809Y-85304380D01*
X63563476Y-85304380D02*
X63753952Y-85304380D01*
X63849190Y-85352000D01*
X63944428Y-85447238D01*
X63992047Y-85637714D01*
X63992047Y-85971047D01*
X63944428Y-86161523D01*
X63849190Y-86256761D01*
X63753952Y-86304380D01*
X63563476Y-86304380D01*
X63468238Y-86256761D01*
X63373000Y-86161523D01*
X63325380Y-85971047D01*
X63325380Y-85637714D01*
X63373000Y-85447238D01*
X63468238Y-85352000D01*
X63563476Y-85304380D01*
X64373000Y-85399619D02*
X64420619Y-85352000D01*
X64515857Y-85304380D01*
X64753952Y-85304380D01*
X64849190Y-85352000D01*
X64896809Y-85399619D01*
X64944428Y-85494857D01*
X64944428Y-85590095D01*
X64896809Y-85732952D01*
X64325380Y-86304380D01*
X64944428Y-86304380D01*
X65277761Y-85304380D02*
X65944428Y-85304380D01*
X65515857Y-86304380D01*
X69021142Y-94246000D02*
X68878285Y-94174571D01*
X68664000Y-94174571D01*
X68449714Y-94246000D01*
X68306857Y-94388857D01*
X68235428Y-94531714D01*
X68164000Y-94817428D01*
X68164000Y-95031714D01*
X68235428Y-95317428D01*
X68306857Y-95460285D01*
X68449714Y-95603142D01*
X68664000Y-95674571D01*
X68806857Y-95674571D01*
X69021142Y-95603142D01*
X69092571Y-95531714D01*
X69092571Y-95031714D01*
X68806857Y-95031714D01*
X69735428Y-95674571D02*
X69735428Y-94174571D01*
X70592571Y-95674571D01*
X70592571Y-94174571D01*
X71306857Y-95674571D02*
X71306857Y-94174571D01*
X71664000Y-94174571D01*
X71878285Y-94246000D01*
X72021142Y-94388857D01*
X72092571Y-94531714D01*
X72164000Y-94817428D01*
X72164000Y-95031714D01*
X72092571Y-95317428D01*
X72021142Y-95460285D01*
X71878285Y-95603142D01*
X71664000Y-95674571D01*
X71306857Y-95674571D01*
X73223714Y-94047571D02*
X74152285Y-94047571D01*
X73652285Y-94619000D01*
X73866571Y-94619000D01*
X74009428Y-94690428D01*
X74080857Y-94761857D01*
X74152285Y-94904714D01*
X74152285Y-95261857D01*
X74080857Y-95404714D01*
X74009428Y-95476142D01*
X73866571Y-95547571D01*
X73438000Y-95547571D01*
X73295142Y-95476142D01*
X73223714Y-95404714D01*
X74795142Y-95404714D02*
X74866571Y-95476142D01*
X74795142Y-95547571D01*
X74723714Y-95476142D01*
X74795142Y-95404714D01*
X74795142Y-95547571D01*
X75366571Y-94047571D02*
X76295142Y-94047571D01*
X75795142Y-94619000D01*
X76009428Y-94619000D01*
X76152285Y-94690428D01*
X76223714Y-94761857D01*
X76295142Y-94904714D01*
X76295142Y-95261857D01*
X76223714Y-95404714D01*
X76152285Y-95476142D01*
X76009428Y-95547571D01*
X75580857Y-95547571D01*
X75438000Y-95476142D01*
X75366571Y-95404714D01*
X76723714Y-94047571D02*
X77223714Y-95547571D01*
X77723714Y-94047571D01*
X56642095Y-87892000D02*
X56546857Y-87844380D01*
X56404000Y-87844380D01*
X56261142Y-87892000D01*
X56165904Y-87987238D01*
X56118285Y-88082476D01*
X56070666Y-88272952D01*
X56070666Y-88415809D01*
X56118285Y-88606285D01*
X56165904Y-88701523D01*
X56261142Y-88796761D01*
X56404000Y-88844380D01*
X56499238Y-88844380D01*
X56642095Y-88796761D01*
X56689714Y-88749142D01*
X56689714Y-88415809D01*
X56499238Y-88415809D01*
X57118285Y-88844380D02*
X57118285Y-87844380D01*
X57689714Y-88844380D01*
X57689714Y-87844380D01*
X58165904Y-88844380D02*
X58165904Y-87844380D01*
X58404000Y-87844380D01*
X58546857Y-87892000D01*
X58642095Y-87987238D01*
X58689714Y-88082476D01*
X58737333Y-88272952D01*
X58737333Y-88415809D01*
X58689714Y-88606285D01*
X58642095Y-88701523D01*
X58546857Y-88796761D01*
X58404000Y-88844380D01*
X58165904Y-88844380D01*
X111981166Y-62492000D02*
X111885928Y-62444380D01*
X111743071Y-62444380D01*
X111600214Y-62492000D01*
X111504976Y-62587238D01*
X111457357Y-62682476D01*
X111409738Y-62872952D01*
X111409738Y-63015809D01*
X111457357Y-63206285D01*
X111504976Y-63301523D01*
X111600214Y-63396761D01*
X111743071Y-63444380D01*
X111838309Y-63444380D01*
X111981166Y-63396761D01*
X112028785Y-63349142D01*
X112028785Y-63015809D01*
X111838309Y-63015809D01*
X112457357Y-63444380D02*
X112457357Y-62444380D01*
X112838309Y-62444380D01*
X112933547Y-62492000D01*
X112981166Y-62539619D01*
X113028785Y-62634857D01*
X113028785Y-62777714D01*
X112981166Y-62872952D01*
X112933547Y-62920571D01*
X112838309Y-62968190D01*
X112457357Y-62968190D01*
X113457357Y-63444380D02*
X113457357Y-62444380D01*
X114124023Y-62444380D02*
X114314500Y-62444380D01*
X114409738Y-62492000D01*
X114504976Y-62587238D01*
X114552595Y-62777714D01*
X114552595Y-63111047D01*
X114504976Y-63301523D01*
X114409738Y-63396761D01*
X114314500Y-63444380D01*
X114124023Y-63444380D01*
X114028785Y-63396761D01*
X113933547Y-63301523D01*
X113885928Y-63111047D01*
X113885928Y-62777714D01*
X113933547Y-62587238D01*
X114028785Y-62492000D01*
X114124023Y-62444380D01*
X115504976Y-63444380D02*
X114933547Y-63444380D01*
X115219261Y-63444380D02*
X115219261Y-62444380D01*
X115124023Y-62587238D01*
X115028785Y-62682476D01*
X114933547Y-62730095D01*
X115981166Y-63444380D02*
X116171642Y-63444380D01*
X116266880Y-63396761D01*
X116314500Y-63349142D01*
X116409738Y-63206285D01*
X116457357Y-63015809D01*
X116457357Y-62634857D01*
X116409738Y-62539619D01*
X116362119Y-62492000D01*
X116266880Y-62444380D01*
X116076404Y-62444380D01*
X115981166Y-62492000D01*
X115933547Y-62539619D01*
X115885928Y-62634857D01*
X115885928Y-62872952D01*
X115933547Y-62968190D01*
X115981166Y-63015809D01*
X116076404Y-63063428D01*
X116266880Y-63063428D01*
X116362119Y-63015809D01*
X116409738Y-62968190D01*
X116457357Y-62872952D01*
X117600214Y-62396761D02*
X116743071Y-63682476D01*
X117933547Y-63444380D02*
X117933547Y-62444380D01*
X118266880Y-63158666D01*
X118600214Y-62444380D01*
X118600214Y-63444380D01*
X119076404Y-63444380D02*
X119076404Y-62444380D01*
X119504976Y-63396761D02*
X119647833Y-63444380D01*
X119885928Y-63444380D01*
X119981166Y-63396761D01*
X120028785Y-63349142D01*
X120076404Y-63253904D01*
X120076404Y-63158666D01*
X120028785Y-63063428D01*
X119981166Y-63015809D01*
X119885928Y-62968190D01*
X119695452Y-62920571D01*
X119600214Y-62872952D01*
X119552595Y-62825333D01*
X119504976Y-62730095D01*
X119504976Y-62634857D01*
X119552595Y-62539619D01*
X119600214Y-62492000D01*
X119695452Y-62444380D01*
X119933547Y-62444380D01*
X120076404Y-62492000D01*
X120695452Y-62444380D02*
X120885928Y-62444380D01*
X120981166Y-62492000D01*
X121076404Y-62587238D01*
X121124023Y-62777714D01*
X121124023Y-63111047D01*
X121076404Y-63301523D01*
X120981166Y-63396761D01*
X120885928Y-63444380D01*
X120695452Y-63444380D01*
X120600214Y-63396761D01*
X120504976Y-63301523D01*
X120457357Y-63111047D01*
X120457357Y-62777714D01*
X120504976Y-62587238D01*
X120600214Y-62492000D01*
X120695452Y-62444380D01*
X56642095Y-92464000D02*
X56546857Y-92416380D01*
X56404000Y-92416380D01*
X56261142Y-92464000D01*
X56165904Y-92559238D01*
X56118285Y-92654476D01*
X56070666Y-92844952D01*
X56070666Y-92987809D01*
X56118285Y-93178285D01*
X56165904Y-93273523D01*
X56261142Y-93368761D01*
X56404000Y-93416380D01*
X56499238Y-93416380D01*
X56642095Y-93368761D01*
X56689714Y-93321142D01*
X56689714Y-92987809D01*
X56499238Y-92987809D01*
X57118285Y-93416380D02*
X57118285Y-92416380D01*
X57689714Y-93416380D01*
X57689714Y-92416380D01*
X58165904Y-93416380D02*
X58165904Y-92416380D01*
X58404000Y-92416380D01*
X58546857Y-92464000D01*
X58642095Y-92559238D01*
X58689714Y-92654476D01*
X58737333Y-92844952D01*
X58737333Y-92987809D01*
X58689714Y-93178285D01*
X58642095Y-93273523D01*
X58546857Y-93368761D01*
X58404000Y-93416380D01*
X58165904Y-93416380D01*
X115109809Y-101481000D02*
X115014571Y-101433380D01*
X114871714Y-101433380D01*
X114728857Y-101481000D01*
X114633619Y-101576238D01*
X114586000Y-101671476D01*
X114538380Y-101861952D01*
X114538380Y-102004809D01*
X114586000Y-102195285D01*
X114633619Y-102290523D01*
X114728857Y-102385761D01*
X114871714Y-102433380D01*
X114966952Y-102433380D01*
X115109809Y-102385761D01*
X115157428Y-102338142D01*
X115157428Y-102004809D01*
X114966952Y-102004809D01*
X115586000Y-102433380D02*
X115586000Y-101433380D01*
X115966952Y-101433380D01*
X116062190Y-101481000D01*
X116109809Y-101528619D01*
X116157428Y-101623857D01*
X116157428Y-101766714D01*
X116109809Y-101861952D01*
X116062190Y-101909571D01*
X115966952Y-101957190D01*
X115586000Y-101957190D01*
X116586000Y-102433380D02*
X116586000Y-101433380D01*
X117252666Y-101433380D02*
X117443142Y-101433380D01*
X117538380Y-101481000D01*
X117633619Y-101576238D01*
X117681238Y-101766714D01*
X117681238Y-102100047D01*
X117633619Y-102290523D01*
X117538380Y-102385761D01*
X117443142Y-102433380D01*
X117252666Y-102433380D01*
X117157428Y-102385761D01*
X117062190Y-102290523D01*
X117014571Y-102100047D01*
X117014571Y-101766714D01*
X117062190Y-101576238D01*
X117157428Y-101481000D01*
X117252666Y-101433380D01*
X118062190Y-101528619D02*
X118109809Y-101481000D01*
X118205047Y-101433380D01*
X118443142Y-101433380D01*
X118538380Y-101481000D01*
X118586000Y-101528619D01*
X118633619Y-101623857D01*
X118633619Y-101719095D01*
X118586000Y-101861952D01*
X118014571Y-102433380D01*
X118633619Y-102433380D01*
X69080000Y-72469619D02*
X69127619Y-72374380D01*
X69127619Y-72231523D01*
X69080000Y-72088666D01*
X68984761Y-71993428D01*
X68889523Y-71945809D01*
X68699047Y-71898190D01*
X68556190Y-71898190D01*
X68365714Y-71945809D01*
X68270476Y-71993428D01*
X68175238Y-72088666D01*
X68127619Y-72231523D01*
X68127619Y-72326761D01*
X68175238Y-72469619D01*
X68222857Y-72517238D01*
X68556190Y-72517238D01*
X68556190Y-72326761D01*
X68127619Y-72945809D02*
X69127619Y-72945809D01*
X69127619Y-73326761D01*
X69080000Y-73422000D01*
X69032380Y-73469619D01*
X68937142Y-73517238D01*
X68794285Y-73517238D01*
X68699047Y-73469619D01*
X68651428Y-73422000D01*
X68603809Y-73326761D01*
X68603809Y-72945809D01*
X68127619Y-73945809D02*
X69127619Y-73945809D01*
X69127619Y-74612476D02*
X69127619Y-74802952D01*
X69080000Y-74898190D01*
X68984761Y-74993428D01*
X68794285Y-75041047D01*
X68460952Y-75041047D01*
X68270476Y-74993428D01*
X68175238Y-74898190D01*
X68127619Y-74802952D01*
X68127619Y-74612476D01*
X68175238Y-74517238D01*
X68270476Y-74422000D01*
X68460952Y-74374380D01*
X68794285Y-74374380D01*
X68984761Y-74422000D01*
X69080000Y-74517238D01*
X69127619Y-74612476D01*
X69032380Y-75422000D02*
X69080000Y-75469619D01*
X69127619Y-75564857D01*
X69127619Y-75802952D01*
X69080000Y-75898190D01*
X69032380Y-75945809D01*
X68937142Y-75993428D01*
X68841904Y-75993428D01*
X68699047Y-75945809D01*
X68127619Y-75374380D01*
X68127619Y-75993428D01*
X69127619Y-76850571D02*
X69127619Y-76660095D01*
X69080000Y-76564857D01*
X69032380Y-76517238D01*
X68889523Y-76422000D01*
X68699047Y-76374380D01*
X68318095Y-76374380D01*
X68222857Y-76422000D01*
X68175238Y-76469619D01*
X68127619Y-76564857D01*
X68127619Y-76755333D01*
X68175238Y-76850571D01*
X68222857Y-76898190D01*
X68318095Y-76945809D01*
X68556190Y-76945809D01*
X68651428Y-76898190D01*
X68699047Y-76850571D01*
X68746666Y-76755333D01*
X68746666Y-76564857D01*
X68699047Y-76469619D01*
X68651428Y-76422000D01*
X68556190Y-76374380D01*
X112933547Y-71128000D02*
X112838309Y-71080380D01*
X112695452Y-71080380D01*
X112552595Y-71128000D01*
X112457357Y-71223238D01*
X112409738Y-71318476D01*
X112362119Y-71508952D01*
X112362119Y-71651809D01*
X112409738Y-71842285D01*
X112457357Y-71937523D01*
X112552595Y-72032761D01*
X112695452Y-72080380D01*
X112790690Y-72080380D01*
X112933547Y-72032761D01*
X112981166Y-71985142D01*
X112981166Y-71651809D01*
X112790690Y-71651809D01*
X113409738Y-72080380D02*
X113409738Y-71080380D01*
X113790690Y-71080380D01*
X113885928Y-71128000D01*
X113933547Y-71175619D01*
X113981166Y-71270857D01*
X113981166Y-71413714D01*
X113933547Y-71508952D01*
X113885928Y-71556571D01*
X113790690Y-71604190D01*
X113409738Y-71604190D01*
X114409738Y-72080380D02*
X114409738Y-71080380D01*
X115076404Y-71080380D02*
X115266880Y-71080380D01*
X115362119Y-71128000D01*
X115457357Y-71223238D01*
X115504976Y-71413714D01*
X115504976Y-71747047D01*
X115457357Y-71937523D01*
X115362119Y-72032761D01*
X115266880Y-72080380D01*
X115076404Y-72080380D01*
X114981166Y-72032761D01*
X114885928Y-71937523D01*
X114838309Y-71747047D01*
X114838309Y-71413714D01*
X114885928Y-71223238D01*
X114981166Y-71128000D01*
X115076404Y-71080380D01*
X116457357Y-72080380D02*
X115885928Y-72080380D01*
X116171642Y-72080380D02*
X116171642Y-71080380D01*
X116076404Y-71223238D01*
X115981166Y-71318476D01*
X115885928Y-71366095D01*
X116790690Y-71080380D02*
X117457357Y-71080380D01*
X117028785Y-72080380D01*
X118552595Y-71032761D02*
X117695452Y-72318476D01*
X118743071Y-71080380D02*
X119314500Y-71080380D01*
X119028785Y-72080380D02*
X119028785Y-71080380D01*
X119552595Y-71080380D02*
X120219261Y-72080380D01*
X120219261Y-71080380D02*
X119552595Y-72080380D01*
X120552595Y-71175619D02*
X120600214Y-71128000D01*
X120695452Y-71080380D01*
X120933547Y-71080380D01*
X121028785Y-71128000D01*
X121076404Y-71175619D01*
X121124023Y-71270857D01*
X121124023Y-71366095D01*
X121076404Y-71508952D01*
X120504976Y-72080380D01*
X121124023Y-72080380D01*
X72979595Y-64163380D02*
X72979595Y-63163380D01*
X73217690Y-63163380D01*
X73360547Y-63211000D01*
X73455785Y-63306238D01*
X73503404Y-63401476D01*
X73551023Y-63591952D01*
X73551023Y-63734809D01*
X73503404Y-63925285D01*
X73455785Y-64020523D01*
X73360547Y-64115761D01*
X73217690Y-64163380D01*
X72979595Y-64163380D01*
X73931976Y-63877666D02*
X74408166Y-63877666D01*
X73836738Y-64163380D02*
X74170071Y-63163380D01*
X74503404Y-64163380D01*
X75408166Y-64068142D02*
X75360547Y-64115761D01*
X75217690Y-64163380D01*
X75122452Y-64163380D01*
X74979595Y-64115761D01*
X74884357Y-64020523D01*
X74836738Y-63925285D01*
X74789119Y-63734809D01*
X74789119Y-63591952D01*
X74836738Y-63401476D01*
X74884357Y-63306238D01*
X74979595Y-63211000D01*
X75122452Y-63163380D01*
X75217690Y-63163380D01*
X75360547Y-63211000D01*
X75408166Y-63258619D01*
X73503404Y-64821000D02*
X73408166Y-64773380D01*
X73265309Y-64773380D01*
X73122452Y-64821000D01*
X73027214Y-64916238D01*
X72979595Y-65011476D01*
X72931976Y-65201952D01*
X72931976Y-65344809D01*
X72979595Y-65535285D01*
X73027214Y-65630523D01*
X73122452Y-65725761D01*
X73265309Y-65773380D01*
X73360547Y-65773380D01*
X73503404Y-65725761D01*
X73551023Y-65678142D01*
X73551023Y-65344809D01*
X73360547Y-65344809D01*
X73979595Y-65773380D02*
X73979595Y-64773380D01*
X74360547Y-64773380D01*
X74455785Y-64821000D01*
X74503404Y-64868619D01*
X74551023Y-64963857D01*
X74551023Y-65106714D01*
X74503404Y-65201952D01*
X74455785Y-65249571D01*
X74360547Y-65297190D01*
X73979595Y-65297190D01*
X74979595Y-65773380D02*
X74979595Y-64773380D01*
X75646261Y-64773380D02*
X75836738Y-64773380D01*
X75931976Y-64821000D01*
X76027214Y-64916238D01*
X76074833Y-65106714D01*
X76074833Y-65440047D01*
X76027214Y-65630523D01*
X75931976Y-65725761D01*
X75836738Y-65773380D01*
X75646261Y-65773380D01*
X75551023Y-65725761D01*
X75455785Y-65630523D01*
X75408166Y-65440047D01*
X75408166Y-65106714D01*
X75455785Y-64916238D01*
X75551023Y-64821000D01*
X75646261Y-64773380D01*
X76455785Y-64868619D02*
X76503404Y-64821000D01*
X76598642Y-64773380D01*
X76836738Y-64773380D01*
X76931976Y-64821000D01*
X76979595Y-64868619D01*
X77027214Y-64963857D01*
X77027214Y-65059095D01*
X76979595Y-65201952D01*
X76408166Y-65773380D01*
X77027214Y-65773380D01*
X77931976Y-64773380D02*
X77455785Y-64773380D01*
X77408166Y-65249571D01*
X77455785Y-65201952D01*
X77551023Y-65154333D01*
X77789119Y-65154333D01*
X77884357Y-65201952D01*
X77931976Y-65249571D01*
X77979595Y-65344809D01*
X77979595Y-65582904D01*
X77931976Y-65678142D01*
X77884357Y-65725761D01*
X77789119Y-65773380D01*
X77551023Y-65773380D01*
X77455785Y-65725761D01*
X77408166Y-65678142D01*
X108221000Y-39951428D02*
X108821000Y-39951428D01*
X109078142Y-40894285D02*
X108221000Y-40894285D01*
X108221000Y-39094285D01*
X109078142Y-39094285D01*
X109763857Y-40808571D02*
X110021000Y-40894285D01*
X110449571Y-40894285D01*
X110621000Y-40808571D01*
X110706714Y-40722857D01*
X110792428Y-40551428D01*
X110792428Y-40380000D01*
X110706714Y-40208571D01*
X110621000Y-40122857D01*
X110449571Y-40037142D01*
X110106714Y-39951428D01*
X109935285Y-39865714D01*
X109849571Y-39780000D01*
X109763857Y-39608571D01*
X109763857Y-39437142D01*
X109849571Y-39265714D01*
X109935285Y-39180000D01*
X110106714Y-39094285D01*
X110535285Y-39094285D01*
X110792428Y-39180000D01*
X111563857Y-40894285D02*
X111563857Y-39094285D01*
X112249571Y-39094285D01*
X112421000Y-39180000D01*
X112506714Y-39265714D01*
X112592428Y-39437142D01*
X112592428Y-39694285D01*
X112506714Y-39865714D01*
X112421000Y-39951428D01*
X112249571Y-40037142D01*
X111563857Y-40037142D01*
X113192428Y-39094285D02*
X114306714Y-39094285D01*
X113706714Y-39780000D01*
X113963857Y-39780000D01*
X114135285Y-39865714D01*
X114221000Y-39951428D01*
X114306714Y-40122857D01*
X114306714Y-40551428D01*
X114221000Y-40722857D01*
X114135285Y-40808571D01*
X113963857Y-40894285D01*
X113449571Y-40894285D01*
X113278142Y-40808571D01*
X113192428Y-40722857D01*
X114992428Y-39265714D02*
X115078142Y-39180000D01*
X115249571Y-39094285D01*
X115678142Y-39094285D01*
X115849571Y-39180000D01*
X115935285Y-39265714D01*
X116021000Y-39437142D01*
X116021000Y-39608571D01*
X115935285Y-39865714D01*
X114906714Y-40894285D01*
X116021000Y-40894285D01*
X118163857Y-40894285D02*
X118163857Y-39094285D01*
X119278142Y-40894285D02*
X119106714Y-40808571D01*
X119021000Y-40722857D01*
X118935285Y-40551428D01*
X118935285Y-40037142D01*
X119021000Y-39865714D01*
X119106714Y-39780000D01*
X119278142Y-39694285D01*
X119535285Y-39694285D01*
X119706714Y-39780000D01*
X119792428Y-39865714D01*
X119878142Y-40037142D01*
X119878142Y-40551428D01*
X119792428Y-40722857D01*
X119706714Y-40808571D01*
X119535285Y-40894285D01*
X119278142Y-40894285D01*
X120392428Y-39094285D02*
X121421000Y-39094285D01*
X120906714Y-40894285D02*
X120906714Y-39094285D01*
X123392428Y-40894285D02*
X123392428Y-39094285D01*
X124421000Y-40894285D02*
X123649571Y-39865714D01*
X124421000Y-39094285D02*
X123392428Y-40122857D01*
X125192428Y-40894285D02*
X125192428Y-39694285D01*
X125192428Y-39094285D02*
X125106714Y-39180000D01*
X125192428Y-39265714D01*
X125278142Y-39180000D01*
X125192428Y-39094285D01*
X125192428Y-39265714D01*
X125792428Y-39694285D02*
X126478142Y-39694285D01*
X126049571Y-39094285D02*
X126049571Y-40637142D01*
X126135285Y-40808571D01*
X126306714Y-40894285D01*
X126478142Y-40894285D01*
X108992428Y-43792285D02*
X108135285Y-43792285D01*
X108135285Y-41992285D01*
X109592428Y-43792285D02*
X109592428Y-41992285D01*
X110192428Y-41992285D02*
X110792428Y-43792285D01*
X111392428Y-41992285D01*
X113021000Y-43792285D02*
X112421000Y-42935142D01*
X111992428Y-43792285D02*
X111992428Y-41992285D01*
X112678142Y-41992285D01*
X112849571Y-42078000D01*
X112935285Y-42163714D01*
X113021000Y-42335142D01*
X113021000Y-42592285D01*
X112935285Y-42763714D01*
X112849571Y-42849428D01*
X112678142Y-42935142D01*
X111992428Y-42935142D01*
X113706714Y-43278000D02*
X114563857Y-43278000D01*
X113535285Y-43792285D02*
X114135285Y-41992285D01*
X114735285Y-43792285D01*
X116706714Y-43106571D02*
X118078142Y-43106571D01*
X120221000Y-42163714D02*
X120306714Y-42078000D01*
X120478142Y-41992285D01*
X120906714Y-41992285D01*
X121078142Y-42078000D01*
X121163857Y-42163714D01*
X121249571Y-42335142D01*
X121249571Y-42506571D01*
X121163857Y-42763714D01*
X120135285Y-43792285D01*
X121249571Y-43792285D01*
X122363857Y-41992285D02*
X122535285Y-41992285D01*
X122706714Y-42078000D01*
X122792428Y-42163714D01*
X122878142Y-42335142D01*
X122963857Y-42678000D01*
X122963857Y-43106571D01*
X122878142Y-43449428D01*
X122792428Y-43620857D01*
X122706714Y-43706571D01*
X122535285Y-43792285D01*
X122363857Y-43792285D01*
X122192428Y-43706571D01*
X122106714Y-43620857D01*
X122021000Y-43449428D01*
X121935285Y-43106571D01*
X121935285Y-42678000D01*
X122021000Y-42335142D01*
X122106714Y-42163714D01*
X122192428Y-42078000D01*
X122363857Y-41992285D01*
X123649571Y-42163714D02*
X123735285Y-42078000D01*
X123906714Y-41992285D01*
X124335285Y-41992285D01*
X124506714Y-42078000D01*
X124592428Y-42163714D01*
X124678142Y-42335142D01*
X124678142Y-42506571D01*
X124592428Y-42763714D01*
X123563857Y-43792285D01*
X124678142Y-43792285D01*
X125363857Y-42163714D02*
X125449571Y-42078000D01*
X125621000Y-41992285D01*
X126049571Y-41992285D01*
X126221000Y-42078000D01*
X126306714Y-42163714D01*
X126392428Y-42335142D01*
X126392428Y-42506571D01*
X126306714Y-42763714D01*
X125278142Y-43792285D01*
X126392428Y-43792285D01*
X52988785Y-45220000D02*
X52893547Y-45172380D01*
X52750690Y-45172380D01*
X52607833Y-45220000D01*
X52512595Y-45315238D01*
X52464976Y-45410476D01*
X52417357Y-45600952D01*
X52417357Y-45743809D01*
X52464976Y-45934285D01*
X52512595Y-46029523D01*
X52607833Y-46124761D01*
X52750690Y-46172380D01*
X52845928Y-46172380D01*
X52988785Y-46124761D01*
X53036404Y-46077142D01*
X53036404Y-45743809D01*
X52845928Y-45743809D01*
X53464976Y-46172380D02*
X53464976Y-45172380D01*
X54036404Y-46172380D01*
X54036404Y-45172380D01*
X54512595Y-46172380D02*
X54512595Y-45172380D01*
X54750690Y-45172380D01*
X54893547Y-45220000D01*
X54988785Y-45315238D01*
X55036404Y-45410476D01*
X55084023Y-45600952D01*
X55084023Y-45743809D01*
X55036404Y-45934285D01*
X54988785Y-46029523D01*
X54893547Y-46124761D01*
X54750690Y-46172380D01*
X54512595Y-46172380D01*
X111981166Y-59952000D02*
X111885928Y-59904380D01*
X111743071Y-59904380D01*
X111600214Y-59952000D01*
X111504976Y-60047238D01*
X111457357Y-60142476D01*
X111409738Y-60332952D01*
X111409738Y-60475809D01*
X111457357Y-60666285D01*
X111504976Y-60761523D01*
X111600214Y-60856761D01*
X111743071Y-60904380D01*
X111838309Y-60904380D01*
X111981166Y-60856761D01*
X112028785Y-60809142D01*
X112028785Y-60475809D01*
X111838309Y-60475809D01*
X112457357Y-60904380D02*
X112457357Y-59904380D01*
X112838309Y-59904380D01*
X112933547Y-59952000D01*
X112981166Y-59999619D01*
X113028785Y-60094857D01*
X113028785Y-60237714D01*
X112981166Y-60332952D01*
X112933547Y-60380571D01*
X112838309Y-60428190D01*
X112457357Y-60428190D01*
X113457357Y-60904380D02*
X113457357Y-59904380D01*
X114124023Y-59904380D02*
X114314500Y-59904380D01*
X114409738Y-59952000D01*
X114504976Y-60047238D01*
X114552595Y-60237714D01*
X114552595Y-60571047D01*
X114504976Y-60761523D01*
X114409738Y-60856761D01*
X114314500Y-60904380D01*
X114124023Y-60904380D01*
X114028785Y-60856761D01*
X113933547Y-60761523D01*
X113885928Y-60571047D01*
X113885928Y-60237714D01*
X113933547Y-60047238D01*
X114028785Y-59952000D01*
X114124023Y-59904380D01*
X114933547Y-59999619D02*
X114981166Y-59952000D01*
X115076404Y-59904380D01*
X115314500Y-59904380D01*
X115409738Y-59952000D01*
X115457357Y-59999619D01*
X115504976Y-60094857D01*
X115504976Y-60190095D01*
X115457357Y-60332952D01*
X114885928Y-60904380D01*
X115504976Y-60904380D01*
X115838309Y-59904380D02*
X116457357Y-59904380D01*
X116124023Y-60285333D01*
X116266880Y-60285333D01*
X116362119Y-60332952D01*
X116409738Y-60380571D01*
X116457357Y-60475809D01*
X116457357Y-60713904D01*
X116409738Y-60809142D01*
X116362119Y-60856761D01*
X116266880Y-60904380D01*
X115981166Y-60904380D01*
X115885928Y-60856761D01*
X115838309Y-60809142D01*
X117600214Y-59856761D02*
X116743071Y-61142476D01*
X117933547Y-60904380D02*
X117933547Y-59904380D01*
X118266880Y-60618666D01*
X118600214Y-59904380D01*
X118600214Y-60904380D01*
X119266880Y-59904380D02*
X119457357Y-59904380D01*
X119552595Y-59952000D01*
X119647833Y-60047238D01*
X119695452Y-60237714D01*
X119695452Y-60571047D01*
X119647833Y-60761523D01*
X119552595Y-60856761D01*
X119457357Y-60904380D01*
X119266880Y-60904380D01*
X119171642Y-60856761D01*
X119076404Y-60761523D01*
X119028785Y-60571047D01*
X119028785Y-60237714D01*
X119076404Y-60047238D01*
X119171642Y-59952000D01*
X119266880Y-59904380D01*
X120076404Y-60856761D02*
X120219261Y-60904380D01*
X120457357Y-60904380D01*
X120552595Y-60856761D01*
X120600214Y-60809142D01*
X120647833Y-60713904D01*
X120647833Y-60618666D01*
X120600214Y-60523428D01*
X120552595Y-60475809D01*
X120457357Y-60428190D01*
X120266880Y-60380571D01*
X120171642Y-60332952D01*
X120124023Y-60285333D01*
X120076404Y-60190095D01*
X120076404Y-60094857D01*
X120124023Y-59999619D01*
X120171642Y-59952000D01*
X120266880Y-59904380D01*
X120504976Y-59904380D01*
X120647833Y-59952000D01*
X121076404Y-60904380D02*
X121076404Y-59904380D01*
X79375142Y-94119000D02*
X79232285Y-94047571D01*
X79018000Y-94047571D01*
X78803714Y-94119000D01*
X78660857Y-94261857D01*
X78589428Y-94404714D01*
X78518000Y-94690428D01*
X78518000Y-94904714D01*
X78589428Y-95190428D01*
X78660857Y-95333285D01*
X78803714Y-95476142D01*
X79018000Y-95547571D01*
X79160857Y-95547571D01*
X79375142Y-95476142D01*
X79446571Y-95404714D01*
X79446571Y-94904714D01*
X79160857Y-94904714D01*
X80089428Y-95547571D02*
X80089428Y-94047571D01*
X80946571Y-95547571D01*
X80946571Y-94047571D01*
X81660857Y-95547571D02*
X81660857Y-94047571D01*
X82018000Y-94047571D01*
X82232285Y-94119000D01*
X82375142Y-94261857D01*
X82446571Y-94404714D01*
X82518000Y-94690428D01*
X82518000Y-94904714D01*
X82446571Y-95190428D01*
X82375142Y-95333285D01*
X82232285Y-95476142D01*
X82018000Y-95547571D01*
X81660857Y-95547571D01*
X68421523Y-91590761D02*
X68564380Y-91638380D01*
X68802476Y-91638380D01*
X68897714Y-91590761D01*
X68945333Y-91543142D01*
X68992952Y-91447904D01*
X68992952Y-91352666D01*
X68945333Y-91257428D01*
X68897714Y-91209809D01*
X68802476Y-91162190D01*
X68612000Y-91114571D01*
X68516761Y-91066952D01*
X68469142Y-91019333D01*
X68421523Y-90924095D01*
X68421523Y-90828857D01*
X68469142Y-90733619D01*
X68516761Y-90686000D01*
X68612000Y-90638380D01*
X68850095Y-90638380D01*
X68992952Y-90686000D01*
X69421523Y-91114571D02*
X69754857Y-91114571D01*
X69897714Y-91638380D02*
X69421523Y-91638380D01*
X69421523Y-90638380D01*
X69897714Y-90638380D01*
X70897714Y-91638380D02*
X70564380Y-91162190D01*
X70326285Y-91638380D02*
X70326285Y-90638380D01*
X70707238Y-90638380D01*
X70802476Y-90686000D01*
X70850095Y-90733619D01*
X70897714Y-90828857D01*
X70897714Y-90971714D01*
X70850095Y-91066952D01*
X70802476Y-91114571D01*
X70707238Y-91162190D01*
X70326285Y-91162190D01*
X71183428Y-90638380D02*
X71516761Y-91638380D01*
X71850095Y-90638380D01*
X72373904Y-90638380D02*
X72564380Y-90638380D01*
X72659619Y-90686000D01*
X72754857Y-90781238D01*
X72802476Y-90971714D01*
X72802476Y-91305047D01*
X72754857Y-91495523D01*
X72659619Y-91590761D01*
X72564380Y-91638380D01*
X72373904Y-91638380D01*
X72278666Y-91590761D01*
X72183428Y-91495523D01*
X72135809Y-91305047D01*
X72135809Y-90971714D01*
X72183428Y-90781238D01*
X72278666Y-90686000D01*
X72373904Y-90638380D01*
X117600214Y-76208000D02*
X117504976Y-76160380D01*
X117362119Y-76160380D01*
X117219261Y-76208000D01*
X117124023Y-76303238D01*
X117076404Y-76398476D01*
X117028785Y-76588952D01*
X117028785Y-76731809D01*
X117076404Y-76922285D01*
X117124023Y-77017523D01*
X117219261Y-77112761D01*
X117362119Y-77160380D01*
X117457357Y-77160380D01*
X117600214Y-77112761D01*
X117647833Y-77065142D01*
X117647833Y-76731809D01*
X117457357Y-76731809D01*
X118076404Y-77160380D02*
X118076404Y-76160380D01*
X118457357Y-76160380D01*
X118552595Y-76208000D01*
X118600214Y-76255619D01*
X118647833Y-76350857D01*
X118647833Y-76493714D01*
X118600214Y-76588952D01*
X118552595Y-76636571D01*
X118457357Y-76684190D01*
X118076404Y-76684190D01*
X119076404Y-77160380D02*
X119076404Y-76160380D01*
X119743071Y-76160380D02*
X119933547Y-76160380D01*
X120028785Y-76208000D01*
X120124023Y-76303238D01*
X120171642Y-76493714D01*
X120171642Y-76827047D01*
X120124023Y-77017523D01*
X120028785Y-77112761D01*
X119933547Y-77160380D01*
X119743071Y-77160380D01*
X119647833Y-77112761D01*
X119552595Y-77017523D01*
X119504976Y-76827047D01*
X119504976Y-76493714D01*
X119552595Y-76303238D01*
X119647833Y-76208000D01*
X119743071Y-76160380D01*
X121028785Y-76493714D02*
X121028785Y-77160380D01*
X120790690Y-76112761D02*
X120552595Y-76827047D01*
X121171642Y-76827047D01*
X63580000Y-53094000D02*
X63484761Y-53046380D01*
X63341904Y-53046380D01*
X63199047Y-53094000D01*
X63103809Y-53189238D01*
X63056190Y-53284476D01*
X63008571Y-53474952D01*
X63008571Y-53617809D01*
X63056190Y-53808285D01*
X63103809Y-53903523D01*
X63199047Y-53998761D01*
X63341904Y-54046380D01*
X63437142Y-54046380D01*
X63580000Y-53998761D01*
X63627619Y-53951142D01*
X63627619Y-53617809D01*
X63437142Y-53617809D01*
X64056190Y-54046380D02*
X64056190Y-53046380D01*
X64437142Y-53046380D01*
X64532380Y-53094000D01*
X64580000Y-53141619D01*
X64627619Y-53236857D01*
X64627619Y-53379714D01*
X64580000Y-53474952D01*
X64532380Y-53522571D01*
X64437142Y-53570190D01*
X64056190Y-53570190D01*
X64960952Y-53046380D02*
X65580000Y-53046380D01*
X65246666Y-53427333D01*
X65389523Y-53427333D01*
X65484761Y-53474952D01*
X65532380Y-53522571D01*
X65580000Y-53617809D01*
X65580000Y-53855904D01*
X65532380Y-53951142D01*
X65484761Y-53998761D01*
X65389523Y-54046380D01*
X65103809Y-54046380D01*
X65008571Y-53998761D01*
X64960952Y-53951142D01*
X66484761Y-53046380D02*
X66008571Y-53046380D01*
X65960952Y-53522571D01*
X66008571Y-53474952D01*
X66103809Y-53427333D01*
X66341904Y-53427333D01*
X66437142Y-53474952D01*
X66484761Y-53522571D01*
X66532380Y-53617809D01*
X66532380Y-53855904D01*
X66484761Y-53951142D01*
X66437142Y-53998761D01*
X66341904Y-54046380D01*
X66103809Y-54046380D01*
X66008571Y-53998761D01*
X65960952Y-53951142D01*
X67675238Y-52998761D02*
X66818095Y-54284476D01*
X67960952Y-53760666D02*
X68437142Y-53760666D01*
X67865714Y-54046380D02*
X68199047Y-53046380D01*
X68532380Y-54046380D01*
X68865714Y-54046380D02*
X68865714Y-53046380D01*
X69103809Y-53046380D01*
X69246666Y-53094000D01*
X69341904Y-53189238D01*
X69389523Y-53284476D01*
X69437142Y-53474952D01*
X69437142Y-53617809D01*
X69389523Y-53808285D01*
X69341904Y-53903523D01*
X69246666Y-53998761D01*
X69103809Y-54046380D01*
X68865714Y-54046380D01*
X70389523Y-54046380D02*
X69818095Y-54046380D01*
X70103809Y-54046380D02*
X70103809Y-53046380D01*
X70008571Y-53189238D01*
X69913333Y-53284476D01*
X69818095Y-53332095D01*
X70580000Y-54141619D02*
X71341904Y-54141619D01*
X72151428Y-53951142D02*
X72103809Y-53998761D01*
X71960952Y-54046380D01*
X71865714Y-54046380D01*
X71722857Y-53998761D01*
X71627619Y-53903523D01*
X71580000Y-53808285D01*
X71532380Y-53617809D01*
X71532380Y-53474952D01*
X71580000Y-53284476D01*
X71627619Y-53189238D01*
X71722857Y-53094000D01*
X71865714Y-53046380D01*
X71960952Y-53046380D01*
X72103809Y-53094000D01*
X72151428Y-53141619D01*
X72580000Y-54046380D02*
X72580000Y-53046380D01*
X72580000Y-53522571D02*
X73151428Y-53522571D01*
X73151428Y-54046380D02*
X73151428Y-53046380D01*
X73532380Y-53046380D02*
X74199047Y-53046380D01*
X73770476Y-54046380D01*
X121967809Y-101481000D02*
X121872571Y-101433380D01*
X121729714Y-101433380D01*
X121586857Y-101481000D01*
X121491619Y-101576238D01*
X121444000Y-101671476D01*
X121396380Y-101861952D01*
X121396380Y-102004809D01*
X121444000Y-102195285D01*
X121491619Y-102290523D01*
X121586857Y-102385761D01*
X121729714Y-102433380D01*
X121824952Y-102433380D01*
X121967809Y-102385761D01*
X122015428Y-102338142D01*
X122015428Y-102004809D01*
X121824952Y-102004809D01*
X122444000Y-102433380D02*
X122444000Y-101433380D01*
X122824952Y-101433380D01*
X122920190Y-101481000D01*
X122967809Y-101528619D01*
X123015428Y-101623857D01*
X123015428Y-101766714D01*
X122967809Y-101861952D01*
X122920190Y-101909571D01*
X122824952Y-101957190D01*
X122444000Y-101957190D01*
X123444000Y-102433380D02*
X123444000Y-101433380D01*
X124110666Y-101433380D02*
X124301142Y-101433380D01*
X124396380Y-101481000D01*
X124491619Y-101576238D01*
X124539238Y-101766714D01*
X124539238Y-102100047D01*
X124491619Y-102290523D01*
X124396380Y-102385761D01*
X124301142Y-102433380D01*
X124110666Y-102433380D01*
X124015428Y-102385761D01*
X123920190Y-102290523D01*
X123872571Y-102100047D01*
X123872571Y-101766714D01*
X123920190Y-101576238D01*
X124015428Y-101481000D01*
X124110666Y-101433380D01*
X125158285Y-101433380D02*
X125253523Y-101433380D01*
X125348761Y-101481000D01*
X125396380Y-101528619D01*
X125444000Y-101623857D01*
X125491619Y-101814333D01*
X125491619Y-102052428D01*
X125444000Y-102242904D01*
X125396380Y-102338142D01*
X125348761Y-102385761D01*
X125253523Y-102433380D01*
X125158285Y-102433380D01*
X125063047Y-102385761D01*
X125015428Y-102338142D01*
X124967809Y-102242904D01*
X124920190Y-102052428D01*
X124920190Y-101814333D01*
X124967809Y-101623857D01*
X125015428Y-101528619D01*
X125063047Y-101481000D01*
X125158285Y-101433380D01*
X112695452Y-73668000D02*
X112600214Y-73620380D01*
X112457357Y-73620380D01*
X112314500Y-73668000D01*
X112219261Y-73763238D01*
X112171642Y-73858476D01*
X112124023Y-74048952D01*
X112124023Y-74191809D01*
X112171642Y-74382285D01*
X112219261Y-74477523D01*
X112314500Y-74572761D01*
X112457357Y-74620380D01*
X112552595Y-74620380D01*
X112695452Y-74572761D01*
X112743071Y-74525142D01*
X112743071Y-74191809D01*
X112552595Y-74191809D01*
X113171642Y-74620380D02*
X113171642Y-73620380D01*
X113552595Y-73620380D01*
X113647833Y-73668000D01*
X113695452Y-73715619D01*
X113743071Y-73810857D01*
X113743071Y-73953714D01*
X113695452Y-74048952D01*
X113647833Y-74096571D01*
X113552595Y-74144190D01*
X113171642Y-74144190D01*
X114171642Y-74620380D02*
X114171642Y-73620380D01*
X114838309Y-73620380D02*
X115028785Y-73620380D01*
X115124023Y-73668000D01*
X115219261Y-73763238D01*
X115266880Y-73953714D01*
X115266880Y-74287047D01*
X115219261Y-74477523D01*
X115124023Y-74572761D01*
X115028785Y-74620380D01*
X114838309Y-74620380D01*
X114743071Y-74572761D01*
X114647833Y-74477523D01*
X114600214Y-74287047D01*
X114600214Y-73953714D01*
X114647833Y-73763238D01*
X114743071Y-73668000D01*
X114838309Y-73620380D01*
X116219261Y-74620380D02*
X115647833Y-74620380D01*
X115933547Y-74620380D02*
X115933547Y-73620380D01*
X115838309Y-73763238D01*
X115743071Y-73858476D01*
X115647833Y-73906095D01*
X117076404Y-73620380D02*
X116885928Y-73620380D01*
X116790690Y-73668000D01*
X116743071Y-73715619D01*
X116647833Y-73858476D01*
X116600214Y-74048952D01*
X116600214Y-74429904D01*
X116647833Y-74525142D01*
X116695452Y-74572761D01*
X116790690Y-74620380D01*
X116981166Y-74620380D01*
X117076404Y-74572761D01*
X117124023Y-74525142D01*
X117171642Y-74429904D01*
X117171642Y-74191809D01*
X117124023Y-74096571D01*
X117076404Y-74048952D01*
X116981166Y-74001333D01*
X116790690Y-74001333D01*
X116695452Y-74048952D01*
X116647833Y-74096571D01*
X116600214Y-74191809D01*
X118314500Y-73572761D02*
X117457357Y-74858476D01*
X119219261Y-74620380D02*
X118885928Y-74144190D01*
X118647833Y-74620380D02*
X118647833Y-73620380D01*
X119028785Y-73620380D01*
X119124023Y-73668000D01*
X119171642Y-73715619D01*
X119219261Y-73810857D01*
X119219261Y-73953714D01*
X119171642Y-74048952D01*
X119124023Y-74096571D01*
X119028785Y-74144190D01*
X118647833Y-74144190D01*
X119552595Y-73620380D02*
X120219261Y-74620380D01*
X120219261Y-73620380D02*
X119552595Y-74620380D01*
X120552595Y-73715619D02*
X120600214Y-73668000D01*
X120695452Y-73620380D01*
X120933547Y-73620380D01*
X121028785Y-73668000D01*
X121076404Y-73715619D01*
X121124023Y-73810857D01*
X121124023Y-73906095D01*
X121076404Y-74048952D01*
X120504976Y-74620380D01*
X121124023Y-74620380D01*
X112790690Y-65032000D02*
X112695452Y-64984380D01*
X112552595Y-64984380D01*
X112409738Y-65032000D01*
X112314500Y-65127238D01*
X112266880Y-65222476D01*
X112219261Y-65412952D01*
X112219261Y-65555809D01*
X112266880Y-65746285D01*
X112314500Y-65841523D01*
X112409738Y-65936761D01*
X112552595Y-65984380D01*
X112647833Y-65984380D01*
X112790690Y-65936761D01*
X112838309Y-65889142D01*
X112838309Y-65555809D01*
X112647833Y-65555809D01*
X113266880Y-65984380D02*
X113266880Y-64984380D01*
X113647833Y-64984380D01*
X113743071Y-65032000D01*
X113790690Y-65079619D01*
X113838309Y-65174857D01*
X113838309Y-65317714D01*
X113790690Y-65412952D01*
X113743071Y-65460571D01*
X113647833Y-65508190D01*
X113266880Y-65508190D01*
X114266880Y-65984380D02*
X114266880Y-64984380D01*
X114933547Y-64984380D02*
X115124023Y-64984380D01*
X115219261Y-65032000D01*
X115314500Y-65127238D01*
X115362119Y-65317714D01*
X115362119Y-65651047D01*
X115314500Y-65841523D01*
X115219261Y-65936761D01*
X115124023Y-65984380D01*
X114933547Y-65984380D01*
X114838309Y-65936761D01*
X114743071Y-65841523D01*
X114695452Y-65651047D01*
X114695452Y-65317714D01*
X114743071Y-65127238D01*
X114838309Y-65032000D01*
X114933547Y-64984380D01*
X116314500Y-65984380D02*
X115743071Y-65984380D01*
X116028785Y-65984380D02*
X116028785Y-64984380D01*
X115933547Y-65127238D01*
X115838309Y-65222476D01*
X115743071Y-65270095D01*
X116885928Y-65412952D02*
X116790690Y-65365333D01*
X116743071Y-65317714D01*
X116695452Y-65222476D01*
X116695452Y-65174857D01*
X116743071Y-65079619D01*
X116790690Y-65032000D01*
X116885928Y-64984380D01*
X117076404Y-64984380D01*
X117171642Y-65032000D01*
X117219261Y-65079619D01*
X117266880Y-65174857D01*
X117266880Y-65222476D01*
X117219261Y-65317714D01*
X117171642Y-65365333D01*
X117076404Y-65412952D01*
X116885928Y-65412952D01*
X116790690Y-65460571D01*
X116743071Y-65508190D01*
X116695452Y-65603428D01*
X116695452Y-65793904D01*
X116743071Y-65889142D01*
X116790690Y-65936761D01*
X116885928Y-65984380D01*
X117076404Y-65984380D01*
X117171642Y-65936761D01*
X117219261Y-65889142D01*
X117266880Y-65793904D01*
X117266880Y-65603428D01*
X117219261Y-65508190D01*
X117171642Y-65460571D01*
X117076404Y-65412952D01*
X118409738Y-64936761D02*
X117552595Y-66222476D01*
X119314500Y-65889142D02*
X119266880Y-65936761D01*
X119124023Y-65984380D01*
X119028785Y-65984380D01*
X118885928Y-65936761D01*
X118790690Y-65841523D01*
X118743071Y-65746285D01*
X118695452Y-65555809D01*
X118695452Y-65412952D01*
X118743071Y-65222476D01*
X118790690Y-65127238D01*
X118885928Y-65032000D01*
X119028785Y-64984380D01*
X119124023Y-64984380D01*
X119266880Y-65032000D01*
X119314500Y-65079619D01*
X120219261Y-65984380D02*
X119743071Y-65984380D01*
X119743071Y-64984380D01*
X120552595Y-65984380D02*
X120552595Y-64984380D01*
X121124023Y-65984380D02*
X120695452Y-65412952D01*
X121124023Y-64984380D02*
X120552595Y-65555809D01*
X52179261Y-52792380D02*
X52798309Y-52792380D01*
X52464976Y-53173333D01*
X52607833Y-53173333D01*
X52703071Y-53220952D01*
X52750690Y-53268571D01*
X52798309Y-53363809D01*
X52798309Y-53601904D01*
X52750690Y-53697142D01*
X52703071Y-53744761D01*
X52607833Y-53792380D01*
X52322119Y-53792380D01*
X52226880Y-53744761D01*
X52179261Y-53697142D01*
X53226880Y-53697142D02*
X53274500Y-53744761D01*
X53226880Y-53792380D01*
X53179261Y-53744761D01*
X53226880Y-53697142D01*
X53226880Y-53792380D01*
X53607833Y-52792380D02*
X54226880Y-52792380D01*
X53893547Y-53173333D01*
X54036404Y-53173333D01*
X54131642Y-53220952D01*
X54179261Y-53268571D01*
X54226880Y-53363809D01*
X54226880Y-53601904D01*
X54179261Y-53697142D01*
X54131642Y-53744761D01*
X54036404Y-53792380D01*
X53750690Y-53792380D01*
X53655452Y-53744761D01*
X53607833Y-53697142D01*
X54512595Y-52792380D02*
X54845928Y-53792380D01*
X55179261Y-52792380D01*
X107775619Y-101481000D02*
X107680380Y-101433380D01*
X107537523Y-101433380D01*
X107394666Y-101481000D01*
X107299428Y-101576238D01*
X107251809Y-101671476D01*
X107204190Y-101861952D01*
X107204190Y-102004809D01*
X107251809Y-102195285D01*
X107299428Y-102290523D01*
X107394666Y-102385761D01*
X107537523Y-102433380D01*
X107632761Y-102433380D01*
X107775619Y-102385761D01*
X107823238Y-102338142D01*
X107823238Y-102004809D01*
X107632761Y-102004809D01*
X108251809Y-102433380D02*
X108251809Y-101433380D01*
X108632761Y-101433380D01*
X108728000Y-101481000D01*
X108775619Y-101528619D01*
X108823238Y-101623857D01*
X108823238Y-101766714D01*
X108775619Y-101861952D01*
X108728000Y-101909571D01*
X108632761Y-101957190D01*
X108251809Y-101957190D01*
X109251809Y-102433380D02*
X109251809Y-101433380D01*
X109918476Y-101433380D02*
X110108952Y-101433380D01*
X110204190Y-101481000D01*
X110299428Y-101576238D01*
X110347047Y-101766714D01*
X110347047Y-102100047D01*
X110299428Y-102290523D01*
X110204190Y-102385761D01*
X110108952Y-102433380D01*
X109918476Y-102433380D01*
X109823238Y-102385761D01*
X109728000Y-102290523D01*
X109680380Y-102100047D01*
X109680380Y-101766714D01*
X109728000Y-101576238D01*
X109823238Y-101481000D01*
X109918476Y-101433380D01*
X111299428Y-102433380D02*
X110728000Y-102433380D01*
X111013714Y-102433380D02*
X111013714Y-101433380D01*
X110918476Y-101576238D01*
X110823238Y-101671476D01*
X110728000Y-101719095D01*
X112204190Y-101433380D02*
X111728000Y-101433380D01*
X111680380Y-101909571D01*
X111728000Y-101861952D01*
X111823238Y-101814333D01*
X112061333Y-101814333D01*
X112156571Y-101861952D01*
X112204190Y-101909571D01*
X112251809Y-102004809D01*
X112251809Y-102242904D01*
X112204190Y-102338142D01*
X112156571Y-102385761D01*
X112061333Y-102433380D01*
X111823238Y-102433380D01*
X111728000Y-102385761D01*
X111680380Y-102338142D01*
X73757404Y-66937000D02*
X73662166Y-66889380D01*
X73519309Y-66889380D01*
X73376452Y-66937000D01*
X73281214Y-67032238D01*
X73233595Y-67127476D01*
X73185976Y-67317952D01*
X73185976Y-67460809D01*
X73233595Y-67651285D01*
X73281214Y-67746523D01*
X73376452Y-67841761D01*
X73519309Y-67889380D01*
X73614547Y-67889380D01*
X73757404Y-67841761D01*
X73805023Y-67794142D01*
X73805023Y-67460809D01*
X73614547Y-67460809D01*
X74233595Y-67889380D02*
X74233595Y-66889380D01*
X74805023Y-67889380D01*
X74805023Y-66889380D01*
X75281214Y-67889380D02*
X75281214Y-66889380D01*
X75519309Y-66889380D01*
X75662166Y-66937000D01*
X75757404Y-67032238D01*
X75805023Y-67127476D01*
X75852642Y-67317952D01*
X75852642Y-67460809D01*
X75805023Y-67651285D01*
X75757404Y-67746523D01*
X75662166Y-67841761D01*
X75519309Y-67889380D01*
X75281214Y-67889380D01*
X86106095Y-57800857D02*
X87629904Y-57800857D01*
X86868000Y-58562761D02*
X86868000Y-57038952D01*
X63198619Y-57158000D02*
X63103380Y-57110380D01*
X62960523Y-57110380D01*
X62817666Y-57158000D01*
X62722428Y-57253238D01*
X62674809Y-57348476D01*
X62627190Y-57538952D01*
X62627190Y-57681809D01*
X62674809Y-57872285D01*
X62722428Y-57967523D01*
X62817666Y-58062761D01*
X62960523Y-58110380D01*
X63055761Y-58110380D01*
X63198619Y-58062761D01*
X63246238Y-58015142D01*
X63246238Y-57681809D01*
X63055761Y-57681809D01*
X63674809Y-58110380D02*
X63674809Y-57110380D01*
X64055761Y-57110380D01*
X64151000Y-57158000D01*
X64198619Y-57205619D01*
X64246238Y-57300857D01*
X64246238Y-57443714D01*
X64198619Y-57538952D01*
X64151000Y-57586571D01*
X64055761Y-57634190D01*
X63674809Y-57634190D01*
X64674809Y-58110380D02*
X64674809Y-57110380D01*
X65341476Y-57110380D02*
X65531952Y-57110380D01*
X65627190Y-57158000D01*
X65722428Y-57253238D01*
X65770047Y-57443714D01*
X65770047Y-57777047D01*
X65722428Y-57967523D01*
X65627190Y-58062761D01*
X65531952Y-58110380D01*
X65341476Y-58110380D01*
X65246238Y-58062761D01*
X65151000Y-57967523D01*
X65103380Y-57777047D01*
X65103380Y-57443714D01*
X65151000Y-57253238D01*
X65246238Y-57158000D01*
X65341476Y-57110380D01*
X66103380Y-57110380D02*
X66722428Y-57110380D01*
X66389095Y-57491333D01*
X66531952Y-57491333D01*
X66627190Y-57538952D01*
X66674809Y-57586571D01*
X66722428Y-57681809D01*
X66722428Y-57919904D01*
X66674809Y-58015142D01*
X66627190Y-58062761D01*
X66531952Y-58110380D01*
X66246238Y-58110380D01*
X66151000Y-58062761D01*
X66103380Y-58015142D01*
X67055761Y-57110380D02*
X67674809Y-57110380D01*
X67341476Y-57491333D01*
X67484333Y-57491333D01*
X67579571Y-57538952D01*
X67627190Y-57586571D01*
X67674809Y-57681809D01*
X67674809Y-57919904D01*
X67627190Y-58015142D01*
X67579571Y-58062761D01*
X67484333Y-58110380D01*
X67198619Y-58110380D01*
X67103380Y-58062761D01*
X67055761Y-58015142D01*
X115189476Y-52284380D02*
X115760904Y-52284380D01*
X115475190Y-53284380D02*
X115475190Y-52284380D01*
X116522809Y-53284380D02*
X116522809Y-52760571D01*
X116475190Y-52665333D01*
X116379952Y-52617714D01*
X116189476Y-52617714D01*
X116094238Y-52665333D01*
X116522809Y-53236761D02*
X116427571Y-53284380D01*
X116189476Y-53284380D01*
X116094238Y-53236761D01*
X116046619Y-53141523D01*
X116046619Y-53046285D01*
X116094238Y-52951047D01*
X116189476Y-52903428D01*
X116427571Y-52903428D01*
X116522809Y-52855809D01*
X116999000Y-53284380D02*
X116999000Y-52617714D01*
X116999000Y-52808190D02*
X117046619Y-52712952D01*
X117094238Y-52665333D01*
X117189476Y-52617714D01*
X117284714Y-52617714D01*
X117618047Y-52617714D02*
X117618047Y-53474857D01*
X117570428Y-53570095D01*
X117475190Y-53617714D01*
X117427571Y-53617714D01*
X117618047Y-52284380D02*
X117570428Y-52332000D01*
X117618047Y-52379619D01*
X117665666Y-52332000D01*
X117618047Y-52284380D01*
X117618047Y-52379619D01*
X118475190Y-53236761D02*
X118379952Y-53284380D01*
X118189476Y-53284380D01*
X118094238Y-53236761D01*
X118046619Y-53141523D01*
X118046619Y-52760571D01*
X118094238Y-52665333D01*
X118189476Y-52617714D01*
X118379952Y-52617714D01*
X118475190Y-52665333D01*
X118522809Y-52760571D01*
X118522809Y-52855809D01*
X118046619Y-52951047D01*
X118808523Y-52617714D02*
X119189476Y-52617714D01*
X118951380Y-52284380D02*
X118951380Y-53141523D01*
X118999000Y-53236761D01*
X119094238Y-53284380D01*
X119189476Y-53284380D01*
X119951380Y-53284380D02*
X119951380Y-52760571D01*
X119903761Y-52665333D01*
X119808523Y-52617714D01*
X119618047Y-52617714D01*
X119522809Y-52665333D01*
X119951380Y-53236761D02*
X119856142Y-53284380D01*
X119618047Y-53284380D01*
X119522809Y-53236761D01*
X119475190Y-53141523D01*
X119475190Y-53046285D01*
X119522809Y-52951047D01*
X119618047Y-52903428D01*
X119856142Y-52903428D01*
X119951380Y-52855809D01*
X121141857Y-53236761D02*
X121284714Y-53284380D01*
X121522809Y-53284380D01*
X121618047Y-53236761D01*
X121665666Y-53189142D01*
X121713285Y-53093904D01*
X121713285Y-52998666D01*
X121665666Y-52903428D01*
X121618047Y-52855809D01*
X121522809Y-52808190D01*
X121332333Y-52760571D01*
X121237095Y-52712952D01*
X121189476Y-52665333D01*
X121141857Y-52570095D01*
X121141857Y-52474857D01*
X121189476Y-52379619D01*
X121237095Y-52332000D01*
X121332333Y-52284380D01*
X121570428Y-52284380D01*
X121713285Y-52332000D01*
X122141857Y-53284380D02*
X122141857Y-52284380D01*
X122379952Y-52284380D01*
X122522809Y-52332000D01*
X122618047Y-52427238D01*
X122665666Y-52522476D01*
X122713285Y-52712952D01*
X122713285Y-52855809D01*
X122665666Y-53046285D01*
X122618047Y-53141523D01*
X122522809Y-53236761D01*
X122379952Y-53284380D01*
X122141857Y-53284380D01*
X68913619Y-92464000D02*
X68818380Y-92416380D01*
X68675523Y-92416380D01*
X68532666Y-92464000D01*
X68437428Y-92559238D01*
X68389809Y-92654476D01*
X68342190Y-92844952D01*
X68342190Y-92987809D01*
X68389809Y-93178285D01*
X68437428Y-93273523D01*
X68532666Y-93368761D01*
X68675523Y-93416380D01*
X68770761Y-93416380D01*
X68913619Y-93368761D01*
X68961238Y-93321142D01*
X68961238Y-92987809D01*
X68770761Y-92987809D01*
X69389809Y-93416380D02*
X69389809Y-92416380D01*
X69770761Y-92416380D01*
X69866000Y-92464000D01*
X69913619Y-92511619D01*
X69961238Y-92606857D01*
X69961238Y-92749714D01*
X69913619Y-92844952D01*
X69866000Y-92892571D01*
X69770761Y-92940190D01*
X69389809Y-92940190D01*
X70389809Y-93416380D02*
X70389809Y-92416380D01*
X71056476Y-92416380D02*
X71246952Y-92416380D01*
X71342190Y-92464000D01*
X71437428Y-92559238D01*
X71485047Y-92749714D01*
X71485047Y-93083047D01*
X71437428Y-93273523D01*
X71342190Y-93368761D01*
X71246952Y-93416380D01*
X71056476Y-93416380D01*
X70961238Y-93368761D01*
X70866000Y-93273523D01*
X70818380Y-93083047D01*
X70818380Y-92749714D01*
X70866000Y-92559238D01*
X70961238Y-92464000D01*
X71056476Y-92416380D01*
X72437428Y-93416380D02*
X71866000Y-93416380D01*
X72151714Y-93416380D02*
X72151714Y-92416380D01*
X72056476Y-92559238D01*
X71961238Y-92654476D01*
X71866000Y-92702095D01*
X73294571Y-92749714D02*
X73294571Y-93416380D01*
X73056476Y-92368761D02*
X72818380Y-93083047D01*
X73437428Y-93083047D01*
%TO.C,R1*%
X111704380Y-88939666D02*
X111228190Y-89273000D01*
X111704380Y-89511095D02*
X110704380Y-89511095D01*
X110704380Y-89130142D01*
X110752000Y-89034904D01*
X110799619Y-88987285D01*
X110894857Y-88939666D01*
X111037714Y-88939666D01*
X111132952Y-88987285D01*
X111180571Y-89034904D01*
X111228190Y-89130142D01*
X111228190Y-89511095D01*
X111704380Y-87987285D02*
X111704380Y-88558714D01*
X111704380Y-88273000D02*
X110704380Y-88273000D01*
X110847238Y-88368238D01*
X110942476Y-88463476D01*
X110990095Y-88558714D01*
%TO.C,J5*%
X57959666Y-96480380D02*
X57959666Y-97194666D01*
X57912047Y-97337523D01*
X57816809Y-97432761D01*
X57673952Y-97480380D01*
X57578714Y-97480380D01*
X58912047Y-96480380D02*
X58435857Y-96480380D01*
X58388238Y-96956571D01*
X58435857Y-96908952D01*
X58531095Y-96861333D01*
X58769190Y-96861333D01*
X58864428Y-96908952D01*
X58912047Y-96956571D01*
X58959666Y-97051809D01*
X58959666Y-97289904D01*
X58912047Y-97385142D01*
X58864428Y-97432761D01*
X58769190Y-97480380D01*
X58531095Y-97480380D01*
X58435857Y-97432761D01*
X58388238Y-97385142D01*
%TO.C,J4*%
X124126666Y-78475380D02*
X124126666Y-79189666D01*
X124079047Y-79332523D01*
X123983809Y-79427761D01*
X123840952Y-79475380D01*
X123745714Y-79475380D01*
X125031428Y-78808714D02*
X125031428Y-79475380D01*
X124793333Y-78427761D02*
X124555238Y-79142047D01*
X125174285Y-79142047D01*
%TO.C,J7*%
X124126666Y-52054380D02*
X124126666Y-52768666D01*
X124079047Y-52911523D01*
X123983809Y-53006761D01*
X123840952Y-53054380D01*
X123745714Y-53054380D01*
X124507619Y-52054380D02*
X125174285Y-52054380D01*
X124745714Y-53054380D01*
%TO.C,J6*%
X83994666Y-96226380D02*
X83994666Y-96940666D01*
X83947047Y-97083523D01*
X83851809Y-97178761D01*
X83708952Y-97226380D01*
X83613714Y-97226380D01*
X84899428Y-96226380D02*
X84708952Y-96226380D01*
X84613714Y-96274000D01*
X84566095Y-96321619D01*
X84470857Y-96464476D01*
X84423238Y-96654952D01*
X84423238Y-97035904D01*
X84470857Y-97131142D01*
X84518476Y-97178761D01*
X84613714Y-97226380D01*
X84804190Y-97226380D01*
X84899428Y-97178761D01*
X84947047Y-97131142D01*
X84994666Y-97035904D01*
X84994666Y-96797809D01*
X84947047Y-96702571D01*
X84899428Y-96654952D01*
X84804190Y-96607333D01*
X84613714Y-96607333D01*
X84518476Y-96654952D01*
X84470857Y-96702571D01*
X84423238Y-96797809D01*
%TO.C,J8*%
X70405666Y-61765380D02*
X70405666Y-62479666D01*
X70358047Y-62622523D01*
X70262809Y-62717761D01*
X70119952Y-62765380D01*
X70024714Y-62765380D01*
X71024714Y-62193952D02*
X70929476Y-62146333D01*
X70881857Y-62098714D01*
X70834238Y-62003476D01*
X70834238Y-61955857D01*
X70881857Y-61860619D01*
X70929476Y-61813000D01*
X71024714Y-61765380D01*
X71215190Y-61765380D01*
X71310428Y-61813000D01*
X71358047Y-61860619D01*
X71405666Y-61955857D01*
X71405666Y-62003476D01*
X71358047Y-62098714D01*
X71310428Y-62146333D01*
X71215190Y-62193952D01*
X71024714Y-62193952D01*
X70929476Y-62241571D01*
X70881857Y-62289190D01*
X70834238Y-62384428D01*
X70834238Y-62574904D01*
X70881857Y-62670142D01*
X70929476Y-62717761D01*
X71024714Y-62765380D01*
X71215190Y-62765380D01*
X71310428Y-62717761D01*
X71358047Y-62670142D01*
X71405666Y-62574904D01*
X71405666Y-62384428D01*
X71358047Y-62289190D01*
X71310428Y-62241571D01*
X71215190Y-62193952D01*
%TO.C,U1*%
X93218095Y-43488940D02*
X93218095Y-44298464D01*
X93265714Y-44393702D01*
X93313333Y-44441321D01*
X93408571Y-44488940D01*
X93599047Y-44488940D01*
X93694285Y-44441321D01*
X93741904Y-44393702D01*
X93789523Y-44298464D01*
X93789523Y-43488940D01*
X94789523Y-44488940D02*
X94218095Y-44488940D01*
X94503809Y-44488940D02*
X94503809Y-43488940D01*
X94408571Y-43631798D01*
X94313333Y-43727036D01*
X94218095Y-43774655D01*
X93908571Y-75861798D02*
X93908571Y-75528464D01*
X94432380Y-75385607D02*
X94432380Y-75861798D01*
X93432380Y-75861798D01*
X93432380Y-75385607D01*
X94384761Y-75004655D02*
X94432380Y-74861798D01*
X94432380Y-74623702D01*
X94384761Y-74528464D01*
X94337142Y-74480845D01*
X94241904Y-74433226D01*
X94146666Y-74433226D01*
X94051428Y-74480845D01*
X94003809Y-74528464D01*
X93956190Y-74623702D01*
X93908571Y-74814179D01*
X93860952Y-74909417D01*
X93813333Y-74957036D01*
X93718095Y-75004655D01*
X93622857Y-75004655D01*
X93527619Y-74957036D01*
X93480000Y-74909417D01*
X93432380Y-74814179D01*
X93432380Y-74576083D01*
X93480000Y-74433226D01*
X94432380Y-74004655D02*
X93432380Y-74004655D01*
X93432380Y-73623702D01*
X93480000Y-73528464D01*
X93527619Y-73480845D01*
X93622857Y-73433226D01*
X93765714Y-73433226D01*
X93860952Y-73480845D01*
X93908571Y-73528464D01*
X93956190Y-73623702D01*
X93956190Y-74004655D01*
X93432380Y-73099893D02*
X93432380Y-72480845D01*
X93813333Y-72814179D01*
X93813333Y-72671321D01*
X93860952Y-72576083D01*
X93908571Y-72528464D01*
X94003809Y-72480845D01*
X94241904Y-72480845D01*
X94337142Y-72528464D01*
X94384761Y-72576083D01*
X94432380Y-72671321D01*
X94432380Y-72957036D01*
X94384761Y-73052274D01*
X94337142Y-73099893D01*
X93527619Y-72099893D02*
X93480000Y-72052274D01*
X93432380Y-71957036D01*
X93432380Y-71718940D01*
X93480000Y-71623702D01*
X93527619Y-71576083D01*
X93622857Y-71528464D01*
X93718095Y-71528464D01*
X93860952Y-71576083D01*
X94432380Y-72147512D01*
X94432380Y-71528464D01*
X94051428Y-71099893D02*
X94051428Y-70337988D01*
X94432380Y-69861798D02*
X93432380Y-69861798D01*
X93432380Y-69623702D01*
X93480000Y-69480845D01*
X93575238Y-69385607D01*
X93670476Y-69337988D01*
X93860952Y-69290369D01*
X94003809Y-69290369D01*
X94194285Y-69337988D01*
X94289523Y-69385607D01*
X94384761Y-69480845D01*
X94432380Y-69623702D01*
X94432380Y-69861798D01*
X94384761Y-68480845D02*
X94432380Y-68576083D01*
X94432380Y-68766560D01*
X94384761Y-68861798D01*
X94289523Y-68909417D01*
X93908571Y-68909417D01*
X93813333Y-68861798D01*
X93765714Y-68766560D01*
X93765714Y-68576083D01*
X93813333Y-68480845D01*
X93908571Y-68433226D01*
X94003809Y-68433226D01*
X94099047Y-68909417D01*
X93765714Y-68099893D02*
X94432380Y-67861798D01*
X93765714Y-67623702D01*
X94432380Y-67242750D02*
X93432380Y-67242750D01*
X94432380Y-66671321D02*
X93860952Y-67099893D01*
X93432380Y-66671321D02*
X94003809Y-67242750D01*
X94432380Y-66242750D02*
X93765714Y-66242750D01*
X93432380Y-66242750D02*
X93480000Y-66290369D01*
X93527619Y-66242750D01*
X93480000Y-66195131D01*
X93432380Y-66242750D01*
X93527619Y-66242750D01*
X93765714Y-65909417D02*
X93765714Y-65528464D01*
X93432380Y-65766560D02*
X94289523Y-65766560D01*
X94384761Y-65718940D01*
X94432380Y-65623702D01*
X94432380Y-65528464D01*
X94337142Y-64623702D02*
X94384761Y-64671321D01*
X94432380Y-64814179D01*
X94432380Y-64909417D01*
X94384761Y-65052274D01*
X94289523Y-65147512D01*
X94194285Y-65195131D01*
X94003809Y-65242750D01*
X93860952Y-65242750D01*
X93670476Y-65195131D01*
X93575238Y-65147512D01*
X93480000Y-65052274D01*
X93432380Y-64909417D01*
X93432380Y-64814179D01*
X93480000Y-64671321D01*
X93527619Y-64623702D01*
X102712500Y-76266560D02*
X102645833Y-76233226D01*
X102545833Y-76233226D01*
X102445833Y-76266560D01*
X102379166Y-76333226D01*
X102345833Y-76399893D01*
X102312500Y-76533226D01*
X102312500Y-76633226D01*
X102345833Y-76766560D01*
X102379166Y-76833226D01*
X102445833Y-76899893D01*
X102545833Y-76933226D01*
X102612500Y-76933226D01*
X102712500Y-76899893D01*
X102745833Y-76866560D01*
X102745833Y-76633226D01*
X102612500Y-76633226D01*
X103045833Y-76933226D02*
X103045833Y-76233226D01*
X103312500Y-76233226D01*
X103379166Y-76266560D01*
X103412500Y-76299893D01*
X103445833Y-76366560D01*
X103445833Y-76466560D01*
X103412500Y-76533226D01*
X103379166Y-76566560D01*
X103312500Y-76599893D01*
X103045833Y-76599893D01*
X103745833Y-76933226D02*
X103745833Y-76233226D01*
X104212500Y-76233226D02*
X104345833Y-76233226D01*
X104412500Y-76266560D01*
X104479166Y-76333226D01*
X104512500Y-76466560D01*
X104512500Y-76699893D01*
X104479166Y-76833226D01*
X104412500Y-76899893D01*
X104345833Y-76933226D01*
X104212500Y-76933226D01*
X104145833Y-76899893D01*
X104079166Y-76833226D01*
X104045833Y-76699893D01*
X104045833Y-76466560D01*
X104079166Y-76333226D01*
X104145833Y-76266560D01*
X104212500Y-76233226D01*
X105112500Y-76466560D02*
X105112500Y-76933226D01*
X104945833Y-76199893D02*
X104779166Y-76699893D01*
X105212500Y-76699893D01*
X83409404Y-78656560D02*
X83314166Y-78608940D01*
X83171309Y-78608940D01*
X83028452Y-78656560D01*
X82933214Y-78751798D01*
X82885595Y-78847036D01*
X82837976Y-79037512D01*
X82837976Y-79180369D01*
X82885595Y-79370845D01*
X82933214Y-79466083D01*
X83028452Y-79561321D01*
X83171309Y-79608940D01*
X83266547Y-79608940D01*
X83409404Y-79561321D01*
X83457023Y-79513702D01*
X83457023Y-79180369D01*
X83266547Y-79180369D01*
X83885595Y-79608940D02*
X83885595Y-78608940D01*
X84457023Y-79608940D01*
X84457023Y-78608940D01*
X84933214Y-79608940D02*
X84933214Y-78608940D01*
X85171309Y-78608940D01*
X85314166Y-78656560D01*
X85409404Y-78751798D01*
X85457023Y-78847036D01*
X85504642Y-79037512D01*
X85504642Y-79180369D01*
X85457023Y-79370845D01*
X85409404Y-79466083D01*
X85314166Y-79561321D01*
X85171309Y-79608940D01*
X84933214Y-79608940D01*
X82790357Y-45588940D02*
X83409404Y-45588940D01*
X83076071Y-45969893D01*
X83218928Y-45969893D01*
X83314166Y-46017512D01*
X83361785Y-46065131D01*
X83409404Y-46160369D01*
X83409404Y-46398464D01*
X83361785Y-46493702D01*
X83314166Y-46541321D01*
X83218928Y-46588940D01*
X82933214Y-46588940D01*
X82837976Y-46541321D01*
X82790357Y-46493702D01*
X83695119Y-45588940D02*
X84028452Y-46588940D01*
X84361785Y-45588940D01*
X84599880Y-45588940D02*
X85218928Y-45588940D01*
X84885595Y-45969893D01*
X85028452Y-45969893D01*
X85123690Y-46017512D01*
X85171309Y-46065131D01*
X85218928Y-46160369D01*
X85218928Y-46398464D01*
X85171309Y-46493702D01*
X85123690Y-46541321D01*
X85028452Y-46588940D01*
X84742738Y-46588940D01*
X84647500Y-46541321D01*
X84599880Y-46493702D01*
X83180833Y-61026560D02*
X83114166Y-60993226D01*
X83014166Y-60993226D01*
X82914166Y-61026560D01*
X82847500Y-61093226D01*
X82814166Y-61159893D01*
X82780833Y-61293226D01*
X82780833Y-61393226D01*
X82814166Y-61526560D01*
X82847500Y-61593226D01*
X82914166Y-61659893D01*
X83014166Y-61693226D01*
X83080833Y-61693226D01*
X83180833Y-61659893D01*
X83214166Y-61626560D01*
X83214166Y-61393226D01*
X83080833Y-61393226D01*
X83514166Y-61693226D02*
X83514166Y-60993226D01*
X83780833Y-60993226D01*
X83847500Y-61026560D01*
X83880833Y-61059893D01*
X83914166Y-61126560D01*
X83914166Y-61226560D01*
X83880833Y-61293226D01*
X83847500Y-61326560D01*
X83780833Y-61359893D01*
X83514166Y-61359893D01*
X84214166Y-61693226D02*
X84214166Y-60993226D01*
X84680833Y-60993226D02*
X84814166Y-60993226D01*
X84880833Y-61026560D01*
X84947500Y-61093226D01*
X84980833Y-61226560D01*
X84980833Y-61459893D01*
X84947500Y-61593226D01*
X84880833Y-61659893D01*
X84814166Y-61693226D01*
X84680833Y-61693226D01*
X84614166Y-61659893D01*
X84547500Y-61593226D01*
X84514166Y-61459893D01*
X84514166Y-61226560D01*
X84547500Y-61093226D01*
X84614166Y-61026560D01*
X84680833Y-60993226D01*
X85214166Y-60993226D02*
X85647500Y-60993226D01*
X85414166Y-61259893D01*
X85514166Y-61259893D01*
X85580833Y-61293226D01*
X85614166Y-61326560D01*
X85647500Y-61393226D01*
X85647500Y-61559893D01*
X85614166Y-61626560D01*
X85580833Y-61659893D01*
X85514166Y-61693226D01*
X85314166Y-61693226D01*
X85247500Y-61659893D01*
X85214166Y-61626560D01*
X85914166Y-61059893D02*
X85947500Y-61026560D01*
X86014166Y-60993226D01*
X86180833Y-60993226D01*
X86247500Y-61026560D01*
X86280833Y-61059893D01*
X86314166Y-61126560D01*
X86314166Y-61193226D01*
X86280833Y-61293226D01*
X85880833Y-61693226D01*
X86314166Y-61693226D01*
X102712500Y-81346560D02*
X102645833Y-81313226D01*
X102545833Y-81313226D01*
X102445833Y-81346560D01*
X102379166Y-81413226D01*
X102345833Y-81479893D01*
X102312500Y-81613226D01*
X102312500Y-81713226D01*
X102345833Y-81846560D01*
X102379166Y-81913226D01*
X102445833Y-81979893D01*
X102545833Y-82013226D01*
X102612500Y-82013226D01*
X102712500Y-81979893D01*
X102745833Y-81946560D01*
X102745833Y-81713226D01*
X102612500Y-81713226D01*
X103045833Y-82013226D02*
X103045833Y-81313226D01*
X103312500Y-81313226D01*
X103379166Y-81346560D01*
X103412500Y-81379893D01*
X103445833Y-81446560D01*
X103445833Y-81546560D01*
X103412500Y-81613226D01*
X103379166Y-81646560D01*
X103312500Y-81679893D01*
X103045833Y-81679893D01*
X103745833Y-82013226D02*
X103745833Y-81313226D01*
X104212500Y-81313226D02*
X104345833Y-81313226D01*
X104412500Y-81346560D01*
X104479166Y-81413226D01*
X104512500Y-81546560D01*
X104512500Y-81779893D01*
X104479166Y-81913226D01*
X104412500Y-81979893D01*
X104345833Y-82013226D01*
X104212500Y-82013226D01*
X104145833Y-81979893D01*
X104079166Y-81913226D01*
X104045833Y-81779893D01*
X104045833Y-81546560D01*
X104079166Y-81413226D01*
X104145833Y-81346560D01*
X104212500Y-81313226D01*
X104779166Y-81379893D02*
X104812500Y-81346560D01*
X104879166Y-81313226D01*
X105045833Y-81313226D01*
X105112500Y-81346560D01*
X105145833Y-81379893D01*
X105179166Y-81446560D01*
X105179166Y-81513226D01*
X105145833Y-81613226D01*
X104745833Y-82013226D01*
X105179166Y-82013226D01*
X83180833Y-76266560D02*
X83114166Y-76233226D01*
X83014166Y-76233226D01*
X82914166Y-76266560D01*
X82847500Y-76333226D01*
X82814166Y-76399893D01*
X82780833Y-76533226D01*
X82780833Y-76633226D01*
X82814166Y-76766560D01*
X82847500Y-76833226D01*
X82914166Y-76899893D01*
X83014166Y-76933226D01*
X83080833Y-76933226D01*
X83180833Y-76899893D01*
X83214166Y-76866560D01*
X83214166Y-76633226D01*
X83080833Y-76633226D01*
X83514166Y-76933226D02*
X83514166Y-76233226D01*
X83780833Y-76233226D01*
X83847500Y-76266560D01*
X83880833Y-76299893D01*
X83914166Y-76366560D01*
X83914166Y-76466560D01*
X83880833Y-76533226D01*
X83847500Y-76566560D01*
X83780833Y-76599893D01*
X83514166Y-76599893D01*
X84214166Y-76933226D02*
X84214166Y-76233226D01*
X84680833Y-76233226D02*
X84814166Y-76233226D01*
X84880833Y-76266560D01*
X84947500Y-76333226D01*
X84980833Y-76466560D01*
X84980833Y-76699893D01*
X84947500Y-76833226D01*
X84880833Y-76899893D01*
X84814166Y-76933226D01*
X84680833Y-76933226D01*
X84614166Y-76899893D01*
X84547500Y-76833226D01*
X84514166Y-76699893D01*
X84514166Y-76466560D01*
X84547500Y-76333226D01*
X84614166Y-76266560D01*
X84680833Y-76233226D01*
X85647500Y-76933226D02*
X85247500Y-76933226D01*
X85447500Y-76933226D02*
X85447500Y-76233226D01*
X85380833Y-76333226D01*
X85314166Y-76399893D01*
X85247500Y-76433226D01*
X85914166Y-76299893D02*
X85947500Y-76266560D01*
X86014166Y-76233226D01*
X86180833Y-76233226D01*
X86247500Y-76266560D01*
X86280833Y-76299893D01*
X86314166Y-76366560D01*
X86314166Y-76433226D01*
X86280833Y-76533226D01*
X85880833Y-76933226D01*
X86314166Y-76933226D01*
X87114166Y-76199893D02*
X86514166Y-77099893D01*
X87347500Y-76933226D02*
X87347500Y-76233226D01*
X87580833Y-76733226D01*
X87814166Y-76233226D01*
X87814166Y-76933226D01*
X88047500Y-76233226D02*
X88447500Y-76233226D01*
X88247500Y-76933226D02*
X88247500Y-76233226D01*
X88680833Y-76933226D02*
X88680833Y-76233226D01*
X88847500Y-76233226D01*
X88947500Y-76266560D01*
X89014166Y-76333226D01*
X89047500Y-76399893D01*
X89080833Y-76533226D01*
X89080833Y-76633226D01*
X89047500Y-76766560D01*
X89014166Y-76833226D01*
X88947500Y-76899893D01*
X88847500Y-76933226D01*
X88680833Y-76933226D01*
X89380833Y-76933226D02*
X89380833Y-76233226D01*
X98679166Y-53406560D02*
X98612500Y-53373226D01*
X98512500Y-53373226D01*
X98412500Y-53406560D01*
X98345833Y-53473226D01*
X98312500Y-53539893D01*
X98279166Y-53673226D01*
X98279166Y-53773226D01*
X98312500Y-53906560D01*
X98345833Y-53973226D01*
X98412500Y-54039893D01*
X98512500Y-54073226D01*
X98579166Y-54073226D01*
X98679166Y-54039893D01*
X98712500Y-54006560D01*
X98712500Y-53773226D01*
X98579166Y-53773226D01*
X99012500Y-54073226D02*
X99012500Y-53373226D01*
X99279166Y-53373226D01*
X99345833Y-53406560D01*
X99379166Y-53439893D01*
X99412500Y-53506560D01*
X99412500Y-53606560D01*
X99379166Y-53673226D01*
X99345833Y-53706560D01*
X99279166Y-53739893D01*
X99012500Y-53739893D01*
X99712500Y-54073226D02*
X99712500Y-53373226D01*
X100179166Y-53373226D02*
X100312500Y-53373226D01*
X100379166Y-53406560D01*
X100445833Y-53473226D01*
X100479166Y-53606560D01*
X100479166Y-53839893D01*
X100445833Y-53973226D01*
X100379166Y-54039893D01*
X100312500Y-54073226D01*
X100179166Y-54073226D01*
X100112500Y-54039893D01*
X100045833Y-53973226D01*
X100012500Y-53839893D01*
X100012500Y-53606560D01*
X100045833Y-53473226D01*
X100112500Y-53406560D01*
X100179166Y-53373226D01*
X101145833Y-54073226D02*
X100745833Y-54073226D01*
X100945833Y-54073226D02*
X100945833Y-53373226D01*
X100879166Y-53473226D01*
X100812500Y-53539893D01*
X100745833Y-53573226D01*
X101945833Y-53339893D02*
X101345833Y-54239893D01*
X102179166Y-53373226D02*
X102179166Y-53939893D01*
X102212500Y-54006560D01*
X102245833Y-54039893D01*
X102312500Y-54073226D01*
X102445833Y-54073226D01*
X102512500Y-54039893D01*
X102545833Y-54006560D01*
X102579166Y-53939893D01*
X102579166Y-53373226D01*
X103045833Y-53373226D02*
X103112500Y-53373226D01*
X103179166Y-53406560D01*
X103212500Y-53439893D01*
X103245833Y-53506560D01*
X103279166Y-53639893D01*
X103279166Y-53806560D01*
X103245833Y-53939893D01*
X103212500Y-54006560D01*
X103179166Y-54039893D01*
X103112500Y-54073226D01*
X103045833Y-54073226D01*
X102979166Y-54039893D01*
X102945833Y-54006560D01*
X102912500Y-53939893D01*
X102879166Y-53806560D01*
X102879166Y-53639893D01*
X102912500Y-53506560D01*
X102945833Y-53439893D01*
X102979166Y-53406560D01*
X103045833Y-53373226D01*
X103479166Y-53373226D02*
X103879166Y-53373226D01*
X103679166Y-54073226D02*
X103679166Y-53373226D01*
X104045833Y-53373226D02*
X104512500Y-54073226D01*
X104512500Y-53373226D02*
X104045833Y-54073226D01*
X104779166Y-54073226D02*
X104779166Y-53373226D01*
X104945833Y-53373226D01*
X105045833Y-53406560D01*
X105112500Y-53473226D01*
X105145833Y-53539893D01*
X105179166Y-53673226D01*
X105179166Y-53773226D01*
X105145833Y-53906560D01*
X105112500Y-53973226D01*
X105045833Y-54039893D01*
X104945833Y-54073226D01*
X104779166Y-54073226D01*
X83180833Y-55946560D02*
X83114166Y-55913226D01*
X83014166Y-55913226D01*
X82914166Y-55946560D01*
X82847500Y-56013226D01*
X82814166Y-56079893D01*
X82780833Y-56213226D01*
X82780833Y-56313226D01*
X82814166Y-56446560D01*
X82847500Y-56513226D01*
X82914166Y-56579893D01*
X83014166Y-56613226D01*
X83080833Y-56613226D01*
X83180833Y-56579893D01*
X83214166Y-56546560D01*
X83214166Y-56313226D01*
X83080833Y-56313226D01*
X83514166Y-56613226D02*
X83514166Y-55913226D01*
X83780833Y-55913226D01*
X83847500Y-55946560D01*
X83880833Y-55979893D01*
X83914166Y-56046560D01*
X83914166Y-56146560D01*
X83880833Y-56213226D01*
X83847500Y-56246560D01*
X83780833Y-56279893D01*
X83514166Y-56279893D01*
X84214166Y-56613226D02*
X84214166Y-55913226D01*
X84680833Y-55913226D02*
X84814166Y-55913226D01*
X84880833Y-55946560D01*
X84947500Y-56013226D01*
X84980833Y-56146560D01*
X84980833Y-56379893D01*
X84947500Y-56513226D01*
X84880833Y-56579893D01*
X84814166Y-56613226D01*
X84680833Y-56613226D01*
X84614166Y-56579893D01*
X84547500Y-56513226D01*
X84514166Y-56379893D01*
X84514166Y-56146560D01*
X84547500Y-56013226D01*
X84614166Y-55946560D01*
X84680833Y-55913226D01*
X85214166Y-55913226D02*
X85647500Y-55913226D01*
X85414166Y-56179893D01*
X85514166Y-56179893D01*
X85580833Y-56213226D01*
X85614166Y-56246560D01*
X85647500Y-56313226D01*
X85647500Y-56479893D01*
X85614166Y-56546560D01*
X85580833Y-56579893D01*
X85514166Y-56613226D01*
X85314166Y-56613226D01*
X85247500Y-56579893D01*
X85214166Y-56546560D01*
X86247500Y-56146560D02*
X86247500Y-56613226D01*
X86080833Y-55879893D02*
X85914166Y-56379893D01*
X86347500Y-56379893D01*
X102045833Y-71186560D02*
X101979166Y-71153226D01*
X101879166Y-71153226D01*
X101779166Y-71186560D01*
X101712500Y-71253226D01*
X101679166Y-71319893D01*
X101645833Y-71453226D01*
X101645833Y-71553226D01*
X101679166Y-71686560D01*
X101712500Y-71753226D01*
X101779166Y-71819893D01*
X101879166Y-71853226D01*
X101945833Y-71853226D01*
X102045833Y-71819893D01*
X102079166Y-71786560D01*
X102079166Y-71553226D01*
X101945833Y-71553226D01*
X102379166Y-71853226D02*
X102379166Y-71153226D01*
X102645833Y-71153226D01*
X102712500Y-71186560D01*
X102745833Y-71219893D01*
X102779166Y-71286560D01*
X102779166Y-71386560D01*
X102745833Y-71453226D01*
X102712500Y-71486560D01*
X102645833Y-71519893D01*
X102379166Y-71519893D01*
X103079166Y-71853226D02*
X103079166Y-71153226D01*
X103545833Y-71153226D02*
X103679166Y-71153226D01*
X103745833Y-71186560D01*
X103812500Y-71253226D01*
X103845833Y-71386560D01*
X103845833Y-71619893D01*
X103812500Y-71753226D01*
X103745833Y-71819893D01*
X103679166Y-71853226D01*
X103545833Y-71853226D01*
X103479166Y-71819893D01*
X103412500Y-71753226D01*
X103379166Y-71619893D01*
X103379166Y-71386560D01*
X103412500Y-71253226D01*
X103479166Y-71186560D01*
X103545833Y-71153226D01*
X104512500Y-71853226D02*
X104112500Y-71853226D01*
X104312500Y-71853226D02*
X104312500Y-71153226D01*
X104245833Y-71253226D01*
X104179166Y-71319893D01*
X104112500Y-71353226D01*
X104745833Y-71153226D02*
X105212500Y-71153226D01*
X104912500Y-71853226D01*
X103912500Y-92106560D02*
X103879166Y-92139893D01*
X103779166Y-92173226D01*
X103712500Y-92173226D01*
X103612500Y-92139893D01*
X103545833Y-92073226D01*
X103512500Y-92006560D01*
X103479166Y-91873226D01*
X103479166Y-91773226D01*
X103512500Y-91639893D01*
X103545833Y-91573226D01*
X103612500Y-91506560D01*
X103712500Y-91473226D01*
X103779166Y-91473226D01*
X103879166Y-91506560D01*
X103912500Y-91539893D01*
X104545833Y-92173226D02*
X104212500Y-92173226D01*
X104212500Y-91473226D01*
X104779166Y-92173226D02*
X104779166Y-91473226D01*
X105179166Y-92173226D02*
X104879166Y-91773226D01*
X105179166Y-91473226D02*
X104779166Y-91873226D01*
X83180833Y-68646560D02*
X83114166Y-68613226D01*
X83014166Y-68613226D01*
X82914166Y-68646560D01*
X82847500Y-68713226D01*
X82814166Y-68779893D01*
X82780833Y-68913226D01*
X82780833Y-69013226D01*
X82814166Y-69146560D01*
X82847500Y-69213226D01*
X82914166Y-69279893D01*
X83014166Y-69313226D01*
X83080833Y-69313226D01*
X83180833Y-69279893D01*
X83214166Y-69246560D01*
X83214166Y-69013226D01*
X83080833Y-69013226D01*
X83514166Y-69313226D02*
X83514166Y-68613226D01*
X83780833Y-68613226D01*
X83847500Y-68646560D01*
X83880833Y-68679893D01*
X83914166Y-68746560D01*
X83914166Y-68846560D01*
X83880833Y-68913226D01*
X83847500Y-68946560D01*
X83780833Y-68979893D01*
X83514166Y-68979893D01*
X84214166Y-69313226D02*
X84214166Y-68613226D01*
X84680833Y-68613226D02*
X84814166Y-68613226D01*
X84880833Y-68646560D01*
X84947500Y-68713226D01*
X84980833Y-68846560D01*
X84980833Y-69079893D01*
X84947500Y-69213226D01*
X84880833Y-69279893D01*
X84814166Y-69313226D01*
X84680833Y-69313226D01*
X84614166Y-69279893D01*
X84547500Y-69213226D01*
X84514166Y-69079893D01*
X84514166Y-68846560D01*
X84547500Y-68713226D01*
X84614166Y-68646560D01*
X84680833Y-68613226D01*
X85247500Y-68679893D02*
X85280833Y-68646560D01*
X85347500Y-68613226D01*
X85514166Y-68613226D01*
X85580833Y-68646560D01*
X85614166Y-68679893D01*
X85647500Y-68746560D01*
X85647500Y-68813226D01*
X85614166Y-68913226D01*
X85214166Y-69313226D01*
X85647500Y-69313226D01*
X86247500Y-68613226D02*
X86114166Y-68613226D01*
X86047500Y-68646560D01*
X86014166Y-68679893D01*
X85947500Y-68779893D01*
X85914166Y-68913226D01*
X85914166Y-69179893D01*
X85947500Y-69246560D01*
X85980833Y-69279893D01*
X86047500Y-69313226D01*
X86180833Y-69313226D01*
X86247500Y-69279893D01*
X86280833Y-69246560D01*
X86314166Y-69179893D01*
X86314166Y-69013226D01*
X86280833Y-68946560D01*
X86247500Y-68913226D01*
X86180833Y-68879893D01*
X86047500Y-68879893D01*
X85980833Y-68913226D01*
X85947500Y-68946560D01*
X85914166Y-69013226D01*
X102712500Y-78806560D02*
X102645833Y-78773226D01*
X102545833Y-78773226D01*
X102445833Y-78806560D01*
X102379166Y-78873226D01*
X102345833Y-78939893D01*
X102312500Y-79073226D01*
X102312500Y-79173226D01*
X102345833Y-79306560D01*
X102379166Y-79373226D01*
X102445833Y-79439893D01*
X102545833Y-79473226D01*
X102612500Y-79473226D01*
X102712500Y-79439893D01*
X102745833Y-79406560D01*
X102745833Y-79173226D01*
X102612500Y-79173226D01*
X103045833Y-79473226D02*
X103045833Y-78773226D01*
X103312500Y-78773226D01*
X103379166Y-78806560D01*
X103412500Y-78839893D01*
X103445833Y-78906560D01*
X103445833Y-79006560D01*
X103412500Y-79073226D01*
X103379166Y-79106560D01*
X103312500Y-79139893D01*
X103045833Y-79139893D01*
X103745833Y-79473226D02*
X103745833Y-78773226D01*
X104212500Y-78773226D02*
X104345833Y-78773226D01*
X104412500Y-78806560D01*
X104479166Y-78873226D01*
X104512500Y-79006560D01*
X104512500Y-79239893D01*
X104479166Y-79373226D01*
X104412500Y-79439893D01*
X104345833Y-79473226D01*
X104212500Y-79473226D01*
X104145833Y-79439893D01*
X104079166Y-79373226D01*
X104045833Y-79239893D01*
X104045833Y-79006560D01*
X104079166Y-78873226D01*
X104145833Y-78806560D01*
X104212500Y-78773226D01*
X104945833Y-78773226D02*
X105012500Y-78773226D01*
X105079166Y-78806560D01*
X105112500Y-78839893D01*
X105145833Y-78906560D01*
X105179166Y-79039893D01*
X105179166Y-79206560D01*
X105145833Y-79339893D01*
X105112500Y-79406560D01*
X105079166Y-79439893D01*
X105012500Y-79473226D01*
X104945833Y-79473226D01*
X104879166Y-79439893D01*
X104845833Y-79406560D01*
X104812500Y-79339893D01*
X104779166Y-79206560D01*
X104779166Y-79039893D01*
X104812500Y-78906560D01*
X104845833Y-78839893D01*
X104879166Y-78806560D01*
X104945833Y-78773226D01*
X102045833Y-66106560D02*
X101979166Y-66073226D01*
X101879166Y-66073226D01*
X101779166Y-66106560D01*
X101712500Y-66173226D01*
X101679166Y-66239893D01*
X101645833Y-66373226D01*
X101645833Y-66473226D01*
X101679166Y-66606560D01*
X101712500Y-66673226D01*
X101779166Y-66739893D01*
X101879166Y-66773226D01*
X101945833Y-66773226D01*
X102045833Y-66739893D01*
X102079166Y-66706560D01*
X102079166Y-66473226D01*
X101945833Y-66473226D01*
X102379166Y-66773226D02*
X102379166Y-66073226D01*
X102645833Y-66073226D01*
X102712500Y-66106560D01*
X102745833Y-66139893D01*
X102779166Y-66206560D01*
X102779166Y-66306560D01*
X102745833Y-66373226D01*
X102712500Y-66406560D01*
X102645833Y-66439893D01*
X102379166Y-66439893D01*
X103079166Y-66773226D02*
X103079166Y-66073226D01*
X103545833Y-66073226D02*
X103679166Y-66073226D01*
X103745833Y-66106560D01*
X103812500Y-66173226D01*
X103845833Y-66306560D01*
X103845833Y-66539893D01*
X103812500Y-66673226D01*
X103745833Y-66739893D01*
X103679166Y-66773226D01*
X103545833Y-66773226D01*
X103479166Y-66739893D01*
X103412500Y-66673226D01*
X103379166Y-66539893D01*
X103379166Y-66306560D01*
X103412500Y-66173226D01*
X103479166Y-66106560D01*
X103545833Y-66073226D01*
X104512500Y-66773226D02*
X104112500Y-66773226D01*
X104312500Y-66773226D02*
X104312500Y-66073226D01*
X104245833Y-66173226D01*
X104179166Y-66239893D01*
X104112500Y-66273226D01*
X104912500Y-66373226D02*
X104845833Y-66339893D01*
X104812500Y-66306560D01*
X104779166Y-66239893D01*
X104779166Y-66206560D01*
X104812500Y-66139893D01*
X104845833Y-66106560D01*
X104912500Y-66073226D01*
X105045833Y-66073226D01*
X105112500Y-66106560D01*
X105145833Y-66139893D01*
X105179166Y-66206560D01*
X105179166Y-66239893D01*
X105145833Y-66306560D01*
X105112500Y-66339893D01*
X105045833Y-66373226D01*
X104912500Y-66373226D01*
X104845833Y-66406560D01*
X104812500Y-66439893D01*
X104779166Y-66506560D01*
X104779166Y-66639893D01*
X104812500Y-66706560D01*
X104845833Y-66739893D01*
X104912500Y-66773226D01*
X105045833Y-66773226D01*
X105112500Y-66739893D01*
X105145833Y-66706560D01*
X105179166Y-66639893D01*
X105179166Y-66506560D01*
X105145833Y-66439893D01*
X105112500Y-66406560D01*
X105045833Y-66373226D01*
X102045833Y-48326560D02*
X101979166Y-48293226D01*
X101879166Y-48293226D01*
X101779166Y-48326560D01*
X101712500Y-48393226D01*
X101679166Y-48459893D01*
X101645833Y-48593226D01*
X101645833Y-48693226D01*
X101679166Y-48826560D01*
X101712500Y-48893226D01*
X101779166Y-48959893D01*
X101879166Y-48993226D01*
X101945833Y-48993226D01*
X102045833Y-48959893D01*
X102079166Y-48926560D01*
X102079166Y-48693226D01*
X101945833Y-48693226D01*
X102379166Y-48993226D02*
X102379166Y-48293226D01*
X102645833Y-48293226D01*
X102712500Y-48326560D01*
X102745833Y-48359893D01*
X102779166Y-48426560D01*
X102779166Y-48526560D01*
X102745833Y-48593226D01*
X102712500Y-48626560D01*
X102645833Y-48659893D01*
X102379166Y-48659893D01*
X103079166Y-48993226D02*
X103079166Y-48293226D01*
X103545833Y-48293226D02*
X103679166Y-48293226D01*
X103745833Y-48326560D01*
X103812500Y-48393226D01*
X103845833Y-48526560D01*
X103845833Y-48759893D01*
X103812500Y-48893226D01*
X103745833Y-48959893D01*
X103679166Y-48993226D01*
X103545833Y-48993226D01*
X103479166Y-48959893D01*
X103412500Y-48893226D01*
X103379166Y-48759893D01*
X103379166Y-48526560D01*
X103412500Y-48393226D01*
X103479166Y-48326560D01*
X103545833Y-48293226D01*
X104112500Y-48359893D02*
X104145833Y-48326560D01*
X104212500Y-48293226D01*
X104379166Y-48293226D01*
X104445833Y-48326560D01*
X104479166Y-48359893D01*
X104512500Y-48426560D01*
X104512500Y-48493226D01*
X104479166Y-48593226D01*
X104079166Y-48993226D01*
X104512500Y-48993226D01*
X104745833Y-48293226D02*
X105179166Y-48293226D01*
X104945833Y-48559893D01*
X105045833Y-48559893D01*
X105112500Y-48593226D01*
X105145833Y-48626560D01*
X105179166Y-48693226D01*
X105179166Y-48859893D01*
X105145833Y-48926560D01*
X105112500Y-48959893D01*
X105045833Y-48993226D01*
X104845833Y-48993226D01*
X104779166Y-48959893D01*
X104745833Y-48926560D01*
X103026785Y-45636560D02*
X102931547Y-45588940D01*
X102788690Y-45588940D01*
X102645833Y-45636560D01*
X102550595Y-45731798D01*
X102502976Y-45827036D01*
X102455357Y-46017512D01*
X102455357Y-46160369D01*
X102502976Y-46350845D01*
X102550595Y-46446083D01*
X102645833Y-46541321D01*
X102788690Y-46588940D01*
X102883928Y-46588940D01*
X103026785Y-46541321D01*
X103074404Y-46493702D01*
X103074404Y-46160369D01*
X102883928Y-46160369D01*
X103502976Y-46588940D02*
X103502976Y-45588940D01*
X104074404Y-46588940D01*
X104074404Y-45588940D01*
X104550595Y-46588940D02*
X104550595Y-45588940D01*
X104788690Y-45588940D01*
X104931547Y-45636560D01*
X105026785Y-45731798D01*
X105074404Y-45827036D01*
X105122023Y-46017512D01*
X105122023Y-46160369D01*
X105074404Y-46350845D01*
X105026785Y-46446083D01*
X104931547Y-46541321D01*
X104788690Y-46588940D01*
X104550595Y-46588940D01*
X103026785Y-60876560D02*
X102931547Y-60828940D01*
X102788690Y-60828940D01*
X102645833Y-60876560D01*
X102550595Y-60971798D01*
X102502976Y-61067036D01*
X102455357Y-61257512D01*
X102455357Y-61400369D01*
X102502976Y-61590845D01*
X102550595Y-61686083D01*
X102645833Y-61781321D01*
X102788690Y-61828940D01*
X102883928Y-61828940D01*
X103026785Y-61781321D01*
X103074404Y-61733702D01*
X103074404Y-61400369D01*
X102883928Y-61400369D01*
X103502976Y-61828940D02*
X103502976Y-60828940D01*
X104074404Y-61828940D01*
X104074404Y-60828940D01*
X104550595Y-61828940D02*
X104550595Y-60828940D01*
X104788690Y-60828940D01*
X104931547Y-60876560D01*
X105026785Y-60971798D01*
X105074404Y-61067036D01*
X105122023Y-61257512D01*
X105122023Y-61400369D01*
X105074404Y-61590845D01*
X105026785Y-61686083D01*
X104931547Y-61781321D01*
X104788690Y-61828940D01*
X104550595Y-61828940D01*
X83214166Y-89566560D02*
X83180833Y-89599893D01*
X83080833Y-89633226D01*
X83014166Y-89633226D01*
X82914166Y-89599893D01*
X82847500Y-89533226D01*
X82814166Y-89466560D01*
X82780833Y-89333226D01*
X82780833Y-89233226D01*
X82814166Y-89099893D01*
X82847500Y-89033226D01*
X82914166Y-88966560D01*
X83014166Y-88933226D01*
X83080833Y-88933226D01*
X83180833Y-88966560D01*
X83214166Y-88999893D01*
X83514166Y-89633226D02*
X83514166Y-88933226D01*
X83747500Y-89433226D01*
X83980833Y-88933226D01*
X83980833Y-89633226D01*
X84314166Y-89633226D02*
X84314166Y-88933226D01*
X84480833Y-88933226D01*
X84580833Y-88966560D01*
X84647500Y-89033226D01*
X84680833Y-89099893D01*
X84714166Y-89233226D01*
X84714166Y-89333226D01*
X84680833Y-89466560D01*
X84647500Y-89533226D01*
X84580833Y-89599893D01*
X84480833Y-89633226D01*
X84314166Y-89633226D01*
X104112500Y-89633226D02*
X104112500Y-88933226D01*
X104279166Y-88933226D01*
X104379166Y-88966560D01*
X104445833Y-89033226D01*
X104479166Y-89099893D01*
X104512500Y-89233226D01*
X104512500Y-89333226D01*
X104479166Y-89466560D01*
X104445833Y-89533226D01*
X104379166Y-89599893D01*
X104279166Y-89633226D01*
X104112500Y-89633226D01*
X104945833Y-88933226D02*
X105012500Y-88933226D01*
X105079166Y-88966560D01*
X105112500Y-88999893D01*
X105145833Y-89066560D01*
X105179166Y-89199893D01*
X105179166Y-89366560D01*
X105145833Y-89499893D01*
X105112500Y-89566560D01*
X105079166Y-89599893D01*
X105012500Y-89633226D01*
X104945833Y-89633226D01*
X104879166Y-89599893D01*
X104845833Y-89566560D01*
X104812500Y-89499893D01*
X104779166Y-89366560D01*
X104779166Y-89199893D01*
X104812500Y-89066560D01*
X104845833Y-88999893D01*
X104879166Y-88966560D01*
X104945833Y-88933226D01*
X83180833Y-58486560D02*
X83114166Y-58453226D01*
X83014166Y-58453226D01*
X82914166Y-58486560D01*
X82847500Y-58553226D01*
X82814166Y-58619893D01*
X82780833Y-58753226D01*
X82780833Y-58853226D01*
X82814166Y-58986560D01*
X82847500Y-59053226D01*
X82914166Y-59119893D01*
X83014166Y-59153226D01*
X83080833Y-59153226D01*
X83180833Y-59119893D01*
X83214166Y-59086560D01*
X83214166Y-58853226D01*
X83080833Y-58853226D01*
X83514166Y-59153226D02*
X83514166Y-58453226D01*
X83780833Y-58453226D01*
X83847500Y-58486560D01*
X83880833Y-58519893D01*
X83914166Y-58586560D01*
X83914166Y-58686560D01*
X83880833Y-58753226D01*
X83847500Y-58786560D01*
X83780833Y-58819893D01*
X83514166Y-58819893D01*
X84214166Y-59153226D02*
X84214166Y-58453226D01*
X84680833Y-58453226D02*
X84814166Y-58453226D01*
X84880833Y-58486560D01*
X84947500Y-58553226D01*
X84980833Y-58686560D01*
X84980833Y-58919893D01*
X84947500Y-59053226D01*
X84880833Y-59119893D01*
X84814166Y-59153226D01*
X84680833Y-59153226D01*
X84614166Y-59119893D01*
X84547500Y-59053226D01*
X84514166Y-58919893D01*
X84514166Y-58686560D01*
X84547500Y-58553226D01*
X84614166Y-58486560D01*
X84680833Y-58453226D01*
X85214166Y-58453226D02*
X85647500Y-58453226D01*
X85414166Y-58719893D01*
X85514166Y-58719893D01*
X85580833Y-58753226D01*
X85614166Y-58786560D01*
X85647500Y-58853226D01*
X85647500Y-59019893D01*
X85614166Y-59086560D01*
X85580833Y-59119893D01*
X85514166Y-59153226D01*
X85314166Y-59153226D01*
X85247500Y-59119893D01*
X85214166Y-59086560D01*
X86280833Y-58453226D02*
X85947500Y-58453226D01*
X85914166Y-58786560D01*
X85947500Y-58753226D01*
X86014166Y-58719893D01*
X86180833Y-58719893D01*
X86247500Y-58753226D01*
X86280833Y-58786560D01*
X86314166Y-58853226D01*
X86314166Y-59019893D01*
X86280833Y-59086560D01*
X86247500Y-59119893D01*
X86180833Y-59153226D01*
X86014166Y-59153226D01*
X85947500Y-59119893D01*
X85914166Y-59086560D01*
X102712500Y-68646560D02*
X102645833Y-68613226D01*
X102545833Y-68613226D01*
X102445833Y-68646560D01*
X102379166Y-68713226D01*
X102345833Y-68779893D01*
X102312500Y-68913226D01*
X102312500Y-69013226D01*
X102345833Y-69146560D01*
X102379166Y-69213226D01*
X102445833Y-69279893D01*
X102545833Y-69313226D01*
X102612500Y-69313226D01*
X102712500Y-69279893D01*
X102745833Y-69246560D01*
X102745833Y-69013226D01*
X102612500Y-69013226D01*
X103045833Y-69313226D02*
X103045833Y-68613226D01*
X103312500Y-68613226D01*
X103379166Y-68646560D01*
X103412500Y-68679893D01*
X103445833Y-68746560D01*
X103445833Y-68846560D01*
X103412500Y-68913226D01*
X103379166Y-68946560D01*
X103312500Y-68979893D01*
X103045833Y-68979893D01*
X103745833Y-69313226D02*
X103745833Y-68613226D01*
X104212500Y-68613226D02*
X104345833Y-68613226D01*
X104412500Y-68646560D01*
X104479166Y-68713226D01*
X104512500Y-68846560D01*
X104512500Y-69079893D01*
X104479166Y-69213226D01*
X104412500Y-69279893D01*
X104345833Y-69313226D01*
X104212500Y-69313226D01*
X104145833Y-69279893D01*
X104079166Y-69213226D01*
X104045833Y-69079893D01*
X104045833Y-68846560D01*
X104079166Y-68713226D01*
X104145833Y-68646560D01*
X104212500Y-68613226D01*
X105145833Y-68613226D02*
X104812500Y-68613226D01*
X104779166Y-68946560D01*
X104812500Y-68913226D01*
X104879166Y-68879893D01*
X105045833Y-68879893D01*
X105112500Y-68913226D01*
X105145833Y-68946560D01*
X105179166Y-69013226D01*
X105179166Y-69179893D01*
X105145833Y-69246560D01*
X105112500Y-69279893D01*
X105045833Y-69313226D01*
X104879166Y-69313226D01*
X104812500Y-69279893D01*
X104779166Y-69246560D01*
X82814166Y-87093226D02*
X82814166Y-86393226D01*
X82980833Y-86393226D01*
X83080833Y-86426560D01*
X83147500Y-86493226D01*
X83180833Y-86559893D01*
X83214166Y-86693226D01*
X83214166Y-86793226D01*
X83180833Y-86926560D01*
X83147500Y-86993226D01*
X83080833Y-87059893D01*
X82980833Y-87093226D01*
X82814166Y-87093226D01*
X83447500Y-86393226D02*
X83880833Y-86393226D01*
X83647500Y-86659893D01*
X83747500Y-86659893D01*
X83814166Y-86693226D01*
X83847500Y-86726560D01*
X83880833Y-86793226D01*
X83880833Y-86959893D01*
X83847500Y-87026560D01*
X83814166Y-87059893D01*
X83747500Y-87093226D01*
X83547500Y-87093226D01*
X83480833Y-87059893D01*
X83447500Y-87026560D01*
X98545833Y-83886560D02*
X98479166Y-83853226D01*
X98379166Y-83853226D01*
X98279166Y-83886560D01*
X98212500Y-83953226D01*
X98179166Y-84019893D01*
X98145833Y-84153226D01*
X98145833Y-84253226D01*
X98179166Y-84386560D01*
X98212500Y-84453226D01*
X98279166Y-84519893D01*
X98379166Y-84553226D01*
X98445833Y-84553226D01*
X98545833Y-84519893D01*
X98579166Y-84486560D01*
X98579166Y-84253226D01*
X98445833Y-84253226D01*
X98879166Y-84553226D02*
X98879166Y-83853226D01*
X99145833Y-83853226D01*
X99212500Y-83886560D01*
X99245833Y-83919893D01*
X99279166Y-83986560D01*
X99279166Y-84086560D01*
X99245833Y-84153226D01*
X99212500Y-84186560D01*
X99145833Y-84219893D01*
X98879166Y-84219893D01*
X99579166Y-84553226D02*
X99579166Y-83853226D01*
X100045833Y-83853226D02*
X100179166Y-83853226D01*
X100245833Y-83886560D01*
X100312500Y-83953226D01*
X100345833Y-84086560D01*
X100345833Y-84319893D01*
X100312500Y-84453226D01*
X100245833Y-84519893D01*
X100179166Y-84553226D01*
X100045833Y-84553226D01*
X99979166Y-84519893D01*
X99912500Y-84453226D01*
X99879166Y-84319893D01*
X99879166Y-84086560D01*
X99912500Y-83953226D01*
X99979166Y-83886560D01*
X100045833Y-83853226D01*
X101012500Y-84553226D02*
X100612500Y-84553226D01*
X100812500Y-84553226D02*
X100812500Y-83853226D01*
X100745833Y-83953226D01*
X100679166Y-84019893D01*
X100612500Y-84053226D01*
X101645833Y-83853226D02*
X101312500Y-83853226D01*
X101279166Y-84186560D01*
X101312500Y-84153226D01*
X101379166Y-84119893D01*
X101545833Y-84119893D01*
X101612500Y-84153226D01*
X101645833Y-84186560D01*
X101679166Y-84253226D01*
X101679166Y-84419893D01*
X101645833Y-84486560D01*
X101612500Y-84519893D01*
X101545833Y-84553226D01*
X101379166Y-84553226D01*
X101312500Y-84519893D01*
X101279166Y-84486560D01*
X102479166Y-83819893D02*
X101879166Y-84719893D01*
X102712500Y-84553226D02*
X102712500Y-83853226D01*
X102945833Y-84353226D01*
X103179166Y-83853226D01*
X103179166Y-84553226D01*
X103412500Y-83853226D02*
X103812500Y-83853226D01*
X103612500Y-84553226D02*
X103612500Y-83853226D01*
X104045833Y-84553226D02*
X104045833Y-83853226D01*
X104212500Y-83853226D01*
X104312500Y-83886560D01*
X104379166Y-83953226D01*
X104412500Y-84019893D01*
X104445833Y-84153226D01*
X104445833Y-84253226D01*
X104412500Y-84386560D01*
X104379166Y-84453226D01*
X104312500Y-84519893D01*
X104212500Y-84553226D01*
X104045833Y-84553226D01*
X104879166Y-83853226D02*
X105012500Y-83853226D01*
X105079166Y-83886560D01*
X105145833Y-83953226D01*
X105179166Y-84086560D01*
X105179166Y-84319893D01*
X105145833Y-84453226D01*
X105079166Y-84519893D01*
X105012500Y-84553226D01*
X104879166Y-84553226D01*
X104812500Y-84519893D01*
X104745833Y-84453226D01*
X104712500Y-84319893D01*
X104712500Y-84086560D01*
X104745833Y-83953226D01*
X104812500Y-83886560D01*
X104879166Y-83853226D01*
X102045833Y-63566560D02*
X101979166Y-63533226D01*
X101879166Y-63533226D01*
X101779166Y-63566560D01*
X101712500Y-63633226D01*
X101679166Y-63699893D01*
X101645833Y-63833226D01*
X101645833Y-63933226D01*
X101679166Y-64066560D01*
X101712500Y-64133226D01*
X101779166Y-64199893D01*
X101879166Y-64233226D01*
X101945833Y-64233226D01*
X102045833Y-64199893D01*
X102079166Y-64166560D01*
X102079166Y-63933226D01*
X101945833Y-63933226D01*
X102379166Y-64233226D02*
X102379166Y-63533226D01*
X102645833Y-63533226D01*
X102712500Y-63566560D01*
X102745833Y-63599893D01*
X102779166Y-63666560D01*
X102779166Y-63766560D01*
X102745833Y-63833226D01*
X102712500Y-63866560D01*
X102645833Y-63899893D01*
X102379166Y-63899893D01*
X103079166Y-64233226D02*
X103079166Y-63533226D01*
X103545833Y-63533226D02*
X103679166Y-63533226D01*
X103745833Y-63566560D01*
X103812500Y-63633226D01*
X103845833Y-63766560D01*
X103845833Y-63999893D01*
X103812500Y-64133226D01*
X103745833Y-64199893D01*
X103679166Y-64233226D01*
X103545833Y-64233226D01*
X103479166Y-64199893D01*
X103412500Y-64133226D01*
X103379166Y-63999893D01*
X103379166Y-63766560D01*
X103412500Y-63633226D01*
X103479166Y-63566560D01*
X103545833Y-63533226D01*
X104512500Y-64233226D02*
X104112500Y-64233226D01*
X104312500Y-64233226D02*
X104312500Y-63533226D01*
X104245833Y-63633226D01*
X104179166Y-63699893D01*
X104112500Y-63733226D01*
X104845833Y-64233226D02*
X104979166Y-64233226D01*
X105045833Y-64199893D01*
X105079166Y-64166560D01*
X105145833Y-64066560D01*
X105179166Y-63933226D01*
X105179166Y-63666560D01*
X105145833Y-63599893D01*
X105112500Y-63566560D01*
X105045833Y-63533226D01*
X104912500Y-63533226D01*
X104845833Y-63566560D01*
X104812500Y-63599893D01*
X104779166Y-63666560D01*
X104779166Y-63833226D01*
X104812500Y-63899893D01*
X104845833Y-63933226D01*
X104912500Y-63966560D01*
X105045833Y-63966560D01*
X105112500Y-63933226D01*
X105145833Y-63899893D01*
X105179166Y-63833226D01*
X83180833Y-73726560D02*
X83114166Y-73693226D01*
X83014166Y-73693226D01*
X82914166Y-73726560D01*
X82847500Y-73793226D01*
X82814166Y-73859893D01*
X82780833Y-73993226D01*
X82780833Y-74093226D01*
X82814166Y-74226560D01*
X82847500Y-74293226D01*
X82914166Y-74359893D01*
X83014166Y-74393226D01*
X83080833Y-74393226D01*
X83180833Y-74359893D01*
X83214166Y-74326560D01*
X83214166Y-74093226D01*
X83080833Y-74093226D01*
X83514166Y-74393226D02*
X83514166Y-73693226D01*
X83780833Y-73693226D01*
X83847500Y-73726560D01*
X83880833Y-73759893D01*
X83914166Y-73826560D01*
X83914166Y-73926560D01*
X83880833Y-73993226D01*
X83847500Y-74026560D01*
X83780833Y-74059893D01*
X83514166Y-74059893D01*
X84214166Y-74393226D02*
X84214166Y-73693226D01*
X84680833Y-73693226D02*
X84814166Y-73693226D01*
X84880833Y-73726560D01*
X84947500Y-73793226D01*
X84980833Y-73926560D01*
X84980833Y-74159893D01*
X84947500Y-74293226D01*
X84880833Y-74359893D01*
X84814166Y-74393226D01*
X84680833Y-74393226D01*
X84614166Y-74359893D01*
X84547500Y-74293226D01*
X84514166Y-74159893D01*
X84514166Y-73926560D01*
X84547500Y-73793226D01*
X84614166Y-73726560D01*
X84680833Y-73693226D01*
X85647500Y-74393226D02*
X85247500Y-74393226D01*
X85447500Y-74393226D02*
X85447500Y-73693226D01*
X85380833Y-73793226D01*
X85314166Y-73859893D01*
X85247500Y-73893226D01*
X86247500Y-73926560D02*
X86247500Y-74393226D01*
X86080833Y-73659893D02*
X85914166Y-74159893D01*
X86347500Y-74159893D01*
X87114166Y-73659893D02*
X86514166Y-74559893D01*
X87347500Y-74393226D02*
X87347500Y-73693226D01*
X87580833Y-74193226D01*
X87814166Y-73693226D01*
X87814166Y-74393226D01*
X88047500Y-73693226D02*
X88447500Y-73693226D01*
X88247500Y-74393226D02*
X88247500Y-73693226D01*
X88680833Y-74393226D02*
X88680833Y-73693226D01*
X88914166Y-74193226D01*
X89147500Y-73693226D01*
X89147500Y-74393226D01*
X89447500Y-74359893D02*
X89547500Y-74393226D01*
X89714166Y-74393226D01*
X89780833Y-74359893D01*
X89814166Y-74326560D01*
X89847500Y-74259893D01*
X89847500Y-74193226D01*
X89814166Y-74126560D01*
X89780833Y-74093226D01*
X89714166Y-74059893D01*
X89580833Y-74026560D01*
X89514166Y-73993226D01*
X89480833Y-73959893D01*
X89447500Y-73893226D01*
X89447500Y-73826560D01*
X89480833Y-73759893D01*
X89514166Y-73726560D01*
X89580833Y-73693226D01*
X89747500Y-73693226D01*
X89847500Y-73726560D01*
X83358105Y-91560220D02*
X82881915Y-91560220D01*
X82834296Y-92036411D01*
X82881915Y-91988792D01*
X82977153Y-91941173D01*
X83215248Y-91941173D01*
X83310486Y-91988792D01*
X83358105Y-92036411D01*
X83405724Y-92131649D01*
X83405724Y-92369744D01*
X83358105Y-92464982D01*
X83310486Y-92512601D01*
X83215248Y-92560220D01*
X82977153Y-92560220D01*
X82881915Y-92512601D01*
X82834296Y-92464982D01*
X83691439Y-91560220D02*
X84024772Y-92560220D01*
X84358105Y-91560220D01*
X83180833Y-63566560D02*
X83114166Y-63533226D01*
X83014166Y-63533226D01*
X82914166Y-63566560D01*
X82847500Y-63633226D01*
X82814166Y-63699893D01*
X82780833Y-63833226D01*
X82780833Y-63933226D01*
X82814166Y-64066560D01*
X82847500Y-64133226D01*
X82914166Y-64199893D01*
X83014166Y-64233226D01*
X83080833Y-64233226D01*
X83180833Y-64199893D01*
X83214166Y-64166560D01*
X83214166Y-63933226D01*
X83080833Y-63933226D01*
X83514166Y-64233226D02*
X83514166Y-63533226D01*
X83780833Y-63533226D01*
X83847500Y-63566560D01*
X83880833Y-63599893D01*
X83914166Y-63666560D01*
X83914166Y-63766560D01*
X83880833Y-63833226D01*
X83847500Y-63866560D01*
X83780833Y-63899893D01*
X83514166Y-63899893D01*
X84214166Y-64233226D02*
X84214166Y-63533226D01*
X84680833Y-63533226D02*
X84814166Y-63533226D01*
X84880833Y-63566560D01*
X84947500Y-63633226D01*
X84980833Y-63766560D01*
X84980833Y-63999893D01*
X84947500Y-64133226D01*
X84880833Y-64199893D01*
X84814166Y-64233226D01*
X84680833Y-64233226D01*
X84614166Y-64199893D01*
X84547500Y-64133226D01*
X84514166Y-63999893D01*
X84514166Y-63766560D01*
X84547500Y-63633226D01*
X84614166Y-63566560D01*
X84680833Y-63533226D01*
X85214166Y-63533226D02*
X85647500Y-63533226D01*
X85414166Y-63799893D01*
X85514166Y-63799893D01*
X85580833Y-63833226D01*
X85614166Y-63866560D01*
X85647500Y-63933226D01*
X85647500Y-64099893D01*
X85614166Y-64166560D01*
X85580833Y-64199893D01*
X85514166Y-64233226D01*
X85314166Y-64233226D01*
X85247500Y-64199893D01*
X85214166Y-64166560D01*
X85880833Y-63533226D02*
X86314166Y-63533226D01*
X86080833Y-63799893D01*
X86180833Y-63799893D01*
X86247500Y-63833226D01*
X86280833Y-63866560D01*
X86314166Y-63933226D01*
X86314166Y-64099893D01*
X86280833Y-64166560D01*
X86247500Y-64199893D01*
X86180833Y-64233226D01*
X85980833Y-64233226D01*
X85914166Y-64199893D01*
X85880833Y-64166560D01*
X102045833Y-73726560D02*
X101979166Y-73693226D01*
X101879166Y-73693226D01*
X101779166Y-73726560D01*
X101712500Y-73793226D01*
X101679166Y-73859893D01*
X101645833Y-73993226D01*
X101645833Y-74093226D01*
X101679166Y-74226560D01*
X101712500Y-74293226D01*
X101779166Y-74359893D01*
X101879166Y-74393226D01*
X101945833Y-74393226D01*
X102045833Y-74359893D01*
X102079166Y-74326560D01*
X102079166Y-74093226D01*
X101945833Y-74093226D01*
X102379166Y-74393226D02*
X102379166Y-73693226D01*
X102645833Y-73693226D01*
X102712500Y-73726560D01*
X102745833Y-73759893D01*
X102779166Y-73826560D01*
X102779166Y-73926560D01*
X102745833Y-73993226D01*
X102712500Y-74026560D01*
X102645833Y-74059893D01*
X102379166Y-74059893D01*
X103079166Y-74393226D02*
X103079166Y-73693226D01*
X103545833Y-73693226D02*
X103679166Y-73693226D01*
X103745833Y-73726560D01*
X103812500Y-73793226D01*
X103845833Y-73926560D01*
X103845833Y-74159893D01*
X103812500Y-74293226D01*
X103745833Y-74359893D01*
X103679166Y-74393226D01*
X103545833Y-74393226D01*
X103479166Y-74359893D01*
X103412500Y-74293226D01*
X103379166Y-74159893D01*
X103379166Y-73926560D01*
X103412500Y-73793226D01*
X103479166Y-73726560D01*
X103545833Y-73693226D01*
X104512500Y-74393226D02*
X104112500Y-74393226D01*
X104312500Y-74393226D02*
X104312500Y-73693226D01*
X104245833Y-73793226D01*
X104179166Y-73859893D01*
X104112500Y-73893226D01*
X105112500Y-73693226D02*
X104979166Y-73693226D01*
X104912500Y-73726560D01*
X104879166Y-73759893D01*
X104812500Y-73859893D01*
X104779166Y-73993226D01*
X104779166Y-74259893D01*
X104812500Y-74326560D01*
X104845833Y-74359893D01*
X104912500Y-74393226D01*
X105045833Y-74393226D01*
X105112500Y-74359893D01*
X105145833Y-74326560D01*
X105179166Y-74259893D01*
X105179166Y-74093226D01*
X105145833Y-74026560D01*
X105112500Y-73993226D01*
X105045833Y-73959893D01*
X104912500Y-73959893D01*
X104845833Y-73993226D01*
X104812500Y-74026560D01*
X104779166Y-74093226D01*
X82714166Y-53373226D02*
X82947500Y-54073226D01*
X83180833Y-53373226D01*
X83414166Y-54073226D02*
X83414166Y-53373226D01*
X83814166Y-54073226D01*
X83814166Y-53373226D01*
X84647500Y-53339893D02*
X84047500Y-54239893D01*
X85247500Y-53406560D02*
X85180833Y-53373226D01*
X85080833Y-53373226D01*
X84980833Y-53406560D01*
X84914166Y-53473226D01*
X84880833Y-53539893D01*
X84847500Y-53673226D01*
X84847500Y-53773226D01*
X84880833Y-53906560D01*
X84914166Y-53973226D01*
X84980833Y-54039893D01*
X85080833Y-54073226D01*
X85147500Y-54073226D01*
X85247500Y-54039893D01*
X85280833Y-54006560D01*
X85280833Y-53773226D01*
X85147500Y-53773226D01*
X85580833Y-54073226D02*
X85580833Y-53373226D01*
X85847500Y-53373226D01*
X85914166Y-53406560D01*
X85947500Y-53439893D01*
X85980833Y-53506560D01*
X85980833Y-53606560D01*
X85947500Y-53673226D01*
X85914166Y-53706560D01*
X85847500Y-53739893D01*
X85580833Y-53739893D01*
X86280833Y-54073226D02*
X86280833Y-53373226D01*
X86747500Y-53373226D02*
X86880833Y-53373226D01*
X86947500Y-53406560D01*
X87014166Y-53473226D01*
X87047500Y-53606560D01*
X87047500Y-53839893D01*
X87014166Y-53973226D01*
X86947500Y-54039893D01*
X86880833Y-54073226D01*
X86747500Y-54073226D01*
X86680833Y-54039893D01*
X86614166Y-53973226D01*
X86580833Y-53839893D01*
X86580833Y-53606560D01*
X86614166Y-53473226D01*
X86680833Y-53406560D01*
X86747500Y-53373226D01*
X87280833Y-53373226D02*
X87714166Y-53373226D01*
X87480833Y-53639893D01*
X87580833Y-53639893D01*
X87647500Y-53673226D01*
X87680833Y-53706560D01*
X87714166Y-53773226D01*
X87714166Y-53939893D01*
X87680833Y-54006560D01*
X87647500Y-54039893D01*
X87580833Y-54073226D01*
X87380833Y-54073226D01*
X87314166Y-54039893D01*
X87280833Y-54006560D01*
X88047500Y-54073226D02*
X88180833Y-54073226D01*
X88247500Y-54039893D01*
X88280833Y-54006560D01*
X88347500Y-53906560D01*
X88380833Y-53773226D01*
X88380833Y-53506560D01*
X88347500Y-53439893D01*
X88314166Y-53406560D01*
X88247500Y-53373226D01*
X88114166Y-53373226D01*
X88047500Y-53406560D01*
X88014166Y-53439893D01*
X87980833Y-53506560D01*
X87980833Y-53673226D01*
X88014166Y-53739893D01*
X88047500Y-53773226D01*
X88114166Y-53806560D01*
X88247500Y-53806560D01*
X88314166Y-53773226D01*
X88347500Y-53739893D01*
X88380833Y-53673226D01*
X82814166Y-84553226D02*
X82814166Y-83853226D01*
X82980833Y-83853226D01*
X83080833Y-83886560D01*
X83147500Y-83953226D01*
X83180833Y-84019893D01*
X83214166Y-84153226D01*
X83214166Y-84253226D01*
X83180833Y-84386560D01*
X83147500Y-84453226D01*
X83080833Y-84519893D01*
X82980833Y-84553226D01*
X82814166Y-84553226D01*
X83480833Y-83919893D02*
X83514166Y-83886560D01*
X83580833Y-83853226D01*
X83747500Y-83853226D01*
X83814166Y-83886560D01*
X83847500Y-83919893D01*
X83880833Y-83986560D01*
X83880833Y-84053226D01*
X83847500Y-84153226D01*
X83447500Y-84553226D01*
X83880833Y-84553226D01*
X83180833Y-71186560D02*
X83114166Y-71153226D01*
X83014166Y-71153226D01*
X82914166Y-71186560D01*
X82847500Y-71253226D01*
X82814166Y-71319893D01*
X82780833Y-71453226D01*
X82780833Y-71553226D01*
X82814166Y-71686560D01*
X82847500Y-71753226D01*
X82914166Y-71819893D01*
X83014166Y-71853226D01*
X83080833Y-71853226D01*
X83180833Y-71819893D01*
X83214166Y-71786560D01*
X83214166Y-71553226D01*
X83080833Y-71553226D01*
X83514166Y-71853226D02*
X83514166Y-71153226D01*
X83780833Y-71153226D01*
X83847500Y-71186560D01*
X83880833Y-71219893D01*
X83914166Y-71286560D01*
X83914166Y-71386560D01*
X83880833Y-71453226D01*
X83847500Y-71486560D01*
X83780833Y-71519893D01*
X83514166Y-71519893D01*
X84214166Y-71853226D02*
X84214166Y-71153226D01*
X84680833Y-71153226D02*
X84814166Y-71153226D01*
X84880833Y-71186560D01*
X84947500Y-71253226D01*
X84980833Y-71386560D01*
X84980833Y-71619893D01*
X84947500Y-71753226D01*
X84880833Y-71819893D01*
X84814166Y-71853226D01*
X84680833Y-71853226D01*
X84614166Y-71819893D01*
X84547500Y-71753226D01*
X84514166Y-71619893D01*
X84514166Y-71386560D01*
X84547500Y-71253226D01*
X84614166Y-71186560D01*
X84680833Y-71153226D01*
X85247500Y-71219893D02*
X85280833Y-71186560D01*
X85347500Y-71153226D01*
X85514166Y-71153226D01*
X85580833Y-71186560D01*
X85614166Y-71219893D01*
X85647500Y-71286560D01*
X85647500Y-71353226D01*
X85614166Y-71453226D01*
X85214166Y-71853226D01*
X85647500Y-71853226D01*
X85880833Y-71153226D02*
X86347500Y-71153226D01*
X86047500Y-71853226D01*
X83180833Y-81346560D02*
X83114166Y-81313226D01*
X83014166Y-81313226D01*
X82914166Y-81346560D01*
X82847500Y-81413226D01*
X82814166Y-81479893D01*
X82780833Y-81613226D01*
X82780833Y-81713226D01*
X82814166Y-81846560D01*
X82847500Y-81913226D01*
X82914166Y-81979893D01*
X83014166Y-82013226D01*
X83080833Y-82013226D01*
X83180833Y-81979893D01*
X83214166Y-81946560D01*
X83214166Y-81713226D01*
X83080833Y-81713226D01*
X83514166Y-82013226D02*
X83514166Y-81313226D01*
X83780833Y-81313226D01*
X83847500Y-81346560D01*
X83880833Y-81379893D01*
X83914166Y-81446560D01*
X83914166Y-81546560D01*
X83880833Y-81613226D01*
X83847500Y-81646560D01*
X83780833Y-81679893D01*
X83514166Y-81679893D01*
X84214166Y-82013226D02*
X84214166Y-81313226D01*
X84680833Y-81313226D02*
X84814166Y-81313226D01*
X84880833Y-81346560D01*
X84947500Y-81413226D01*
X84980833Y-81546560D01*
X84980833Y-81779893D01*
X84947500Y-81913226D01*
X84880833Y-81979893D01*
X84814166Y-82013226D01*
X84680833Y-82013226D01*
X84614166Y-81979893D01*
X84547500Y-81913226D01*
X84514166Y-81779893D01*
X84514166Y-81546560D01*
X84547500Y-81413226D01*
X84614166Y-81346560D01*
X84680833Y-81313226D01*
X85647500Y-82013226D02*
X85247500Y-82013226D01*
X85447500Y-82013226D02*
X85447500Y-81313226D01*
X85380833Y-81413226D01*
X85314166Y-81479893D01*
X85247500Y-81513226D01*
X85880833Y-81313226D02*
X86314166Y-81313226D01*
X86080833Y-81579893D01*
X86180833Y-81579893D01*
X86247500Y-81613226D01*
X86280833Y-81646560D01*
X86314166Y-81713226D01*
X86314166Y-81879893D01*
X86280833Y-81946560D01*
X86247500Y-81979893D01*
X86180833Y-82013226D01*
X85980833Y-82013226D01*
X85914166Y-81979893D01*
X85880833Y-81946560D01*
X87114166Y-81279893D02*
X86514166Y-82179893D01*
X87347500Y-82013226D02*
X87347500Y-81313226D01*
X87580833Y-81813226D01*
X87814166Y-81313226D01*
X87814166Y-82013226D01*
X88047500Y-81313226D02*
X88447500Y-81313226D01*
X88247500Y-82013226D02*
X88247500Y-81313226D01*
X89080833Y-81946560D02*
X89047500Y-81979893D01*
X88947500Y-82013226D01*
X88880833Y-82013226D01*
X88780833Y-81979893D01*
X88714166Y-81913226D01*
X88680833Y-81846560D01*
X88647500Y-81713226D01*
X88647500Y-81613226D01*
X88680833Y-81479893D01*
X88714166Y-81413226D01*
X88780833Y-81346560D01*
X88880833Y-81313226D01*
X88947500Y-81313226D01*
X89047500Y-81346560D01*
X89080833Y-81379893D01*
X89380833Y-82013226D02*
X89380833Y-81313226D01*
X89780833Y-82013226D02*
X89480833Y-81613226D01*
X89780833Y-81313226D02*
X89380833Y-81713226D01*
X104112500Y-87093226D02*
X104112500Y-86393226D01*
X104279166Y-86393226D01*
X104379166Y-86426560D01*
X104445833Y-86493226D01*
X104479166Y-86559893D01*
X104512500Y-86693226D01*
X104512500Y-86793226D01*
X104479166Y-86926560D01*
X104445833Y-86993226D01*
X104379166Y-87059893D01*
X104279166Y-87093226D01*
X104112500Y-87093226D01*
X105179166Y-87093226D02*
X104779166Y-87093226D01*
X104979166Y-87093226D02*
X104979166Y-86393226D01*
X104912500Y-86493226D01*
X104845833Y-86559893D01*
X104779166Y-86593226D01*
X102045833Y-50866560D02*
X101979166Y-50833226D01*
X101879166Y-50833226D01*
X101779166Y-50866560D01*
X101712500Y-50933226D01*
X101679166Y-50999893D01*
X101645833Y-51133226D01*
X101645833Y-51233226D01*
X101679166Y-51366560D01*
X101712500Y-51433226D01*
X101779166Y-51499893D01*
X101879166Y-51533226D01*
X101945833Y-51533226D01*
X102045833Y-51499893D01*
X102079166Y-51466560D01*
X102079166Y-51233226D01*
X101945833Y-51233226D01*
X102379166Y-51533226D02*
X102379166Y-50833226D01*
X102645833Y-50833226D01*
X102712500Y-50866560D01*
X102745833Y-50899893D01*
X102779166Y-50966560D01*
X102779166Y-51066560D01*
X102745833Y-51133226D01*
X102712500Y-51166560D01*
X102645833Y-51199893D01*
X102379166Y-51199893D01*
X103079166Y-51533226D02*
X103079166Y-50833226D01*
X103545833Y-50833226D02*
X103679166Y-50833226D01*
X103745833Y-50866560D01*
X103812500Y-50933226D01*
X103845833Y-51066560D01*
X103845833Y-51299893D01*
X103812500Y-51433226D01*
X103745833Y-51499893D01*
X103679166Y-51533226D01*
X103545833Y-51533226D01*
X103479166Y-51499893D01*
X103412500Y-51433226D01*
X103379166Y-51299893D01*
X103379166Y-51066560D01*
X103412500Y-50933226D01*
X103479166Y-50866560D01*
X103545833Y-50833226D01*
X104112500Y-50899893D02*
X104145833Y-50866560D01*
X104212500Y-50833226D01*
X104379166Y-50833226D01*
X104445833Y-50866560D01*
X104479166Y-50899893D01*
X104512500Y-50966560D01*
X104512500Y-51033226D01*
X104479166Y-51133226D01*
X104079166Y-51533226D01*
X104512500Y-51533226D01*
X104779166Y-50899893D02*
X104812500Y-50866560D01*
X104879166Y-50833226D01*
X105045833Y-50833226D01*
X105112500Y-50866560D01*
X105145833Y-50899893D01*
X105179166Y-50966560D01*
X105179166Y-51033226D01*
X105145833Y-51133226D01*
X104745833Y-51533226D01*
X105179166Y-51533226D01*
X82714166Y-50833226D02*
X82947500Y-51533226D01*
X83180833Y-50833226D01*
X83414166Y-51533226D02*
X83414166Y-50833226D01*
X83680833Y-50833226D01*
X83747500Y-50866560D01*
X83780833Y-50899893D01*
X83814166Y-50966560D01*
X83814166Y-51066560D01*
X83780833Y-51133226D01*
X83747500Y-51166560D01*
X83680833Y-51199893D01*
X83414166Y-51199893D01*
X84614166Y-50799893D02*
X84014166Y-51699893D01*
X85214166Y-50866560D02*
X85147500Y-50833226D01*
X85047500Y-50833226D01*
X84947500Y-50866560D01*
X84880833Y-50933226D01*
X84847500Y-50999893D01*
X84814166Y-51133226D01*
X84814166Y-51233226D01*
X84847500Y-51366560D01*
X84880833Y-51433226D01*
X84947500Y-51499893D01*
X85047500Y-51533226D01*
X85114166Y-51533226D01*
X85214166Y-51499893D01*
X85247500Y-51466560D01*
X85247500Y-51233226D01*
X85114166Y-51233226D01*
X85547500Y-51533226D02*
X85547500Y-50833226D01*
X85814166Y-50833226D01*
X85880833Y-50866560D01*
X85914166Y-50899893D01*
X85947500Y-50966560D01*
X85947500Y-51066560D01*
X85914166Y-51133226D01*
X85880833Y-51166560D01*
X85814166Y-51199893D01*
X85547500Y-51199893D01*
X86247500Y-51533226D02*
X86247500Y-50833226D01*
X86714166Y-50833226D02*
X86847500Y-50833226D01*
X86914166Y-50866560D01*
X86980833Y-50933226D01*
X87014166Y-51066560D01*
X87014166Y-51299893D01*
X86980833Y-51433226D01*
X86914166Y-51499893D01*
X86847500Y-51533226D01*
X86714166Y-51533226D01*
X86647500Y-51499893D01*
X86580833Y-51433226D01*
X86547500Y-51299893D01*
X86547500Y-51066560D01*
X86580833Y-50933226D01*
X86647500Y-50866560D01*
X86714166Y-50833226D01*
X87247500Y-50833226D02*
X87680833Y-50833226D01*
X87447500Y-51099893D01*
X87547500Y-51099893D01*
X87614166Y-51133226D01*
X87647500Y-51166560D01*
X87680833Y-51233226D01*
X87680833Y-51399893D01*
X87647500Y-51466560D01*
X87614166Y-51499893D01*
X87547500Y-51533226D01*
X87347500Y-51533226D01*
X87280833Y-51499893D01*
X87247500Y-51466560D01*
X88280833Y-50833226D02*
X88147500Y-50833226D01*
X88080833Y-50866560D01*
X88047500Y-50899893D01*
X87980833Y-50999893D01*
X87947500Y-51133226D01*
X87947500Y-51399893D01*
X87980833Y-51466560D01*
X88014166Y-51499893D01*
X88080833Y-51533226D01*
X88214166Y-51533226D01*
X88280833Y-51499893D01*
X88314166Y-51466560D01*
X88347500Y-51399893D01*
X88347500Y-51233226D01*
X88314166Y-51166560D01*
X88280833Y-51133226D01*
X88214166Y-51099893D01*
X88080833Y-51099893D01*
X88014166Y-51133226D01*
X87980833Y-51166560D01*
X87947500Y-51233226D01*
X82783105Y-48602411D02*
X83116439Y-48602411D01*
X83259296Y-49126220D02*
X82783105Y-49126220D01*
X82783105Y-48126220D01*
X83259296Y-48126220D01*
X83687867Y-49126220D02*
X83687867Y-48126220D01*
X84259296Y-49126220D01*
X84259296Y-48126220D01*
X85449772Y-48078601D02*
X84592629Y-49364316D01*
X86354534Y-49126220D02*
X86021200Y-48650030D01*
X85783105Y-49126220D02*
X85783105Y-48126220D01*
X86164058Y-48126220D01*
X86259296Y-48173840D01*
X86306915Y-48221459D01*
X86354534Y-48316697D01*
X86354534Y-48459554D01*
X86306915Y-48554792D01*
X86259296Y-48602411D01*
X86164058Y-48650030D01*
X85783105Y-48650030D01*
X86783105Y-48602411D02*
X87116439Y-48602411D01*
X87259296Y-49126220D02*
X86783105Y-49126220D01*
X86783105Y-48126220D01*
X87259296Y-48126220D01*
X87640248Y-49078601D02*
X87783105Y-49126220D01*
X88021200Y-49126220D01*
X88116439Y-49078601D01*
X88164058Y-49030982D01*
X88211677Y-48935744D01*
X88211677Y-48840506D01*
X88164058Y-48745268D01*
X88116439Y-48697649D01*
X88021200Y-48650030D01*
X87830724Y-48602411D01*
X87735486Y-48554792D01*
X87687867Y-48507173D01*
X87640248Y-48411935D01*
X87640248Y-48316697D01*
X87687867Y-48221459D01*
X87735486Y-48173840D01*
X87830724Y-48126220D01*
X88068820Y-48126220D01*
X88211677Y-48173840D01*
X88640248Y-48602411D02*
X88973581Y-48602411D01*
X89116439Y-49126220D02*
X88640248Y-49126220D01*
X88640248Y-48126220D01*
X89116439Y-48126220D01*
X89402153Y-48126220D02*
X89973581Y-48126220D01*
X89687867Y-49126220D02*
X89687867Y-48126220D01*
X98512500Y-55946560D02*
X98445833Y-55913226D01*
X98345833Y-55913226D01*
X98245833Y-55946560D01*
X98179166Y-56013226D01*
X98145833Y-56079893D01*
X98112500Y-56213226D01*
X98112500Y-56313226D01*
X98145833Y-56446560D01*
X98179166Y-56513226D01*
X98245833Y-56579893D01*
X98345833Y-56613226D01*
X98412500Y-56613226D01*
X98512500Y-56579893D01*
X98545833Y-56546560D01*
X98545833Y-56313226D01*
X98412500Y-56313226D01*
X98845833Y-56613226D02*
X98845833Y-55913226D01*
X99112500Y-55913226D01*
X99179166Y-55946560D01*
X99212500Y-55979893D01*
X99245833Y-56046560D01*
X99245833Y-56146560D01*
X99212500Y-56213226D01*
X99179166Y-56246560D01*
X99112500Y-56279893D01*
X98845833Y-56279893D01*
X99545833Y-56613226D02*
X99545833Y-55913226D01*
X100012500Y-55913226D02*
X100145833Y-55913226D01*
X100212500Y-55946560D01*
X100279166Y-56013226D01*
X100312500Y-56146560D01*
X100312500Y-56379893D01*
X100279166Y-56513226D01*
X100212500Y-56579893D01*
X100145833Y-56613226D01*
X100012500Y-56613226D01*
X99945833Y-56579893D01*
X99879166Y-56513226D01*
X99845833Y-56379893D01*
X99845833Y-56146560D01*
X99879166Y-56013226D01*
X99945833Y-55946560D01*
X100012500Y-55913226D01*
X100545833Y-55913226D02*
X100979166Y-55913226D01*
X100745833Y-56179893D01*
X100845833Y-56179893D01*
X100912500Y-56213226D01*
X100945833Y-56246560D01*
X100979166Y-56313226D01*
X100979166Y-56479893D01*
X100945833Y-56546560D01*
X100912500Y-56579893D01*
X100845833Y-56613226D01*
X100645833Y-56613226D01*
X100579166Y-56579893D01*
X100545833Y-56546560D01*
X101779166Y-55879893D02*
X101179166Y-56779893D01*
X102012500Y-55913226D02*
X102012500Y-56479893D01*
X102045833Y-56546560D01*
X102079166Y-56579893D01*
X102145833Y-56613226D01*
X102279166Y-56613226D01*
X102345833Y-56579893D01*
X102379166Y-56546560D01*
X102412500Y-56479893D01*
X102412500Y-55913226D01*
X102879166Y-55913226D02*
X102945833Y-55913226D01*
X103012500Y-55946560D01*
X103045833Y-55979893D01*
X103079166Y-56046560D01*
X103112500Y-56179893D01*
X103112500Y-56346560D01*
X103079166Y-56479893D01*
X103045833Y-56546560D01*
X103012500Y-56579893D01*
X102945833Y-56613226D01*
X102879166Y-56613226D01*
X102812500Y-56579893D01*
X102779166Y-56546560D01*
X102745833Y-56479893D01*
X102712500Y-56346560D01*
X102712500Y-56179893D01*
X102745833Y-56046560D01*
X102779166Y-55979893D01*
X102812500Y-55946560D01*
X102879166Y-55913226D01*
X103812500Y-56613226D02*
X103579166Y-56279893D01*
X103412500Y-56613226D02*
X103412500Y-55913226D01*
X103679166Y-55913226D01*
X103745833Y-55946560D01*
X103779166Y-55979893D01*
X103812500Y-56046560D01*
X103812500Y-56146560D01*
X103779166Y-56213226D01*
X103745833Y-56246560D01*
X103679166Y-56279893D01*
X103412500Y-56279893D01*
X104045833Y-55913226D02*
X104512500Y-56613226D01*
X104512500Y-55913226D02*
X104045833Y-56613226D01*
X104779166Y-56613226D02*
X104779166Y-55913226D01*
X104945833Y-55913226D01*
X105045833Y-55946560D01*
X105112500Y-56013226D01*
X105145833Y-56079893D01*
X105179166Y-56213226D01*
X105179166Y-56313226D01*
X105145833Y-56446560D01*
X105112500Y-56513226D01*
X105045833Y-56579893D01*
X104945833Y-56613226D01*
X104779166Y-56613226D01*
X83180833Y-66106560D02*
X83114166Y-66073226D01*
X83014166Y-66073226D01*
X82914166Y-66106560D01*
X82847500Y-66173226D01*
X82814166Y-66239893D01*
X82780833Y-66373226D01*
X82780833Y-66473226D01*
X82814166Y-66606560D01*
X82847500Y-66673226D01*
X82914166Y-66739893D01*
X83014166Y-66773226D01*
X83080833Y-66773226D01*
X83180833Y-66739893D01*
X83214166Y-66706560D01*
X83214166Y-66473226D01*
X83080833Y-66473226D01*
X83514166Y-66773226D02*
X83514166Y-66073226D01*
X83780833Y-66073226D01*
X83847500Y-66106560D01*
X83880833Y-66139893D01*
X83914166Y-66206560D01*
X83914166Y-66306560D01*
X83880833Y-66373226D01*
X83847500Y-66406560D01*
X83780833Y-66439893D01*
X83514166Y-66439893D01*
X84214166Y-66773226D02*
X84214166Y-66073226D01*
X84680833Y-66073226D02*
X84814166Y-66073226D01*
X84880833Y-66106560D01*
X84947500Y-66173226D01*
X84980833Y-66306560D01*
X84980833Y-66539893D01*
X84947500Y-66673226D01*
X84880833Y-66739893D01*
X84814166Y-66773226D01*
X84680833Y-66773226D01*
X84614166Y-66739893D01*
X84547500Y-66673226D01*
X84514166Y-66539893D01*
X84514166Y-66306560D01*
X84547500Y-66173226D01*
X84614166Y-66106560D01*
X84680833Y-66073226D01*
X85247500Y-66139893D02*
X85280833Y-66106560D01*
X85347500Y-66073226D01*
X85514166Y-66073226D01*
X85580833Y-66106560D01*
X85614166Y-66139893D01*
X85647500Y-66206560D01*
X85647500Y-66273226D01*
X85614166Y-66373226D01*
X85214166Y-66773226D01*
X85647500Y-66773226D01*
X86280833Y-66073226D02*
X85947500Y-66073226D01*
X85914166Y-66406560D01*
X85947500Y-66373226D01*
X86014166Y-66339893D01*
X86180833Y-66339893D01*
X86247500Y-66373226D01*
X86280833Y-66406560D01*
X86314166Y-66473226D01*
X86314166Y-66639893D01*
X86280833Y-66706560D01*
X86247500Y-66739893D01*
X86180833Y-66773226D01*
X86014166Y-66773226D01*
X85947500Y-66739893D01*
X85914166Y-66706560D01*
X102045833Y-58486560D02*
X101979166Y-58453226D01*
X101879166Y-58453226D01*
X101779166Y-58486560D01*
X101712500Y-58553226D01*
X101679166Y-58619893D01*
X101645833Y-58753226D01*
X101645833Y-58853226D01*
X101679166Y-58986560D01*
X101712500Y-59053226D01*
X101779166Y-59119893D01*
X101879166Y-59153226D01*
X101945833Y-59153226D01*
X102045833Y-59119893D01*
X102079166Y-59086560D01*
X102079166Y-58853226D01*
X101945833Y-58853226D01*
X102379166Y-59153226D02*
X102379166Y-58453226D01*
X102645833Y-58453226D01*
X102712500Y-58486560D01*
X102745833Y-58519893D01*
X102779166Y-58586560D01*
X102779166Y-58686560D01*
X102745833Y-58753226D01*
X102712500Y-58786560D01*
X102645833Y-58819893D01*
X102379166Y-58819893D01*
X103079166Y-59153226D02*
X103079166Y-58453226D01*
X103545833Y-58453226D02*
X103679166Y-58453226D01*
X103745833Y-58486560D01*
X103812500Y-58553226D01*
X103845833Y-58686560D01*
X103845833Y-58919893D01*
X103812500Y-59053226D01*
X103745833Y-59119893D01*
X103679166Y-59153226D01*
X103545833Y-59153226D01*
X103479166Y-59119893D01*
X103412500Y-59053226D01*
X103379166Y-58919893D01*
X103379166Y-58686560D01*
X103412500Y-58553226D01*
X103479166Y-58486560D01*
X103545833Y-58453226D01*
X104112500Y-58519893D02*
X104145833Y-58486560D01*
X104212500Y-58453226D01*
X104379166Y-58453226D01*
X104445833Y-58486560D01*
X104479166Y-58519893D01*
X104512500Y-58586560D01*
X104512500Y-58653226D01*
X104479166Y-58753226D01*
X104079166Y-59153226D01*
X104512500Y-59153226D01*
X105179166Y-59153226D02*
X104779166Y-59153226D01*
X104979166Y-59153226D02*
X104979166Y-58453226D01*
X104912500Y-58553226D01*
X104845833Y-58619893D01*
X104779166Y-58653226D01*
%TO.C,R3*%
X125928380Y-88812666D02*
X125452190Y-89146000D01*
X125928380Y-89384095D02*
X124928380Y-89384095D01*
X124928380Y-89003142D01*
X124976000Y-88907904D01*
X125023619Y-88860285D01*
X125118857Y-88812666D01*
X125261714Y-88812666D01*
X125356952Y-88860285D01*
X125404571Y-88907904D01*
X125452190Y-89003142D01*
X125452190Y-89384095D01*
X124928380Y-88479333D02*
X124928380Y-87860285D01*
X125309333Y-88193619D01*
X125309333Y-88050761D01*
X125356952Y-87955523D01*
X125404571Y-87907904D01*
X125499809Y-87860285D01*
X125737904Y-87860285D01*
X125833142Y-87907904D01*
X125880761Y-87955523D01*
X125928380Y-88050761D01*
X125928380Y-88336476D01*
X125880761Y-88431714D01*
X125833142Y-88479333D01*
%TO.C,J1*%
X57299666Y-55425380D02*
X57299666Y-56139666D01*
X57252047Y-56282523D01*
X57156809Y-56377761D01*
X57013952Y-56425380D01*
X56918714Y-56425380D01*
X58299666Y-56425380D02*
X57728238Y-56425380D01*
X58013952Y-56425380D02*
X58013952Y-55425380D01*
X57918714Y-55568238D01*
X57823476Y-55663476D01*
X57728238Y-55711095D01*
%TO.C,R2*%
X118816380Y-88685666D02*
X118340190Y-89019000D01*
X118816380Y-89257095D02*
X117816380Y-89257095D01*
X117816380Y-88876142D01*
X117864000Y-88780904D01*
X117911619Y-88733285D01*
X118006857Y-88685666D01*
X118149714Y-88685666D01*
X118244952Y-88733285D01*
X118292571Y-88780904D01*
X118340190Y-88876142D01*
X118340190Y-89257095D01*
X117911619Y-88304714D02*
X117864000Y-88257095D01*
X117816380Y-88161857D01*
X117816380Y-87923761D01*
X117864000Y-87828523D01*
X117911619Y-87780904D01*
X118006857Y-87733285D01*
X118102095Y-87733285D01*
X118244952Y-87780904D01*
X118816380Y-88352333D01*
X118816380Y-87733285D01*
D11*
%TO.C,J2*%
X59645000Y-89722000D02*
X59645000Y-88392000D01*
X60975000Y-89722000D02*
X59645000Y-89722000D01*
X62245000Y-89722000D02*
X67385000Y-89722000D01*
X62245000Y-89722000D02*
X62245000Y-87062000D01*
X62245000Y-87062000D02*
X67385000Y-87062000D01*
X67385000Y-89722000D02*
X67385000Y-87062000D01*
%TO.C,R1*%
X112622000Y-91916000D02*
X112622000Y-85376000D01*
X112292000Y-91916000D02*
X112622000Y-91916000D01*
X109882000Y-85376000D02*
X110212000Y-85376000D01*
X109882000Y-91916000D02*
X109882000Y-85376000D01*
X110212000Y-91916000D02*
X109882000Y-91916000D01*
X112622000Y-85376000D02*
X112292000Y-85376000D01*
%TO.C,D2*%
X115041000Y-100350000D02*
X118131000Y-100350000D01*
X118130830Y-100350000D02*
G75*
G03*
X116585538Y-94800000I-1544830J2560000D01*
G01*
X116586462Y-94800000D02*
G75*
G03*
X115041170Y-100350000I-462J-2990000D01*
G01*
X119086000Y-97790000D02*
G75*
G03*
X119086000Y-97790000I-2500000J0D01*
G01*
%TO.C,J5*%
X59644000Y-105760000D02*
X59644000Y-106500000D01*
X68839000Y-100531000D02*
X68792000Y-100577000D01*
X70164000Y-96339000D02*
X70164000Y-106260000D01*
X59884000Y-105700000D02*
X70164000Y-105700000D01*
X59644000Y-106500000D02*
X60144000Y-106500000D01*
X66337000Y-102623000D02*
X66290000Y-102669000D01*
X59884000Y-104200000D02*
X70164000Y-104200000D01*
X66530000Y-102839000D02*
X66495000Y-102874000D01*
X59884000Y-106260000D02*
X70164000Y-106260000D01*
X59884000Y-96339000D02*
X59884000Y-106260000D01*
X59884000Y-99299000D02*
X70164000Y-99299000D01*
X59884000Y-96339000D02*
X70164000Y-96339000D01*
X68634000Y-100325000D02*
X68599000Y-100361000D01*
X61800000Y-103135000D02*
G75*
G03*
X62512805Y-103280253I683999J1535001D01*
G01*
X62484000Y-103280000D02*
G75*
G03*
X63167318Y-103134756I1J1679992D01*
G01*
X60949000Y-100916000D02*
G75*
G03*
X60948573Y-102283042I1534993J-684001D01*
G01*
X64019000Y-102284000D02*
G75*
G03*
X64019427Y-100916958I-1534993J684001D01*
G01*
X63168000Y-100065000D02*
G75*
G03*
X61800958Y-100064573I-684001J-1534993D01*
G01*
X69244000Y-101600000D02*
G75*
G03*
X69244000Y-101600000I-1680000J0D01*
G01*
%TO.C,J12*%
X92650000Y-56321000D02*
X95310000Y-56321000D01*
X92650000Y-53661000D02*
X93980000Y-53661000D01*
X92650000Y-54991000D02*
X92650000Y-53661000D01*
X95310000Y-56261000D02*
X95310000Y-56321000D01*
X92650000Y-56261000D02*
X92650000Y-56321000D01*
X92650000Y-56261000D02*
X95310000Y-56261000D01*
%TO.C,J4*%
X125790000Y-70283000D02*
X123130000Y-70283000D01*
X123130000Y-75423000D02*
X123130000Y-70283000D01*
X125790000Y-75423000D02*
X123130000Y-75423000D01*
X125790000Y-76693000D02*
X125790000Y-78023000D01*
X125790000Y-75423000D02*
X125790000Y-70283000D01*
X125790000Y-78023000D02*
X124460000Y-78023000D01*
%TO.C,D3*%
X107929000Y-100350000D02*
X111019000Y-100350000D01*
X109474462Y-94800000D02*
G75*
G03*
X107929170Y-100350000I-462J-2990000D01*
G01*
X111018830Y-100350000D02*
G75*
G03*
X109473538Y-94800000I-1544830J2560000D01*
G01*
X111974000Y-97790000D02*
G75*
G03*
X111974000Y-97790000I-2500000J0D01*
G01*
%TO.C,SW1*%
X66248000Y-58580000D02*
X66248000Y-61300000D01*
X66248000Y-70880000D02*
X53948000Y-70880000D01*
X53948000Y-58580000D02*
X66248000Y-58580000D01*
X53948000Y-66300000D02*
X53948000Y-63160000D01*
X53948000Y-61300000D02*
X53948000Y-58580000D01*
X53948000Y-70880000D02*
X53948000Y-68160000D01*
X66248000Y-68160000D02*
X66248000Y-70880000D01*
X66248000Y-63160000D02*
X66248000Y-66300000D01*
X64777050Y-64770000D02*
G75*
G03*
X64777050Y-64770000I-4579050J0D01*
G01*
%TO.C,J7*%
X125790000Y-56642000D02*
X125790000Y-69402000D01*
X123130000Y-69402000D02*
X125790000Y-69402000D01*
X124460000Y-54042000D02*
X125790000Y-54042000D01*
X123130000Y-56642000D02*
X123130000Y-69402000D01*
X123130000Y-56642000D02*
X125790000Y-56642000D01*
X125790000Y-54042000D02*
X125790000Y-55372000D01*
%TO.C,J6*%
X72344000Y-106500000D02*
X72844000Y-106500000D01*
X72584000Y-104200000D02*
X82864000Y-104200000D01*
X72584000Y-105700000D02*
X82864000Y-105700000D01*
X81539000Y-100531000D02*
X81492000Y-100577000D01*
X79037000Y-102623000D02*
X78990000Y-102669000D01*
X72344000Y-105760000D02*
X72344000Y-106500000D01*
X79230000Y-102839000D02*
X79195000Y-102874000D01*
X82864000Y-96339000D02*
X82864000Y-106260000D01*
X72584000Y-106260000D02*
X82864000Y-106260000D01*
X72584000Y-96339000D02*
X82864000Y-96339000D01*
X72584000Y-96339000D02*
X72584000Y-106260000D01*
X81334000Y-100325000D02*
X81299000Y-100361000D01*
X72584000Y-99299000D02*
X82864000Y-99299000D01*
X73649000Y-100916000D02*
G75*
G03*
X73648573Y-102283042I1534993J-684001D01*
G01*
X75184000Y-103280000D02*
G75*
G03*
X75867318Y-103134756I1J1679992D01*
G01*
X74500000Y-103135000D02*
G75*
G03*
X75212805Y-103280253I683999J1535001D01*
G01*
X76719000Y-102284000D02*
G75*
G03*
X76719427Y-100916958I-1534993J684001D01*
G01*
X75868000Y-100065000D02*
G75*
G03*
X74500958Y-100064573I-684001J-1534993D01*
G01*
X81944000Y-101600000D02*
G75*
G03*
X81944000Y-101600000I-1680000J0D01*
G01*
%TO.C,D1*%
X122153000Y-100350000D02*
X125243000Y-100350000D01*
X125242830Y-100350000D02*
G75*
G03*
X123697538Y-94800000I-1544830J2560000D01*
G01*
X123698462Y-94800000D02*
G75*
G03*
X122153170Y-100350000I-462J-2990000D01*
G01*
X126198000Y-97790000D02*
G75*
G03*
X126198000Y-97790000I-2500000J0D01*
G01*
%TO.C,J8*%
X69409000Y-65913000D02*
X72069000Y-65913000D01*
X72069000Y-65913000D02*
X72069000Y-68513000D01*
X69409000Y-65913000D02*
X69409000Y-68513000D01*
X69409000Y-63313000D02*
X70739000Y-63313000D01*
X69409000Y-64643000D02*
X69409000Y-63313000D01*
X69409000Y-68513000D02*
X72069000Y-68513000D01*
%TO.C,J11*%
X85538000Y-56261000D02*
X85538000Y-56321000D01*
X85538000Y-53661000D02*
X86868000Y-53661000D01*
X88198000Y-56261000D02*
X88198000Y-56321000D01*
X85538000Y-54991000D02*
X85538000Y-53661000D01*
X85538000Y-56261000D02*
X88198000Y-56261000D01*
X85538000Y-56321000D02*
X88198000Y-56321000D01*
%TO.C,SW2*%
X53640000Y-74334000D02*
X53640000Y-71614000D01*
X53640000Y-83914000D02*
X53640000Y-81194000D01*
X53640000Y-71614000D02*
X65940000Y-71614000D01*
X65940000Y-83914000D02*
X53640000Y-83914000D01*
X65940000Y-71614000D02*
X65940000Y-74334000D01*
X65940000Y-76194000D02*
X65940000Y-79334000D01*
X65940000Y-81194000D02*
X65940000Y-83914000D01*
X53640000Y-79334000D02*
X53640000Y-76194000D01*
X64269050Y-77724000D02*
G75*
G03*
X64269050Y-77724000I-4579050J0D01*
G01*
%TO.C,U1*%
X108179999Y-92956560D02*
X108180000Y-45036560D01*
X85010120Y-39123440D02*
X102993320Y-39123440D01*
X79780000Y-92956560D02*
X108179999Y-92956560D01*
X108180000Y-45036560D02*
X79780001Y-45036560D01*
X85010120Y-45016240D02*
X85010120Y-39123440D01*
X102993320Y-39123440D02*
X102993320Y-45016240D01*
X79780001Y-45036560D02*
X79780000Y-92956560D01*
%TO.C,R3*%
X126846000Y-85376000D02*
X126846000Y-91916000D01*
X124436000Y-85376000D02*
X124106000Y-85376000D01*
X124106000Y-91916000D02*
X124436000Y-91916000D01*
X126516000Y-85376000D02*
X126846000Y-85376000D01*
X126846000Y-91916000D02*
X126516000Y-91916000D01*
X124106000Y-85376000D02*
X124106000Y-91916000D01*
%TO.C,RV1*%
X73450000Y-50057000D02*
X73450000Y-45337000D01*
X73450000Y-38467000D02*
X63710000Y-38467000D01*
X63710000Y-41527000D02*
X63710000Y-38467000D01*
X73450000Y-41527000D02*
X73450000Y-38467000D01*
X67790000Y-50057000D02*
X67260000Y-50057000D01*
X70240000Y-50057000D02*
X69410000Y-50057000D01*
X73450000Y-50057000D02*
X71960000Y-50057000D01*
X63700000Y-50057000D02*
X63700000Y-45337000D01*
X64890000Y-50057000D02*
X63710000Y-50057000D01*
%TO.C,J1*%
X58963000Y-51933000D02*
X58963000Y-44253000D01*
X58963000Y-44253000D02*
X56303000Y-44253000D01*
X56303000Y-51933000D02*
X56303000Y-44253000D01*
X57633000Y-54533000D02*
X56303000Y-54533000D01*
X58963000Y-51933000D02*
X56303000Y-51933000D01*
X56303000Y-54533000D02*
X56303000Y-53203000D01*
%TO.C,R2*%
X116994000Y-91916000D02*
X116994000Y-85376000D01*
X119734000Y-91916000D02*
X119734000Y-85376000D01*
X116994000Y-85376000D02*
X117324000Y-85376000D01*
X119734000Y-85376000D02*
X119404000Y-85376000D01*
X119404000Y-91916000D02*
X119734000Y-91916000D01*
X117324000Y-91916000D02*
X116994000Y-91916000D01*
%TO.C,J3*%
X64770000Y-94294000D02*
X59630000Y-94294000D01*
X66040000Y-91634000D02*
X67370000Y-91634000D01*
X64770000Y-91634000D02*
X64770000Y-94294000D01*
X59630000Y-91634000D02*
X59630000Y-94294000D01*
X64770000Y-91634000D02*
X59630000Y-91634000D01*
X67370000Y-91634000D02*
X67370000Y-92964000D01*
%TD*%
M02*
