<?xml version="1.0" encoding="UTF-8" standalone="no"?>
<!-- Generator: Adobe Illustrator 23.0.4, SVG Export Plug-In . SVG Version: 6.00 Build 0)  -->

<svg
   version="1.1"
   id="Layer_1"
   x="0px"
   y="0px"
   viewBox="0 0 228 75"
   style="enable-background:new 0 0 228 75;"
   xml:space="preserve"
   sodipodi:docname="logo-fundacion-siemens-arg2020.svg"
   inkscape:version="1.3 (0e150ed6c4, 2023-07-21)"
   xmlns:inkscape="http://www.inkscape.org/namespaces/inkscape"
   xmlns:sodipodi="http://sodipodi.sourceforge.net/DTD/sodipodi-0.dtd"
   xmlns="http://www.w3.org/2000/svg"
   xmlns:svg="http://www.w3.org/2000/svg"><defs
   id="defs16">&#10;	&#10;	&#10;	&#10;</defs><sodipodi:namedview
   id="namedview16"
   pagecolor="#ffffff"
   bordercolor="#000000"
   borderopacity="0.25"
   inkscape:showpageshadow="2"
   inkscape:pageopacity="0.0"
   inkscape:pagecheckerboard="0"
   inkscape:deskcolor="#d1d1d1"
   inkscape:zoom="2.6516504"
   inkscape:cx="117.47401"
   inkscape:cy="55.625733"
   inkscape:window-width="1366"
   inkscape:window-height="697"
   inkscape:window-x="-8"
   inkscape:window-y="-8"
   inkscape:window-maximized="1"
   inkscape:current-layer="Layer_1" />&#10;<style
   type="text/css"
   id="style1">&#10;	.st0{fill-rule:evenodd;clip-rule:evenodd;fill:#25A0A0;}&#10;	.st1{fill:none;stroke:#000000;}&#10;</style>&#10;<g
   id="g20"
   transform="translate(7.7285253,-9.2555893)"><g
     id="g15">&#10;		&#10;		&#10;		&#10;		&#10;		&#10;		&#10;		&#10;		&#10;		&#10;	<text
   xml:space="preserve"
   style="font-size:10.6667px;fill:#355269"
   x="106.11681"
   y="57.466667"
   id="text16"><tspan
     sodipodi:role="line"
     x="106.11681"
     y="57.466667"
     style="font-style:normal;font-variant:normal;font-weight:normal;font-stretch:normal;font-size:10.6667px;font-family:Serif;-inkscape-font-specification:Serif;text-align:center;text-anchor:middle;fill:#000000;fill-opacity:1"
     id="tspan18">Concurso LOGO! </tspan><tspan
     sodipodi:role="line"
     x="106.11681"
     y="70.804512"
     style="font-style:normal;font-variant:normal;font-weight:normal;font-stretch:normal;font-size:10.6667px;font-family:Serif;-inkscape-font-specification:Serif;text-align:center;text-anchor:middle;fill:#000000;fill-opacity:1"
     id="tspan19">Creatividad en Automatización</tspan></text></g><g
     id="g19"
     transform="translate(-8.4750367,-2)"><g
       id="g6">&#10;		<polygon
   class="st0"
   points="34.8,28.3 31,28.3 31,41.1 34.8,41.1 "
   id="polygon1" />&#10;		<polygon
   class="st0"
   points="46.9,33.4 41.6,33.4 41.6,30.8 47.7,30.8 47.7,28.3 37.8,28.3 37.8,41.1 47.7,41.1 47.7,38.5 41.6,38.5 41.6,35.9 46.9,35.9 "
   id="polygon2" />&#10;		<polygon
   class="st0"
   points="56.2,41.1 58.7,41.1 62.3,33.3 62.3,41.1 66.1,41.1 66.1,28.3 61.6,28.3 58.1,35.9 54.7,28.3 49.8,28.3 49.8,41.1 52.8,41.1 52.8,33.4 "
   id="polygon3" />&#10;		<polygon
   class="st0"
   points="88.9,41.1 93,41.1 93,28.3 90.3,28.3 90.3,36.1 85.5,28.3 81.4,28.3 81.4,41.1 84.1,41.1 84.1,33.2 "
   id="polygon4" />&#10;		<polygon
   class="st0"
   points="78.2,33.4 72.9,33.4 72.9,30.8 79,30.8 79,28.3 69.1,28.3 69.1,41.1 79,41.1 79,38.5 72.9,38.5 72.9,35.9 78.2,35.9 "
   id="polygon5" />&#10;		<path
   class="st0"
   d="M 26.9,34.2 C 25.8,33.7 24.1,32.9 23,32.3 21.9,31.8 21.9,29.2 28.2,31.1 v 0 -2.4 0 c -1.3,-0.4 -4.9,-1.3 -7.6,0.2 -2.7,1.5 -2.1,5.2 0,6.4 0.9,0.5 2.1,0.9 3.7,1.6 1.3,0.6 2.1,3.4 -5.3,1.5 v 0 2.5 0 c 1.5,0.6 7.1,1.2 8.8,-0.7 1.9,-2.3 1,-5.3 -0.9,-6 z"
   id="path5" />&#10;		<path
   class="st0"
   d="m 103.3,34.2 c -1.1,-0.5 -2.8,-1.3 -3.9,-1.9 -1.1,-0.5 -1.1,-3.1 5.2,-1.2 v 0 -2.4 0 c -1.3,-0.4 -4.9,-1.3 -7.6,0.2 -2.7,1.5 -2.1,5.2 0,6.4 0.9,0.5 2.1,0.9 3.7,1.6 1.3,0.6 2.1,3.4 -5.3,1.5 v 0 2.5 0 c 1.5,0.6 7.1,1.2 8.8,-0.7 1.9,-2.3 1,-5.3 -0.9,-6 z"
   id="path6" />&#10;	</g><path
       d="m 121.5,39.8 v -11 L 120,28.7 v -1 h 8.8 V 31 h -1.4 l -0.2,-2.1 H 123 v 4.6 h 4.1 v 1.3 H 123 v 5 l 1.5,0.1 v 1 H 120 v -1 z"
       id="path7" /><path
       d="m 138.2,39.4 c -0.4,0.4 -0.7,0.7 -1.1,0.9 -0.7,0.5 -1.6,0.8 -2.5,0.8 -1.3,0 -2.2,-0.5 -2.6,-1.6 -0.2,-0.5 -0.3,-1.4 -0.3,-2.6 v -4.6 l -1.4,-0.1 v -1 l 2.9,-0.1 V 37 c 0,0.9 0.1,1.5 0.2,1.9 0.3,0.7 0.8,1 1.6,1 1,0 2,-0.6 3,-1.7 v -6 l -1.4,-0.1 v -1 l 2.9,-0.1 v 8.7 l 1.4,0.1 v 1 h -2.7 z"
       id="path8" /><path
       d="M 143.4,39.8 V 32.3 L 142,32.2 v -1 l 2.8,-0.1 v 1.6 c 0.4,-0.4 0.8,-0.7 1,-0.9 0.7,-0.5 1.5,-0.8 2.5,-0.8 1.3,0 2.2,0.5 2.6,1.6 0.2,0.5 0.3,1.4 0.3,2.5 v 4.7 l 1.4,0.1 v 1 h -4.3 v -1 l 1.4,-0.1 v -4.7 c 0,-0.9 -0.1,-1.5 -0.2,-1.9 -0.3,-0.7 -0.8,-1 -1.7,-1 -1,0 -2.1,0.6 -3.1,1.8 v 5.8 l 1.4,0.1 v 1 H 142 v -1 z"
       id="path9" /><path
       d="m 160.9,40.9 v -1.5 c -0.4,0.5 -0.7,0.8 -0.9,1 -0.5,0.4 -1.2,0.7 -2,0.7 -1.2,0 -2.1,-0.5 -2.8,-1.5 -0.7,-1 -1.1,-2.2 -1.1,-3.7 0,-1.6 0.4,-2.8 1.2,-3.7 0.7,-0.8 1.6,-1.2 2.6,-1.2 1.2,0 2.1,0.5 2.9,1.5 V 28 l -1.4,-0.1 v -1 l 2.9,-0.1 v 13 l 1.4,0.1 v 1 z M 160.8,34 c -0.6,-1.2 -1.5,-1.8 -2.6,-1.8 -0.8,0 -1.5,0.3 -1.9,1 -0.5,0.7 -0.7,1.7 -0.7,2.8 0,1.1 0.2,2 0.6,2.7 0.4,0.8 1.1,1.2 2,1.2 0.7,0 1.3,-0.3 1.8,-0.8 0.2,-0.3 0.5,-0.6 0.7,-1 z"
       id="path10" /><path
       d="m 170.9,40.9 -0.1,-1.1 c -0.3,0.4 -0.6,0.6 -1,0.8 -0.6,0.3 -1.2,0.5 -1.9,0.5 -1,0 -1.8,-0.3 -2.3,-0.9 -0.5,-0.5 -0.7,-1.2 -0.7,-2 0,-1.3 0.5,-2.2 1.6,-2.7 0.6,-0.3 1.6,-0.5 2.8,-0.5 0.3,0 0.8,0 1.4,0 v -0.3 c 0,-0.7 -0.1,-1.2 -0.3,-1.6 -0.3,-0.7 -1,-1 -1.9,-1 -0.8,0 -1.6,0.3 -2.5,0.8 l -0.6,-1 c 1,-0.6 2.1,-1 3.3,-1 1.5,0 2.5,0.4 3,1.3 0.3,0.4 0.4,1 0.4,1.8 0,0.3 0,0.7 0,1.2 v 4.5 l 1.4,0.1 v 1 z m -0.2,-4.7 c -0.3,0 -0.7,0 -1.1,0 -1,0 -1.8,0.1 -2.3,0.4 -0.6,0.4 -0.9,0.9 -0.9,1.6 0,0.5 0.2,0.9 0.5,1.3 0.3,0.3 0.8,0.5 1.3,0.5 1,0 1.9,-0.5 2.5,-1.5 z"
       id="path11" /><path
       d="m 182.4,31.5 v 2.7 H 181 l -0.2,-1.8 c -0.5,-0.2 -1,-0.2 -1.4,-0.2 -1,0 -1.7,0.3 -2.2,1 -0.5,0.7 -0.7,1.6 -0.7,2.8 0,1.2 0.3,2.2 0.9,3 0.5,0.7 1.2,1 2.2,1 0.8,0 1.7,-0.3 2.5,-0.9 l 0.6,1.1 c -0.9,0.6 -1.9,0.9 -3.1,0.9 -1.4,0 -2.5,-0.4 -3.3,-1.3 -0.8,-0.9 -1.2,-2.1 -1.2,-3.7 0,-1.7 0.4,-3 1.3,-3.9 0.8,-0.8 1.8,-1.2 3.2,-1.2 0.9,0 1.8,0.2 2.8,0.5 z"
       id="path12" /><path
       d="m 185.2,39.8 v -7.5 l -1.4,-0.1 v -1 l 2.9,-0.1 v 8.7 l 1.4,0.1 v 1 h -4.3 v -1 z M 186,26.7 c 0.4,0 0.6,0.1 0.8,0.4 0.1,0.2 0.2,0.4 0.2,0.6 0,0.2 -0.1,0.4 -0.2,0.6 -0.2,0.3 -0.5,0.4 -0.8,0.4 -0.4,0 -0.6,-0.1 -0.8,-0.4 -0.1,-0.2 -0.2,-0.4 -0.2,-0.6 0,-0.2 0.1,-0.5 0.2,-0.6 0.1,-0.2 0.4,-0.4 0.8,-0.4 z"
       id="path13" /><path
       d="m 194.1,31 c 1.4,0 2.5,0.5 3.3,1.6 0.7,0.9 1.1,2 1.1,3.4 0,1.5 -0.4,2.7 -1.2,3.6 -0.8,0.9 -1.9,1.4 -3.2,1.4 -1.4,0 -2.6,-0.5 -3.4,-1.6 -0.7,-0.9 -1.1,-2.1 -1.1,-3.5 0,-1.5 0.4,-2.7 1.2,-3.6 0.9,-0.8 2,-1.3 3.3,-1.3 z m -0.1,1.2 c -0.6,0 -1.1,0.2 -1.6,0.6 -0.9,0.7 -1.3,1.8 -1.3,3.3 0,1.1 0.2,1.9 0.7,2.6 0.5,0.8 1.3,1.2 2.3,1.2 1.1,0 1.8,-0.5 2.4,-1.4 0.4,-0.7 0.6,-1.5 0.6,-2.5 0,-1.1 -0.2,-1.9 -0.7,-2.6 -0.6,-0.8 -1.4,-1.2 -2.4,-1.2 z m 1.2,-5.3 h 1.9 l -2.8,2.8 h -1.4 z"
       id="path14" /><path
       d="m 201.5,39.8 v -7.5 l -1.4,-0.1 v -1 l 2.8,-0.1 v 1.6 c 0.4,-0.4 0.8,-0.7 1,-0.9 0.7,-0.5 1.5,-0.8 2.5,-0.8 1.3,0 2.2,0.5 2.6,1.6 0.2,0.5 0.3,1.4 0.3,2.5 v 4.7 l 1.4,0.1 v 1 h -4.3 v -1 l 1.4,-0.1 v -4.7 c 0,-0.9 -0.1,-1.5 -0.2,-1.9 -0.3,-0.7 -0.8,-1 -1.7,-1 -1,0 -2.1,0.6 -3.1,1.8 v 5.8 l 1.4,0.1 v 1 H 200 v -1 z"
       id="path15" /><line
       class="st1"
       x1="112.4"
       y1="24.6"
       x2="112.4"
       y2="44.400002"
       id="line15" /></g></g>&#10;</svg>
